<svg width="1371" height="379" viewBox="0 0 1371 379" fill="none" xmlns="http://www.w3.org/2000/svg">
<circle cx="64" cy="93" r="64" fill="#779FA1"/>
<path d="M42.502 93.127C40.2507 92.4798 38.61 91.6868 37.5801 90.748C36.5592 89.8001 36.0488 88.6335 36.0488 87.248C36.0488 85.6803 36.6732 84.3861 37.9219 83.3652C39.1797 82.3353 40.8112 81.8203 42.8164 81.8203C44.1836 81.8203 45.4004 82.0846 46.4668 82.6133C47.5423 83.1419 48.3717 83.8711 48.9551 84.8008C49.5475 85.7305 49.8438 86.7467 49.8438 87.8496H47.2051C47.2051 86.6465 46.8223 85.7031 46.0566 85.0195C45.291 84.3268 44.2109 83.9805 42.8164 83.9805C41.5221 83.9805 40.5104 84.2676 39.7812 84.8418C39.0612 85.4069 38.7012 86.1953 38.7012 87.207C38.7012 88.0182 39.043 88.7064 39.7266 89.2715C40.4193 89.8275 41.5905 90.3379 43.2402 90.8027C44.8991 91.2676 46.1934 91.7826 47.123 92.3477C48.0618 92.9036 48.7546 93.5553 49.2012 94.3027C49.6569 95.0501 49.8848 95.9297 49.8848 96.9414C49.8848 98.5547 49.2559 99.849 47.998 100.824C46.7402 101.79 45.0586 102.273 42.9531 102.273C41.5859 102.273 40.3099 102.014 39.125 101.494C37.9401 100.965 37.0241 100.245 36.377 99.334C35.7389 98.4225 35.4199 97.388 35.4199 96.2305H38.0586C38.0586 97.4336 38.5007 98.3861 39.3848 99.0879C40.278 99.7806 41.4674 100.127 42.9531 100.127C44.3385 100.127 45.4004 99.8444 46.1387 99.2793C46.877 98.7142 47.2461 97.944 47.2461 96.9688C47.2461 95.9935 46.9043 95.2415 46.2207 94.7129C45.5371 94.1751 44.2975 93.6465 42.502 93.127ZM56.2969 83.625V87.207H59.0586V89.1621H56.2969V98.3359C56.2969 98.9284 56.4199 99.375 56.666 99.6758C56.9121 99.9674 57.3314 100.113 57.9238 100.113C58.2155 100.113 58.6165 100.059 59.127 99.9492V102C58.4616 102.182 57.8145 102.273 57.1855 102.273C56.0553 102.273 55.2031 101.932 54.6289 101.248C54.0547 100.564 53.7676 99.5938 53.7676 98.3359V89.1621H51.0742V87.207H53.7676V83.625H56.2969ZM71.1582 102C71.0124 101.708 70.8939 101.189 70.8027 100.441C69.627 101.663 68.2233 102.273 66.5918 102.273C65.1335 102.273 63.9349 101.863 62.9961 101.043C62.0664 100.214 61.6016 99.1654 61.6016 97.8984C61.6016 96.3581 62.1849 95.1641 63.3516 94.3164C64.5273 93.4596 66.1771 93.0312 68.3008 93.0312H70.7617V91.8691C70.7617 90.985 70.4974 90.2832 69.9688 89.7637C69.4401 89.235 68.6608 88.9707 67.6309 88.9707C66.7285 88.9707 65.972 89.1986 65.3613 89.6543C64.7507 90.11 64.4453 90.6615 64.4453 91.3086H61.9023C61.9023 90.5703 62.1621 89.8594 62.6816 89.1758C63.2103 88.4831 63.9212 87.9362 64.8145 87.5352C65.7168 87.1341 66.7057 86.9336 67.7812 86.9336C69.4857 86.9336 70.821 87.362 71.7871 88.2188C72.7533 89.0664 73.2546 90.2376 73.291 91.7324V98.541C73.291 99.8991 73.4642 100.979 73.8105 101.781V102H71.1582ZM66.9609 100.072C67.7539 100.072 68.5059 99.8672 69.2168 99.457C69.9277 99.0469 70.4427 98.5137 70.7617 97.8574V94.8223H68.7793C65.6803 94.8223 64.1309 95.7292 64.1309 97.543C64.1309 98.3359 64.3952 98.9557 64.9238 99.4023C65.4525 99.849 66.1315 100.072 66.9609 100.072ZM84.4062 89.4766C84.0234 89.4128 83.6087 89.3809 83.1621 89.3809C81.5033 89.3809 80.3776 90.0872 79.7852 91.5V102H77.2559V87.207H79.7168L79.7578 88.916C80.5872 87.5944 81.763 86.9336 83.2852 86.9336C83.7773 86.9336 84.151 86.9974 84.4062 87.125V89.4766ZM90.8594 83.625V87.207H93.6211V89.1621H90.8594V98.3359C90.8594 98.9284 90.9824 99.375 91.2285 99.6758C91.4746 99.9674 91.8939 100.113 92.4863 100.113C92.778 100.113 93.179 100.059 93.6895 99.9492V102C93.0241 102.182 92.377 102.273 91.748 102.273C90.6178 102.273 89.7656 101.932 89.1914 101.248C88.6172 100.564 88.3301 99.5938 88.3301 98.3359V89.1621H85.6367V87.207H88.3301V83.625H90.8594Z" fill="white"/>
<path d="M152 90.5C150.619 90.5 149.5 91.6193 149.5 93C149.5 94.3807 150.619 95.5 152 95.5L152 90.5ZM217.768 94.7678C218.744 93.7915 218.744 92.2085 217.768 91.2322L201.858 75.3223C200.882 74.346 199.299 74.346 198.322 75.3223C197.346 76.2986 197.346 77.8816 198.322 78.8579L212.464 93L198.322 107.142C197.346 108.118 197.346 109.701 198.322 110.678C199.299 111.654 200.882 111.654 201.858 110.678L217.768 94.7678ZM152 95.5L216 95.5L216 90.5L152 90.5L152 95.5Z" fill="#FF6542"/>
<path d="M433 90.5C431.619 90.5 430.5 91.6193 430.5 93C430.5 94.3807 431.619 95.5 433 95.5L433 90.5ZM498.768 94.7678C499.744 93.7915 499.744 92.2085 498.768 91.2322L482.858 75.3223C481.882 74.346 480.299 74.346 479.322 75.3223C478.346 76.2986 478.346 77.8816 479.322 78.8579L493.464 93L479.322 107.142C478.346 108.118 478.346 109.701 479.322 110.678C480.299 111.654 481.882 111.654 482.858 110.678L498.768 94.7678ZM433 95.5L497 95.5L497 90.5L433 90.5L433 95.5Z" fill="#FF6542"/>
<path d="M433 90.5C431.619 90.5 430.5 91.6193 430.5 93C430.5 94.3807 431.619 95.5 433 95.5L433 90.5ZM498.768 94.7678C499.744 93.7915 499.744 92.2085 498.768 91.2322L482.858 75.3223C481.882 74.346 480.299 74.346 479.322 75.3223C478.346 76.2986 478.346 77.8816 479.322 78.8579L493.464 93L479.322 107.142C478.346 108.118 478.346 109.701 479.322 110.678C480.299 111.654 481.882 111.654 482.858 110.678L498.768 94.7678ZM433 95.5L497 95.5L497 90.5L433 90.5L433 95.5Z" fill="#FF6542"/>
<rect x="240" y="59" width="169" height="67" rx="24" fill="#88498F"/>
<path d="M277.703 101H275.441V93.1133H266.84V101H264.59V83.9375H266.84V91.2734H275.441V83.9375H277.703V101ZM280.785 94.543C280.785 93.3008 281.027 92.1836 281.512 91.1914C282.004 90.1992 282.684 89.4336 283.551 88.8945C284.426 88.3555 285.422 88.0859 286.539 88.0859C288.266 88.0859 289.66 88.6836 290.723 89.8789C291.793 91.0742 292.328 92.6641 292.328 94.6484V94.8008C292.328 96.0352 292.09 97.1445 291.613 98.1289C291.145 99.1055 290.469 99.8672 289.586 100.414C288.711 100.961 287.703 101.234 286.562 101.234C284.844 101.234 283.449 100.637 282.379 99.4414C281.316 98.2461 280.785 96.6641 280.785 94.6953V94.543ZM282.965 94.8008C282.965 96.207 283.289 97.3359 283.938 98.1875C284.594 99.0391 285.469 99.4648 286.562 99.4648C287.664 99.4648 288.539 99.0352 289.188 98.1758C289.836 97.3086 290.16 96.0977 290.16 94.543C290.16 93.1523 289.828 92.0273 289.164 91.168C288.508 90.3008 287.633 89.8672 286.539 89.8672C285.469 89.8672 284.605 90.293 283.949 91.1445C283.293 91.9961 282.965 93.2148 282.965 94.8008ZM297.086 88.3203L297.145 89.7266C298.074 88.6328 299.328 88.0859 300.906 88.0859C302.68 88.0859 303.887 88.7656 304.527 90.125C304.949 89.5156 305.496 89.0234 306.168 88.6484C306.848 88.2734 307.648 88.0859 308.57 88.0859C311.352 88.0859 312.766 89.5586 312.812 92.5039V101H310.645V92.6328C310.645 91.7266 310.438 91.0508 310.023 90.6055C309.609 90.1523 308.914 89.9258 307.938 89.9258C307.133 89.9258 306.465 90.168 305.934 90.6523C305.402 91.1289 305.094 91.7734 305.008 92.5859V101H302.828V92.6914C302.828 90.8477 301.926 89.9258 300.121 89.9258C298.699 89.9258 297.727 90.5312 297.203 91.7422V101H295.035V88.3203H297.086ZM321.355 101.234C319.637 101.234 318.238 100.672 317.16 99.5469C316.082 98.4141 315.543 96.9023 315.543 95.0117V94.6133C315.543 93.3555 315.781 92.2344 316.258 91.25C316.742 90.2578 317.414 89.4844 318.273 88.9297C319.141 88.3672 320.078 88.0859 321.086 88.0859C322.734 88.0859 324.016 88.6289 324.93 89.7148C325.844 90.8008 326.301 92.3555 326.301 94.3789V95.2812H317.711C317.742 96.5312 318.105 97.543 318.801 98.3164C319.504 99.082 320.395 99.4648 321.473 99.4648C322.238 99.4648 322.887 99.3086 323.418 98.9961C323.949 98.6836 324.414 98.2695 324.812 97.7539L326.137 98.7852C325.074 100.418 323.48 101.234 321.355 101.234ZM321.086 89.8672C320.211 89.8672 319.477 90.1875 318.883 90.8281C318.289 91.4609 317.922 92.3516 317.781 93.5H324.133V93.3359C324.07 92.2344 323.773 91.3828 323.242 90.7812C322.711 90.1719 321.992 89.8672 321.086 89.8672ZM337.363 94.3203V101H335.113V83.9375H341.406C343.273 83.9375 344.734 84.4141 345.789 85.3672C346.852 86.3203 347.383 87.582 347.383 89.1523C347.383 90.8086 346.863 92.0859 345.824 92.9844C344.793 93.875 343.312 94.3203 341.383 94.3203H337.363ZM337.363 92.4805H341.406C342.609 92.4805 343.531 92.1992 344.172 91.6367C344.812 91.0664 345.133 90.2461 345.133 89.1758C345.133 88.1602 344.812 87.3477 344.172 86.7383C343.531 86.1289 342.652 85.8125 341.535 85.7891H337.363V92.4805ZM357.602 101C357.477 100.75 357.375 100.305 357.297 99.6641C356.289 100.711 355.086 101.234 353.688 101.234C352.438 101.234 351.41 100.883 350.605 100.18C349.809 99.4688 349.41 98.5703 349.41 97.4844C349.41 96.1641 349.91 95.1406 350.91 94.4141C351.918 93.6797 353.332 93.3125 355.152 93.3125H357.262V92.3164C357.262 91.5586 357.035 90.957 356.582 90.5117C356.129 90.0586 355.461 89.832 354.578 89.832C353.805 89.832 353.156 90.0273 352.633 90.418C352.109 90.8086 351.848 91.2812 351.848 91.8359H349.668C349.668 91.2031 349.891 90.5938 350.336 90.0078C350.789 89.4141 351.398 88.9453 352.164 88.6016C352.938 88.2578 353.785 88.0859 354.707 88.0859C356.168 88.0859 357.312 88.4531 358.141 89.1875C358.969 89.9141 359.398 90.918 359.43 92.1992V98.0352C359.43 99.1992 359.578 100.125 359.875 100.812V101H357.602ZM354.004 99.3477C354.684 99.3477 355.328 99.1719 355.938 98.8203C356.547 98.4688 356.988 98.0117 357.262 97.4492V94.8477H355.562C352.906 94.8477 351.578 95.625 351.578 97.1797C351.578 97.8594 351.805 98.3906 352.258 98.7734C352.711 99.1562 353.293 99.3477 354.004 99.3477ZM362.312 94.5547C362.312 92.5781 362.77 91.0078 363.684 89.8438C364.598 88.6719 365.809 88.0859 367.316 88.0859C368.863 88.0859 370.07 88.6328 370.938 89.7266L371.043 88.3203H373.023V100.695C373.023 102.336 372.535 103.629 371.559 104.574C370.59 105.52 369.285 105.992 367.645 105.992C366.73 105.992 365.836 105.797 364.961 105.406C364.086 105.016 363.418 104.48 362.957 103.801L364.082 102.5C365.012 103.648 366.148 104.223 367.492 104.223C368.547 104.223 369.367 103.926 369.953 103.332C370.547 102.738 370.844 101.902 370.844 100.824V99.7344C369.977 100.734 368.793 101.234 367.293 101.234C365.809 101.234 364.605 100.637 363.684 99.4414C362.77 98.2461 362.312 96.6172 362.312 94.5547ZM364.492 94.8008C364.492 96.2305 364.785 97.3555 365.371 98.1758C365.957 98.9883 366.777 99.3945 367.832 99.3945C369.199 99.3945 370.203 98.7734 370.844 97.5312V91.7422C370.18 90.5312 369.184 89.9258 367.855 89.9258C366.801 89.9258 365.977 90.3359 365.383 91.1562C364.789 91.9766 364.492 93.1914 364.492 94.8008ZM381.566 101.234C379.848 101.234 378.449 100.672 377.371 99.5469C376.293 98.4141 375.754 96.9023 375.754 95.0117V94.6133C375.754 93.3555 375.992 92.2344 376.469 91.25C376.953 90.2578 377.625 89.4844 378.484 88.9297C379.352 88.3672 380.289 88.0859 381.297 88.0859C382.945 88.0859 384.227 88.6289 385.141 89.7148C386.055 90.8008 386.512 92.3555 386.512 94.3789V95.2812H377.922C377.953 96.5312 378.316 97.543 379.012 98.3164C379.715 99.082 380.605 99.4648 381.684 99.4648C382.449 99.4648 383.098 99.3086 383.629 98.9961C384.16 98.6836 384.625 98.2695 385.023 97.7539L386.348 98.7852C385.285 100.418 383.691 101.234 381.566 101.234ZM381.297 89.8672C380.422 89.8672 379.688 90.1875 379.094 90.8281C378.5 91.4609 378.133 92.3516 377.992 93.5H384.344V93.3359C384.281 92.2344 383.984 91.3828 383.453 90.7812C382.922 90.1719 382.203 89.8672 381.297 89.8672Z" fill="white"/>
<path d="M750 91.5C748.619 91.5 747.5 92.6193 747.5 94C747.5 95.3807 748.619 96.5 750 96.5L750 91.5ZM815.768 95.7678C816.744 94.7915 816.744 93.2085 815.768 92.2322L799.858 76.3223C798.882 75.346 797.299 75.346 796.322 76.3223C795.346 77.2986 795.346 78.8816 796.322 79.8579L810.464 94L796.322 108.142C795.346 109.118 795.346 110.701 796.322 111.678C797.299 112.654 798.882 112.654 799.858 111.678L815.768 95.7678ZM750 96.5L814 96.5L814 91.5L750 91.5L750 96.5Z" fill="#FF6542"/>
<path d="M1059 91.5C1057.62 91.5 1056.5 92.6193 1056.5 94C1056.5 95.3807 1057.62 96.5 1059 96.5L1059 91.5ZM1124.77 95.7678C1125.74 94.7915 1125.74 93.2085 1124.77 92.2322L1108.86 76.3223C1107.88 75.346 1106.3 75.346 1105.32 76.3223C1104.35 77.2986 1104.35 78.8816 1105.32 79.8579L1119.46 94L1105.32 108.142C1104.35 109.118 1104.35 110.701 1105.32 111.678C1106.3 112.654 1107.88 112.654 1108.86 111.678L1124.77 95.7678ZM1059 96.5L1123 96.5L1123 91.5L1059 91.5L1059 96.5Z" fill="#FF6542"/>
<path d="M625.5 205C625.5 203.619 624.381 202.5 623 202.5C621.619 202.5 620.5 203.619 620.5 205H625.5ZM621.232 270.768C622.209 271.744 623.791 271.744 624.768 270.768L640.678 254.858C641.654 253.882 641.654 252.299 640.678 251.322C639.701 250.346 638.118 250.346 637.142 251.322L623 265.464L608.858 251.322C607.882 250.346 606.299 250.346 605.322 251.322C604.346 252.299 604.346 253.882 605.322 254.858L621.232 270.768ZM620.5 205V269H625.5V205H620.5Z" fill="#FF6542"/>
<path d="M610.941 10.1334C618.27 4.22022 628.73 4.22022 636.059 10.1334L720.709 78.4349C730.631 86.4401 730.631 101.56 720.709 109.565L636.059 177.867C628.73 183.78 618.27 183.78 610.941 177.867L526.291 109.565C516.369 101.56 516.369 86.4401 526.291 78.4349L610.941 10.1334Z" fill="#FFB2A0"/>
<path d="M568.355 92H565.73V72.0938H568.355V92ZM575.164 77.207L575.246 79.0664C576.376 77.6445 577.853 76.9336 579.676 76.9336C582.802 76.9336 584.379 78.6973 584.406 82.2246V92H581.877V82.2109C581.868 81.1445 581.622 80.3561 581.139 79.8457C580.665 79.3353 579.922 79.0801 578.91 79.0801C578.09 79.0801 577.37 79.2988 576.75 79.7363C576.13 80.1738 575.647 80.748 575.301 81.459V92H572.771V77.207H575.164ZM593.102 88.5684L596.766 77.207H599.35L594.045 92H592.117L586.758 77.207H589.342L593.102 88.5684ZM607.73 92.2734C605.725 92.2734 604.094 91.6172 602.836 90.3047C601.578 88.9831 600.949 87.2194 600.949 85.0137V84.5488C600.949 83.0814 601.227 81.7734 601.783 80.625C602.348 79.4674 603.132 78.5651 604.135 77.918C605.146 77.2617 606.24 76.9336 607.416 76.9336C609.339 76.9336 610.834 77.5671 611.9 78.834C612.967 80.1009 613.5 81.9147 613.5 84.2754V85.3281H603.479C603.515 86.7865 603.939 87.9668 604.75 88.8691C605.57 89.7624 606.609 90.209 607.867 90.209C608.76 90.209 609.517 90.0267 610.137 89.6621C610.757 89.2975 611.299 88.8145 611.764 88.2129L613.309 89.416C612.069 91.321 610.21 92.2734 607.73 92.2734ZM607.416 79.0117C606.395 79.0117 605.538 79.3854 604.846 80.1328C604.153 80.8711 603.725 81.9102 603.561 83.25H610.971V83.0586C610.898 81.7734 610.551 80.7799 609.932 80.0781C609.312 79.3672 608.473 79.0117 607.416 79.0117ZM618.832 77.207L618.914 79.0664C620.044 77.6445 621.521 76.9336 623.344 76.9336C626.47 76.9336 628.047 78.6973 628.074 82.2246V92H625.545V82.2109C625.536 81.1445 625.29 80.3561 624.807 79.8457C624.333 79.3353 623.59 79.0801 622.578 79.0801C621.758 79.0801 621.038 79.2988 620.418 79.7363C619.798 80.1738 619.315 80.748 618.969 81.459V92H616.439V77.207H618.832ZM635.32 73.625V77.207H638.082V79.1621H635.32V88.3359C635.32 88.9284 635.443 89.375 635.689 89.6758C635.936 89.9674 636.355 90.1133 636.947 90.1133C637.239 90.1133 637.64 90.0586 638.15 89.9492V92C637.485 92.1823 636.838 92.2734 636.209 92.2734C635.079 92.2734 634.227 91.9316 633.652 91.248C633.078 90.5645 632.791 89.5938 632.791 88.3359V79.1621H630.098V77.207H632.791V73.625H635.32ZM640.105 84.4668C640.105 83.0176 640.388 81.7142 640.953 80.5566C641.527 79.3991 642.32 78.5059 643.332 77.877C644.353 77.248 645.515 76.9336 646.818 76.9336C648.833 76.9336 650.46 77.6309 651.699 79.0254C652.948 80.4199 653.572 82.2747 653.572 84.5898V84.7676C653.572 86.2077 653.294 87.502 652.738 88.6504C652.191 89.7897 651.403 90.6784 650.373 91.3164C649.352 91.9544 648.176 92.2734 646.846 92.2734C644.84 92.2734 643.214 91.5762 641.965 90.1816C640.725 88.7871 640.105 86.9414 640.105 84.6445V84.4668ZM642.648 84.7676C642.648 86.4082 643.027 87.7253 643.783 88.7188C644.549 89.7122 645.57 90.209 646.846 90.209C648.131 90.209 649.152 89.7077 649.908 88.7051C650.665 87.6934 651.043 86.2806 651.043 84.4668C651.043 82.8444 650.656 81.5319 649.881 80.5293C649.115 79.5176 648.094 79.0117 646.818 79.0117C645.57 79.0117 644.562 79.5085 643.797 80.502C643.031 81.4954 642.648 82.9173 642.648 84.7676ZM663.895 79.4766C663.512 79.4128 663.097 79.3809 662.65 79.3809C660.992 79.3809 659.866 80.0872 659.273 81.5V92H656.744V77.207H659.205L659.246 78.916C660.076 77.5944 661.251 76.9336 662.773 76.9336C663.266 76.9336 663.639 76.9974 663.895 77.125V79.4766ZM671.318 88.2949L674.764 77.207H677.471L671.523 94.2832C670.603 96.7441 669.14 97.9746 667.135 97.9746L666.656 97.9336L665.713 97.7559V95.7051L666.396 95.7598C667.253 95.7598 667.919 95.5866 668.393 95.2402C668.876 94.8939 669.272 94.2604 669.582 93.3398L670.143 91.8359L664.865 77.207H667.627L671.318 88.2949ZM593.621 115.799H584.994V122.854H595.016V125H582.369V105.094H594.879V107.254H584.994V113.652H593.621V115.799ZM602.85 115.607L606.131 110.207H609.084L604.244 117.521L609.234 125H606.309L602.891 119.463L599.473 125H596.533L601.523 117.521L596.684 110.207H599.609L602.85 115.607ZM614.525 125H611.996V110.207H614.525V125ZM611.791 106.283C611.791 105.873 611.914 105.527 612.16 105.244C612.415 104.962 612.789 104.82 613.281 104.82C613.773 104.82 614.147 104.962 614.402 105.244C614.658 105.527 614.785 105.873 614.785 106.283C614.785 106.693 614.658 107.035 614.402 107.309C614.147 107.582 613.773 107.719 613.281 107.719C612.789 107.719 612.415 107.582 612.16 107.309C611.914 107.035 611.791 106.693 611.791 106.283ZM627.199 121.076C627.199 120.393 626.939 119.864 626.42 119.49C625.91 119.107 625.012 118.779 623.727 118.506C622.451 118.232 621.434 117.904 620.678 117.521C619.93 117.139 619.374 116.683 619.01 116.154C618.654 115.626 618.477 114.997 618.477 114.268C618.477 113.055 618.987 112.03 620.008 111.191C621.038 110.353 622.35 109.934 623.945 109.934C625.622 109.934 626.98 110.367 628.02 111.232C629.068 112.098 629.592 113.206 629.592 114.555H627.049C627.049 113.862 626.753 113.265 626.16 112.764C625.577 112.262 624.839 112.012 623.945 112.012C623.025 112.012 622.305 112.212 621.785 112.613C621.266 113.014 621.006 113.538 621.006 114.186C621.006 114.796 621.247 115.257 621.73 115.566C622.214 115.876 623.084 116.173 624.342 116.455C625.609 116.738 626.634 117.075 627.418 117.467C628.202 117.859 628.781 118.333 629.154 118.889C629.537 119.436 629.729 120.105 629.729 120.898C629.729 122.22 629.2 123.282 628.143 124.084C627.085 124.877 625.714 125.273 624.027 125.273C622.842 125.273 621.794 125.064 620.883 124.645C619.971 124.225 619.256 123.642 618.736 122.895C618.226 122.138 617.971 121.322 617.971 120.447H620.5C620.546 121.295 620.883 121.969 621.512 122.471C622.15 122.963 622.988 123.209 624.027 123.209C624.984 123.209 625.75 123.018 626.324 122.635C626.908 122.243 627.199 121.723 627.199 121.076ZM636.455 106.625V110.207H639.217V112.162H636.455V121.336C636.455 121.928 636.578 122.375 636.824 122.676C637.07 122.967 637.49 123.113 638.082 123.113C638.374 123.113 638.775 123.059 639.285 122.949V125C638.62 125.182 637.973 125.273 637.344 125.273C636.214 125.273 635.361 124.932 634.787 124.248C634.213 123.564 633.926 122.594 633.926 121.336V112.162H631.232V110.207H633.926V106.625H636.455ZM650.797 121.076C650.797 120.393 650.537 119.864 650.018 119.49C649.507 119.107 648.609 118.779 647.324 118.506C646.048 118.232 645.032 117.904 644.275 117.521C643.528 117.139 642.972 116.683 642.607 116.154C642.252 115.626 642.074 114.997 642.074 114.268C642.074 113.055 642.585 112.03 643.605 111.191C644.635 110.353 645.948 109.934 647.543 109.934C649.22 109.934 650.578 110.367 651.617 111.232C652.665 112.098 653.189 113.206 653.189 114.555H650.646C650.646 113.862 650.35 113.265 649.758 112.764C649.174 112.262 648.436 112.012 647.543 112.012C646.622 112.012 645.902 112.212 645.383 112.613C644.863 113.014 644.604 113.538 644.604 114.186C644.604 114.796 644.845 115.257 645.328 115.566C645.811 115.876 646.682 116.173 647.939 116.455C649.206 116.738 650.232 117.075 651.016 117.467C651.799 117.859 652.378 118.333 652.752 118.889C653.135 119.436 653.326 120.105 653.326 120.898C653.326 122.22 652.798 123.282 651.74 124.084C650.683 124.877 649.311 125.273 647.625 125.273C646.44 125.273 645.392 125.064 644.48 124.645C643.569 124.225 642.854 123.642 642.334 122.895C641.824 122.138 641.568 121.322 641.568 120.447H644.098C644.143 121.295 644.48 121.969 645.109 122.471C645.747 122.963 646.586 123.209 647.625 123.209C648.582 123.209 649.348 123.018 649.922 122.635C650.505 122.243 650.797 121.723 650.797 121.076ZM659.588 119.395C659.606 118.31 659.729 117.453 659.957 116.824C660.185 116.195 660.65 115.498 661.352 114.732L663.143 112.887C663.908 112.021 664.291 111.091 664.291 110.098C664.291 109.141 664.04 108.393 663.539 107.855C663.038 107.309 662.309 107.035 661.352 107.035C660.422 107.035 659.674 107.281 659.109 107.773C658.544 108.266 658.262 108.926 658.262 109.756H655.732C655.751 108.279 656.275 107.09 657.305 106.188C658.344 105.276 659.693 104.82 661.352 104.82C663.074 104.82 664.414 105.285 665.371 106.215C666.337 107.135 666.82 108.402 666.82 110.016C666.82 111.611 666.082 113.183 664.605 114.732L663.115 116.209C662.45 116.947 662.117 118.009 662.117 119.395H659.588ZM659.479 123.729C659.479 123.318 659.602 122.977 659.848 122.703C660.103 122.421 660.477 122.279 660.969 122.279C661.461 122.279 661.835 122.421 662.09 122.703C662.345 122.977 662.473 123.318 662.473 123.729C662.473 124.139 662.345 124.48 662.09 124.754C661.835 125.018 661.461 125.15 660.969 125.15C660.477 125.15 660.103 125.018 659.848 124.754C659.602 124.48 659.479 124.139 659.479 123.729Z" fill="white"/>
<path d="M771.344 63.9199L775.055 56.7812H777.184L772.281 65.6973V71H770.406V65.6973L765.504 56.7812H767.652L771.344 63.9199ZM782.477 71.1953C781.044 71.1953 779.879 70.7266 778.98 69.7891C778.082 68.8451 777.633 67.5853 777.633 66.0098V65.6777C777.633 64.6296 777.831 63.6953 778.229 62.875C778.632 62.0482 779.192 61.4036 779.908 60.9414C780.631 60.4727 781.412 60.2383 782.252 60.2383C783.626 60.2383 784.693 60.6908 785.455 61.5957C786.217 62.5007 786.598 63.7962 786.598 65.4824V66.2344H779.439C779.465 67.276 779.768 68.1191 780.348 68.7637C780.934 69.4017 781.676 69.7207 782.574 69.7207C783.212 69.7207 783.753 69.5905 784.195 69.3301C784.638 69.0697 785.025 68.7246 785.357 68.2949L786.461 69.1543C785.576 70.515 784.247 71.1953 782.477 71.1953ZM782.252 61.7227C781.523 61.7227 780.911 61.9896 780.416 62.5234C779.921 63.0508 779.615 63.793 779.498 64.75H784.791V64.6133C784.739 63.6953 784.492 62.9857 784.049 62.4844C783.606 61.9766 783.007 61.7227 782.252 61.7227ZM794.85 68.1973C794.85 67.709 794.664 67.3314 794.293 67.0645C793.928 66.791 793.287 66.5566 792.369 66.3613C791.458 66.166 790.732 65.9316 790.191 65.6582C789.658 65.3848 789.26 65.0592 789 64.6816C788.746 64.304 788.619 63.8548 788.619 63.334C788.619 62.4681 788.984 61.7357 789.713 61.1367C790.449 60.5378 791.386 60.2383 792.525 60.2383C793.723 60.2383 794.693 60.5475 795.436 61.166C796.184 61.7845 796.559 62.5755 796.559 63.5391H794.742C794.742 63.0443 794.531 62.6178 794.107 62.2598C793.691 61.9017 793.163 61.7227 792.525 61.7227C791.868 61.7227 791.354 61.8659 790.982 62.1523C790.611 62.4388 790.426 62.8132 790.426 63.2754C790.426 63.7116 790.598 64.0404 790.943 64.2617C791.288 64.4831 791.91 64.6947 792.809 64.8965C793.714 65.0983 794.446 65.3392 795.006 65.6191C795.566 65.8991 795.979 66.2376 796.246 66.6348C796.52 67.0254 796.656 67.5039 796.656 68.0703C796.656 69.0143 796.279 69.7728 795.523 70.3457C794.768 70.9121 793.788 71.1953 792.584 71.1953C791.738 71.1953 790.989 71.0456 790.338 70.7461C789.687 70.4466 789.176 70.0299 788.805 69.4961C788.44 68.9557 788.258 68.373 788.258 67.748H790.064C790.097 68.3535 790.338 68.8353 790.787 69.1934C791.243 69.5449 791.842 69.7207 792.584 69.7207C793.268 69.7207 793.814 69.584 794.225 69.3105C794.641 69.0306 794.85 68.6595 794.85 68.1973Z" fill="#581752"/>
<path d="M656.746 243H654.861L647.703 232.043V243H645.818V228.781H647.703L654.881 239.787V228.781H656.746V243ZM659.314 237.619C659.314 236.584 659.516 235.653 659.92 234.826C660.33 233.999 660.896 233.361 661.619 232.912C662.348 232.463 663.178 232.238 664.109 232.238C665.548 232.238 666.71 232.736 667.596 233.732C668.488 234.729 668.934 236.053 668.934 237.707V237.834C668.934 238.863 668.735 239.787 668.338 240.607C667.947 241.421 667.384 242.056 666.648 242.512C665.919 242.967 665.079 243.195 664.129 243.195C662.697 243.195 661.535 242.697 660.643 241.701C659.757 240.705 659.314 239.387 659.314 237.746V237.619ZM661.131 237.834C661.131 239.006 661.401 239.947 661.941 240.656C662.488 241.366 663.217 241.721 664.129 241.721C665.047 241.721 665.776 241.363 666.316 240.646C666.857 239.924 667.127 238.915 667.127 237.619C667.127 236.46 666.85 235.523 666.297 234.807C665.75 234.084 665.021 233.723 664.109 233.723C663.217 233.723 662.498 234.077 661.951 234.787C661.404 235.497 661.131 236.512 661.131 237.834Z" fill="#581752"/>
<rect x="525" y="293" width="197" height="86" rx="24" fill="#88498F"/>
<path d="M597.434 312.938V324.539C597.426 326.148 596.918 327.465 595.91 328.488C594.91 329.512 593.551 330.086 591.832 330.211L591.234 330.234C589.367 330.234 587.879 329.73 586.77 328.723C585.66 327.715 585.098 326.328 585.082 324.562V312.938H587.309V324.492C587.309 325.727 587.648 326.688 588.328 327.375C589.008 328.055 589.977 328.395 591.234 328.395C592.508 328.395 593.48 328.055 594.152 327.375C594.832 326.695 595.172 325.738 595.172 324.504V312.938H597.434ZM611.355 323.801C611.355 325.73 610.914 327.285 610.031 328.465C609.148 329.645 607.953 330.234 606.445 330.234C604.906 330.234 603.695 329.746 602.812 328.77V334.875H600.645V317.32H602.625L602.73 318.727C603.613 317.633 604.84 317.086 606.41 317.086C607.934 317.086 609.137 317.66 610.02 318.809C610.91 319.957 611.355 321.555 611.355 323.602V323.801ZM609.188 323.555C609.188 322.125 608.883 320.996 608.273 320.168C607.664 319.34 606.828 318.926 605.766 318.926C604.453 318.926 603.469 319.508 602.812 320.672V326.73C603.461 327.887 604.453 328.465 605.789 328.465C606.828 328.465 607.652 328.055 608.262 327.234C608.879 326.406 609.188 325.18 609.188 323.555ZM616.477 330H614.309V312H616.477V330ZM619.383 323.543C619.383 322.301 619.625 321.184 620.109 320.191C620.602 319.199 621.281 318.434 622.148 317.895C623.023 317.355 624.02 317.086 625.137 317.086C626.863 317.086 628.258 317.684 629.32 318.879C630.391 320.074 630.926 321.664 630.926 323.648V323.801C630.926 325.035 630.688 326.145 630.211 327.129C629.742 328.105 629.066 328.867 628.184 329.414C627.309 329.961 626.301 330.234 625.16 330.234C623.441 330.234 622.047 329.637 620.977 328.441C619.914 327.246 619.383 325.664 619.383 323.695V323.543ZM621.562 323.801C621.562 325.207 621.887 326.336 622.535 327.188C623.191 328.039 624.066 328.465 625.16 328.465C626.262 328.465 627.137 328.035 627.785 327.176C628.434 326.309 628.758 325.098 628.758 323.543C628.758 322.152 628.426 321.027 627.762 320.168C627.105 319.301 626.23 318.867 625.137 318.867C624.066 318.867 623.203 319.293 622.547 320.145C621.891 320.996 621.562 322.215 621.562 323.801ZM641.473 330C641.348 329.75 641.246 329.305 641.168 328.664C640.16 329.711 638.957 330.234 637.559 330.234C636.309 330.234 635.281 329.883 634.477 329.18C633.68 328.469 633.281 327.57 633.281 326.484C633.281 325.164 633.781 324.141 634.781 323.414C635.789 322.68 637.203 322.312 639.023 322.312H641.133V321.316C641.133 320.559 640.906 319.957 640.453 319.512C640 319.059 639.332 318.832 638.449 318.832C637.676 318.832 637.027 319.027 636.504 319.418C635.98 319.809 635.719 320.281 635.719 320.836H633.539C633.539 320.203 633.762 319.594 634.207 319.008C634.66 318.414 635.27 317.945 636.035 317.602C636.809 317.258 637.656 317.086 638.578 317.086C640.039 317.086 641.184 317.453 642.012 318.188C642.84 318.914 643.27 319.918 643.301 321.199V327.035C643.301 328.199 643.449 329.125 643.746 329.812V330H641.473ZM637.875 328.348C638.555 328.348 639.199 328.172 639.809 327.82C640.418 327.469 640.859 327.012 641.133 326.449V323.848H639.434C636.777 323.848 635.449 324.625 635.449 326.18C635.449 326.859 635.676 327.391 636.129 327.773C636.582 328.156 637.164 328.348 637.875 328.348ZM646.172 323.555C646.172 321.609 646.633 320.047 647.555 318.867C648.477 317.68 649.684 317.086 651.176 317.086C652.66 317.086 653.836 317.594 654.703 318.609V312H656.871V330H654.879L654.773 328.641C653.906 329.703 652.699 330.234 651.152 330.234C649.684 330.234 648.484 329.633 647.555 328.43C646.633 327.227 646.172 325.656 646.172 323.719V323.555ZM648.34 323.801C648.34 325.238 648.637 326.363 649.23 327.176C649.824 327.988 650.645 328.395 651.691 328.395C653.066 328.395 654.07 327.777 654.703 326.543V320.719C654.055 319.523 653.059 318.926 651.715 318.926C650.652 318.926 649.824 319.336 649.23 320.156C648.637 320.977 648.34 322.191 648.34 323.801ZM557.473 358H555.223V340.938H557.473V358ZM563.309 345.32L563.379 346.914C564.348 345.695 565.613 345.086 567.176 345.086C569.855 345.086 571.207 346.598 571.23 349.621V358H569.062V349.609C569.055 348.695 568.844 348.02 568.43 347.582C568.023 347.145 567.387 346.926 566.52 346.926C565.816 346.926 565.199 347.113 564.668 347.488C564.137 347.863 563.723 348.355 563.426 348.965V358H561.258V345.32H563.309ZM578.684 355.059L581.824 345.32H584.039L579.492 358H577.84L573.246 345.32H575.461L578.684 355.059ZM591.223 358.234C589.504 358.234 588.105 357.672 587.027 356.547C585.949 355.414 585.41 353.902 585.41 352.012V351.613C585.41 350.355 585.648 349.234 586.125 348.25C586.609 347.258 587.281 346.484 588.141 345.93C589.008 345.367 589.945 345.086 590.953 345.086C592.602 345.086 593.883 345.629 594.797 346.715C595.711 347.801 596.168 349.355 596.168 351.379V352.281H587.578C587.609 353.531 587.973 354.543 588.668 355.316C589.371 356.082 590.262 356.465 591.34 356.465C592.105 356.465 592.754 356.309 593.285 355.996C593.816 355.684 594.281 355.27 594.68 354.754L596.004 355.785C594.941 357.418 593.348 358.234 591.223 358.234ZM590.953 346.867C590.078 346.867 589.344 347.188 588.75 347.828C588.156 348.461 587.789 349.352 587.648 350.5H594V350.336C593.938 349.234 593.641 348.383 593.109 347.781C592.578 347.172 591.859 346.867 590.953 346.867ZM600.738 345.32L600.809 346.914C601.777 345.695 603.043 345.086 604.605 345.086C607.285 345.086 608.637 346.598 608.66 349.621V358H606.492V349.609C606.484 348.695 606.273 348.02 605.859 347.582C605.453 347.145 604.816 346.926 603.949 346.926C603.246 346.926 602.629 347.113 602.098 347.488C601.566 347.863 601.152 348.355 600.855 348.965V358H598.688V345.32H600.738ZM614.871 342.25V345.32H617.238V346.996H614.871V354.859C614.871 355.367 614.977 355.75 615.188 356.008C615.398 356.258 615.758 356.383 616.266 356.383C616.516 356.383 616.859 356.336 617.297 356.242V358C616.727 358.156 616.172 358.234 615.633 358.234C614.664 358.234 613.934 357.941 613.441 357.355C612.949 356.77 612.703 355.938 612.703 354.859V346.996H610.395V345.32H612.703V342.25H614.871ZM618.973 351.543C618.973 350.301 619.215 349.184 619.699 348.191C620.191 347.199 620.871 346.434 621.738 345.895C622.613 345.355 623.609 345.086 624.727 345.086C626.453 345.086 627.848 345.684 628.91 346.879C629.98 348.074 630.516 349.664 630.516 351.648V351.801C630.516 353.035 630.277 354.145 629.801 355.129C629.332 356.105 628.656 356.867 627.773 357.414C626.898 357.961 625.891 358.234 624.75 358.234C623.031 358.234 621.637 357.637 620.566 356.441C619.504 355.246 618.973 353.664 618.973 351.695V351.543ZM621.152 351.801C621.152 353.207 621.477 354.336 622.125 355.188C622.781 356.039 623.656 356.465 624.75 356.465C625.852 356.465 626.727 356.035 627.375 355.176C628.023 354.309 628.348 353.098 628.348 351.543C628.348 350.152 628.016 349.027 627.352 348.168C626.695 347.301 625.82 346.867 624.727 346.867C623.656 346.867 622.793 347.293 622.137 348.145C621.48 348.996 621.152 350.215 621.152 351.801ZM639.363 347.266C639.035 347.211 638.68 347.184 638.297 347.184C636.875 347.184 635.91 347.789 635.402 349V358H633.234V345.32H635.344L635.379 346.785C636.09 345.652 637.098 345.086 638.402 345.086C638.824 345.086 639.145 345.141 639.363 345.25V347.266ZM645.727 354.824L648.68 345.32H651L645.902 359.957C645.113 362.066 643.859 363.121 642.141 363.121L641.73 363.086L640.922 362.934V361.176L641.508 361.223C642.242 361.223 642.812 361.074 643.219 360.777C643.633 360.48 643.973 359.938 644.238 359.148L644.719 357.859L640.195 345.32H642.562L645.727 354.824ZM668.648 350.465H661.488V358H659.238V340.938H669.809V342.789H661.488V348.625H668.648V350.465ZM674.52 358H672.352V345.32H674.52V358ZM672.176 341.957C672.176 341.605 672.281 341.309 672.492 341.066C672.711 340.824 673.031 340.703 673.453 340.703C673.875 340.703 674.195 340.824 674.414 341.066C674.633 341.309 674.742 341.605 674.742 341.957C674.742 342.309 674.633 342.602 674.414 342.836C674.195 343.07 673.875 343.188 673.453 343.188C673.031 343.188 672.711 343.07 672.492 342.836C672.281 342.602 672.176 342.309 672.176 341.957ZM680.355 358H678.188V340H680.355V358ZM689.098 358.234C687.379 358.234 685.98 357.672 684.902 356.547C683.824 355.414 683.285 353.902 683.285 352.012V351.613C683.285 350.355 683.523 349.234 684 348.25C684.484 347.258 685.156 346.484 686.016 345.93C686.883 345.367 687.82 345.086 688.828 345.086C690.477 345.086 691.758 345.629 692.672 346.715C693.586 347.801 694.043 349.355 694.043 351.379V352.281H685.453C685.484 353.531 685.848 354.543 686.543 355.316C687.246 356.082 688.137 356.465 689.215 356.465C689.98 356.465 690.629 356.309 691.16 355.996C691.691 355.684 692.156 355.27 692.555 354.754L693.879 355.785C692.816 357.418 691.223 358.234 689.098 358.234ZM688.828 346.867C687.953 346.867 687.219 347.188 686.625 347.828C686.031 348.461 685.664 349.352 685.523 350.5H691.875V350.336C691.812 349.234 691.516 348.383 690.984 347.781C690.453 347.172 689.734 346.867 688.828 346.867Z" fill="white"/>
<rect x="838" y="59" width="197" height="67" rx="24" fill="#88498F"/>
<path d="M866.594 98.0117L871.469 83.9375H873.93L867.602 101H865.609L859.293 83.9375H861.742L866.594 98.0117ZM878.242 101H876.074V88.3203H878.242V101ZM875.898 84.957C875.898 84.6055 876.004 84.3086 876.215 84.0664C876.434 83.8242 876.754 83.7031 877.176 83.7031C877.598 83.7031 877.918 83.8242 878.137 84.0664C878.355 84.3086 878.465 84.6055 878.465 84.957C878.465 85.3086 878.355 85.6016 878.137 85.8359C877.918 86.0703 877.598 86.1875 877.176 86.1875C876.754 86.1875 876.434 86.0703 876.215 85.8359C876.004 85.6016 875.898 85.3086 875.898 84.957ZM886.984 101.234C885.266 101.234 883.867 100.672 882.789 99.5469C881.711 98.4141 881.172 96.9023 881.172 95.0117V94.6133C881.172 93.3555 881.41 92.2344 881.887 91.25C882.371 90.2578 883.043 89.4844 883.902 88.9297C884.77 88.3672 885.707 88.0859 886.715 88.0859C888.363 88.0859 889.645 88.6289 890.559 89.7148C891.473 90.8008 891.93 92.3555 891.93 94.3789V95.2812H883.34C883.371 96.5312 883.734 97.543 884.43 98.3164C885.133 99.082 886.023 99.4648 887.102 99.4648C887.867 99.4648 888.516 99.3086 889.047 98.9961C889.578 98.6836 890.043 98.2695 890.441 97.7539L891.766 98.7852C890.703 100.418 889.109 101.234 886.984 101.234ZM886.715 89.8672C885.84 89.8672 885.105 90.1875 884.512 90.8281C883.918 91.4609 883.551 92.3516 883.41 93.5H889.762V93.3359C889.699 92.2344 889.402 91.3828 888.871 90.7812C888.34 90.1719 887.621 89.8672 886.715 89.8672ZM905.676 98.0117L908.113 88.3203H910.281L906.59 101H904.832L901.75 91.3906L898.75 101H896.992L893.312 88.3203H895.469L897.965 97.8125L900.918 88.3203H902.664L905.676 98.0117ZM921.203 101H918.953V83.9375H921.203V101ZM927.039 88.3203L927.109 89.9141C928.078 88.6953 929.344 88.0859 930.906 88.0859C933.586 88.0859 934.938 89.5977 934.961 92.6211V101H932.793V92.6094C932.785 91.6953 932.574 91.0195 932.16 90.582C931.754 90.1445 931.117 89.9258 930.25 89.9258C929.547 89.9258 928.93 90.1133 928.398 90.4883C927.867 90.8633 927.453 91.3555 927.156 91.9648V101H924.988V88.3203H927.039ZM942.414 98.0586L945.555 88.3203H947.77L943.223 101H941.57L936.977 88.3203H939.191L942.414 98.0586ZM954.953 101.234C953.234 101.234 951.836 100.672 950.758 99.5469C949.68 98.4141 949.141 96.9023 949.141 95.0117V94.6133C949.141 93.3555 949.379 92.2344 949.855 91.25C950.34 90.2578 951.012 89.4844 951.871 88.9297C952.738 88.3672 953.676 88.0859 954.684 88.0859C956.332 88.0859 957.613 88.6289 958.527 89.7148C959.441 90.8008 959.898 92.3555 959.898 94.3789V95.2812H951.309C951.34 96.5312 951.703 97.543 952.398 98.3164C953.102 99.082 953.992 99.4648 955.07 99.4648C955.836 99.4648 956.484 99.3086 957.016 98.9961C957.547 98.6836 958.012 98.2695 958.41 97.7539L959.734 98.7852C958.672 100.418 957.078 101.234 954.953 101.234ZM954.684 89.8672C953.809 89.8672 953.074 90.1875 952.48 90.8281C951.887 91.4609 951.52 92.3516 951.379 93.5H957.73V93.3359C957.668 92.2344 957.371 91.3828 956.84 90.7812C956.309 90.1719 955.59 89.8672 954.684 89.8672ZM964.469 88.3203L964.539 89.9141C965.508 88.6953 966.773 88.0859 968.336 88.0859C971.016 88.0859 972.367 89.5977 972.391 92.6211V101H970.223V92.6094C970.215 91.6953 970.004 91.0195 969.59 90.582C969.184 90.1445 968.547 89.9258 967.68 89.9258C966.977 89.9258 966.359 90.1133 965.828 90.4883C965.297 90.8633 964.883 91.3555 964.586 91.9648V101H962.418V88.3203H964.469ZM978.602 85.25V88.3203H980.969V89.9961H978.602V97.8594C978.602 98.3672 978.707 98.75 978.918 99.0078C979.129 99.2578 979.488 99.3828 979.996 99.3828C980.246 99.3828 980.59 99.3359 981.027 99.2422V101C980.457 101.156 979.902 101.234 979.363 101.234C978.395 101.234 977.664 100.941 977.172 100.355C976.68 99.7695 976.434 98.9375 976.434 97.8594V89.9961H974.125V88.3203H976.434V85.25H978.602ZM982.703 94.543C982.703 93.3008 982.945 92.1836 983.43 91.1914C983.922 90.1992 984.602 89.4336 985.469 88.8945C986.344 88.3555 987.34 88.0859 988.457 88.0859C990.184 88.0859 991.578 88.6836 992.641 89.8789C993.711 91.0742 994.246 92.6641 994.246 94.6484V94.8008C994.246 96.0352 994.008 97.1445 993.531 98.1289C993.062 99.1055 992.387 99.8672 991.504 100.414C990.629 100.961 989.621 101.234 988.48 101.234C986.762 101.234 985.367 100.637 984.297 99.4414C983.234 98.2461 982.703 96.6641 982.703 94.6953V94.543ZM984.883 94.8008C984.883 96.207 985.207 97.3359 985.855 98.1875C986.512 99.0391 987.387 99.4648 988.48 99.4648C989.582 99.4648 990.457 99.0352 991.105 98.1758C991.754 97.3086 992.078 96.0977 992.078 94.543C992.078 93.1523 991.746 92.0273 991.082 91.168C990.426 90.3008 989.551 89.8672 988.457 89.8672C987.387 89.8672 986.523 90.293 985.867 91.1445C985.211 91.9961 984.883 93.2148 984.883 94.8008ZM1003.09 90.2656C1002.77 90.2109 1002.41 90.1836 1002.03 90.1836C1000.61 90.1836 999.641 90.7891 999.133 92V101H996.965V88.3203H999.074L999.109 89.7852C999.82 88.6523 1000.83 88.0859 1002.13 88.0859C1002.55 88.0859 1002.88 88.1406 1003.09 88.25V90.2656ZM1009.46 97.8242L1012.41 88.3203H1014.73L1009.63 102.957C1008.84 105.066 1007.59 106.121 1005.87 106.121L1005.46 106.086L1004.65 105.934V104.176L1005.24 104.223C1005.97 104.223 1006.54 104.074 1006.95 103.777C1007.36 103.48 1007.7 102.938 1007.97 102.148L1008.45 100.859L1003.93 88.3203H1006.29L1009.46 97.8242Z" fill="white"/>
<rect x="1147" y="221" width="186" height="67" rx="24" fill="#88498F"/>
<path d="M1170.58 263V245.938H1175.39C1176.88 245.938 1178.19 246.266 1179.33 246.922C1180.47 247.578 1181.35 248.512 1181.97 249.723C1182.59 250.934 1182.91 252.324 1182.92 253.895V254.984C1182.92 256.594 1182.61 258.004 1181.98 259.215C1181.36 260.426 1180.48 261.355 1179.32 262.004C1178.17 262.652 1176.83 262.984 1175.3 263H1170.58ZM1172.83 247.789V261.16H1175.2C1176.93 261.16 1178.28 260.621 1179.24 259.543C1180.21 258.465 1180.69 256.93 1180.69 254.938V253.941C1180.69 252.004 1180.23 250.5 1179.32 249.43C1178.41 248.352 1177.12 247.805 1175.45 247.789H1172.83ZM1185.41 256.543C1185.41 255.301 1185.66 254.184 1186.14 253.191C1186.63 252.199 1187.31 251.434 1188.18 250.895C1189.05 250.355 1190.05 250.086 1191.17 250.086C1192.89 250.086 1194.29 250.684 1195.35 251.879C1196.42 253.074 1196.96 254.664 1196.96 256.648V256.801C1196.96 258.035 1196.72 259.145 1196.24 260.129C1195.77 261.105 1195.1 261.867 1194.21 262.414C1193.34 262.961 1192.33 263.234 1191.19 263.234C1189.47 263.234 1188.08 262.637 1187.01 261.441C1185.95 260.246 1185.41 258.664 1185.41 256.695V256.543ZM1187.59 256.801C1187.59 258.207 1187.92 259.336 1188.57 260.188C1189.22 261.039 1190.1 261.465 1191.19 261.465C1192.29 261.465 1193.17 261.035 1193.82 260.176C1194.46 259.309 1194.79 258.098 1194.79 256.543C1194.79 255.152 1194.46 254.027 1193.79 253.168C1193.14 252.301 1192.26 251.867 1191.17 251.867C1190.1 251.867 1189.23 252.293 1188.58 253.145C1187.92 253.996 1187.59 255.215 1187.59 256.801ZM1201.73 250.32L1201.8 251.914C1202.77 250.695 1204.03 250.086 1205.59 250.086C1208.27 250.086 1209.62 251.598 1209.65 254.621V263H1207.48V254.609C1207.47 253.695 1207.26 253.02 1206.85 252.582C1206.44 252.145 1205.8 251.926 1204.94 251.926C1204.23 251.926 1203.62 252.113 1203.09 252.488C1202.55 252.863 1202.14 253.355 1201.84 253.965V263H1199.68V250.32H1201.73ZM1220.75 263C1220.62 262.75 1220.52 262.305 1220.44 261.664C1219.43 262.711 1218.23 263.234 1216.83 263.234C1215.58 263.234 1214.55 262.883 1213.75 262.18C1212.95 261.469 1212.55 260.57 1212.55 259.484C1212.55 258.164 1213.05 257.141 1214.05 256.414C1215.06 255.68 1216.48 255.312 1218.3 255.312H1220.41V254.316C1220.41 253.559 1220.18 252.957 1219.73 252.512C1219.27 252.059 1218.61 251.832 1217.72 251.832C1216.95 251.832 1216.3 252.027 1215.78 252.418C1215.25 252.809 1214.99 253.281 1214.99 253.836H1212.81C1212.81 253.203 1213.04 252.594 1213.48 252.008C1213.93 251.414 1214.54 250.945 1215.31 250.602C1216.08 250.258 1216.93 250.086 1217.85 250.086C1219.31 250.086 1220.46 250.453 1221.29 251.188C1222.11 251.914 1222.54 252.918 1222.57 254.199V260.035C1222.57 261.199 1222.72 262.125 1223.02 262.812V263H1220.75ZM1217.15 261.348C1217.83 261.348 1218.47 261.172 1219.08 260.82C1219.69 260.469 1220.13 260.012 1220.41 259.449V256.848H1218.71C1216.05 256.848 1214.72 257.625 1214.72 259.18C1214.72 259.859 1214.95 260.391 1215.4 260.773C1215.86 261.156 1216.44 261.348 1217.15 261.348ZM1228.91 247.25V250.32H1231.28V251.996H1228.91V259.859C1228.91 260.367 1229.02 260.75 1229.23 261.008C1229.44 261.258 1229.8 261.383 1230.31 261.383C1230.56 261.383 1230.9 261.336 1231.34 261.242V263C1230.77 263.156 1230.21 263.234 1229.68 263.234C1228.71 263.234 1227.98 262.941 1227.48 262.355C1226.99 261.77 1226.75 260.938 1226.75 259.859V251.996H1224.44V250.32H1226.75V247.25H1228.91ZM1239.09 263.234C1237.37 263.234 1235.97 262.672 1234.89 261.547C1233.81 260.414 1233.27 258.902 1233.27 257.012V256.613C1233.27 255.355 1233.51 254.234 1233.99 253.25C1234.47 252.258 1235.14 251.484 1236 250.93C1236.87 250.367 1237.81 250.086 1238.82 250.086C1240.46 250.086 1241.75 250.629 1242.66 251.715C1243.57 252.801 1244.03 254.355 1244.03 256.379V257.281H1235.44C1235.47 258.531 1235.84 259.543 1236.53 260.316C1237.23 261.082 1238.12 261.465 1239.2 261.465C1239.97 261.465 1240.62 261.309 1241.15 260.996C1241.68 260.684 1242.14 260.27 1242.54 259.754L1243.87 260.785C1242.8 262.418 1241.21 263.234 1239.09 263.234ZM1238.82 251.867C1237.94 251.867 1237.21 252.188 1236.61 252.828C1236.02 253.461 1235.65 254.352 1235.51 255.5H1241.86V255.336C1241.8 254.234 1241.5 253.383 1240.97 252.781C1240.44 252.172 1239.72 251.867 1238.82 251.867ZM1255.26 263H1253.01V245.938H1255.26V263ZM1261.98 247.25V250.32H1264.35V251.996H1261.98V259.859C1261.98 260.367 1262.09 260.75 1262.3 261.008C1262.51 261.258 1262.87 261.383 1263.38 261.383C1263.63 261.383 1263.97 261.336 1264.41 261.242V263C1263.84 263.156 1263.29 263.234 1262.75 263.234C1261.78 263.234 1261.05 262.941 1260.55 262.355C1260.06 261.77 1259.82 260.938 1259.82 259.859V251.996H1257.51V250.32H1259.82V247.25H1261.98ZM1272.16 263.234C1270.44 263.234 1269.04 262.672 1267.96 261.547C1266.88 260.414 1266.34 258.902 1266.34 257.012V256.613C1266.34 255.355 1266.58 254.234 1267.06 253.25C1267.54 252.258 1268.21 251.484 1269.07 250.93C1269.94 250.367 1270.88 250.086 1271.89 250.086C1273.54 250.086 1274.82 250.629 1275.73 251.715C1276.64 252.801 1277.1 254.355 1277.1 256.379V257.281H1268.51C1268.54 258.531 1268.91 259.543 1269.6 260.316C1270.3 261.082 1271.2 261.465 1272.27 261.465C1273.04 261.465 1273.69 261.309 1274.22 260.996C1274.75 260.684 1275.21 260.27 1275.61 259.754L1276.94 260.785C1275.88 262.418 1274.28 263.234 1272.16 263.234ZM1271.89 251.867C1271.01 251.867 1270.28 252.188 1269.68 252.828C1269.09 253.461 1268.72 254.352 1268.58 255.5H1274.93V255.336C1274.87 254.234 1274.57 253.383 1274.04 252.781C1273.51 252.172 1272.79 251.867 1271.89 251.867ZM1281.66 250.32L1281.72 251.727C1282.65 250.633 1283.9 250.086 1285.48 250.086C1287.25 250.086 1288.46 250.766 1289.1 252.125C1289.52 251.516 1290.07 251.023 1290.74 250.648C1291.42 250.273 1292.22 250.086 1293.14 250.086C1295.93 250.086 1297.34 251.559 1297.39 254.504V263H1295.22V254.633C1295.22 253.727 1295.01 253.051 1294.6 252.605C1294.18 252.152 1293.49 251.926 1292.51 251.926C1291.71 251.926 1291.04 252.168 1290.51 252.652C1289.98 253.129 1289.67 253.773 1289.58 254.586V263H1287.4V254.691C1287.4 252.848 1286.5 251.926 1284.7 251.926C1283.27 251.926 1282.3 252.531 1281.78 253.742V263H1279.61V250.32H1281.66ZM1308.05 259.637C1308.05 259.051 1307.83 258.598 1307.38 258.277C1306.95 257.949 1306.18 257.668 1305.07 257.434C1303.98 257.199 1303.11 256.918 1302.46 256.59C1301.82 256.262 1301.34 255.871 1301.03 255.418C1300.73 254.965 1300.57 254.426 1300.57 253.801C1300.57 252.762 1301.01 251.883 1301.89 251.164C1302.77 250.445 1303.89 250.086 1305.26 250.086C1306.7 250.086 1307.86 250.457 1308.75 251.199C1309.65 251.941 1310.1 252.891 1310.1 254.047H1307.92C1307.92 253.453 1307.67 252.941 1307.16 252.512C1306.66 252.082 1306.03 251.867 1305.26 251.867C1304.47 251.867 1303.86 252.039 1303.41 252.383C1302.96 252.727 1302.74 253.176 1302.74 253.73C1302.74 254.254 1302.95 254.648 1303.36 254.914C1303.78 255.18 1304.52 255.434 1305.6 255.676C1306.69 255.918 1307.57 256.207 1308.24 256.543C1308.91 256.879 1309.41 257.285 1309.73 257.762C1310.05 258.23 1310.22 258.805 1310.22 259.484C1310.22 260.617 1309.77 261.527 1308.86 262.215C1307.95 262.895 1306.78 263.234 1305.33 263.234C1304.32 263.234 1303.42 263.055 1302.64 262.695C1301.86 262.336 1301.24 261.836 1300.8 261.195C1300.36 260.547 1300.14 259.848 1300.14 259.098H1302.31C1302.35 259.824 1302.64 260.402 1303.18 260.832C1303.72 261.254 1304.44 261.465 1305.33 261.465C1306.15 261.465 1306.81 261.301 1307.3 260.973C1307.8 260.637 1308.05 260.191 1308.05 259.637Z" fill="white"/>
<rect x="1147" y="59" width="224" height="67" rx="24" fill="#88498F"/>
<path d="M1182.79 83.9375V95.5391C1182.79 97.1484 1182.28 98.4648 1181.27 99.4883C1180.27 100.512 1178.91 101.086 1177.19 101.211L1176.59 101.234C1174.73 101.234 1173.24 100.73 1172.13 99.7227C1171.02 98.7148 1170.46 97.3281 1170.44 95.5625V83.9375H1172.67V95.4922C1172.67 96.7266 1173.01 97.6875 1173.69 98.375C1174.37 99.0547 1175.34 99.3945 1176.59 99.3945C1177.87 99.3945 1178.84 99.0547 1179.51 98.375C1180.19 97.6953 1180.53 96.7383 1180.53 95.5039V83.9375H1182.79ZM1196.71 94.8008C1196.71 96.7305 1196.27 98.2852 1195.39 99.4648C1194.51 100.645 1193.31 101.234 1191.8 101.234C1190.27 101.234 1189.05 100.746 1188.17 99.7695V105.875H1186V88.3203H1187.98L1188.09 89.7266C1188.97 88.6328 1190.2 88.0859 1191.77 88.0859C1193.29 88.0859 1194.5 88.6602 1195.38 89.8086C1196.27 90.957 1196.71 92.5547 1196.71 94.6016V94.8008ZM1194.55 94.5547C1194.55 93.125 1194.24 91.9961 1193.63 91.168C1193.02 90.3398 1192.19 89.9258 1191.12 89.9258C1189.81 89.9258 1188.83 90.5078 1188.17 91.6719V97.7305C1188.82 98.8867 1189.81 99.4648 1191.15 99.4648C1192.19 99.4648 1193.01 99.0547 1193.62 98.2344C1194.24 97.4062 1194.55 96.1797 1194.55 94.5547ZM1198.95 94.5547C1198.95 92.6094 1199.41 91.0469 1200.34 89.8672C1201.26 88.6797 1202.46 88.0859 1203.96 88.0859C1205.44 88.0859 1206.62 88.5938 1207.48 89.6094V83H1209.65V101H1207.66L1207.55 99.6406C1206.69 100.703 1205.48 101.234 1203.93 101.234C1202.46 101.234 1201.27 100.633 1200.34 99.4297C1199.41 98.2266 1198.95 96.6562 1198.95 94.7188V94.5547ZM1201.12 94.8008C1201.12 96.2383 1201.42 97.3633 1202.01 98.1758C1202.61 98.9883 1203.43 99.3945 1204.47 99.3945C1205.85 99.3945 1206.85 98.7773 1207.48 97.543V91.7188C1206.84 90.5234 1205.84 89.9258 1204.5 89.9258C1203.43 89.9258 1202.61 90.3359 1202.01 91.1562C1201.42 91.9766 1201.12 93.1914 1201.12 94.8008ZM1220.86 101C1220.73 100.75 1220.63 100.305 1220.55 99.6641C1219.54 100.711 1218.34 101.234 1216.94 101.234C1215.69 101.234 1214.66 100.883 1213.86 100.18C1213.06 99.4688 1212.66 98.5703 1212.66 97.4844C1212.66 96.1641 1213.16 95.1406 1214.16 94.4141C1215.17 93.6797 1216.59 93.3125 1218.41 93.3125H1220.52V92.3164C1220.52 91.5586 1220.29 90.957 1219.84 90.5117C1219.38 90.0586 1218.71 89.832 1217.83 89.832C1217.06 89.832 1216.41 90.0273 1215.89 90.418C1215.36 90.8086 1215.1 91.2812 1215.1 91.8359H1212.92C1212.92 91.2031 1213.14 90.5938 1213.59 90.0078C1214.04 89.4141 1214.65 88.9453 1215.42 88.6016C1216.19 88.2578 1217.04 88.0859 1217.96 88.0859C1219.42 88.0859 1220.57 88.4531 1221.39 89.1875C1222.22 89.9141 1222.65 90.918 1222.68 92.1992V98.0352C1222.68 99.1992 1222.83 100.125 1223.13 100.812V101H1220.86ZM1217.26 99.3477C1217.94 99.3477 1218.58 99.1719 1219.19 98.8203C1219.8 98.4688 1220.24 98.0117 1220.52 97.4492V94.8477H1218.82C1216.16 94.8477 1214.83 95.625 1214.83 97.1797C1214.83 97.8594 1215.06 98.3906 1215.51 98.7734C1215.96 99.1562 1216.55 99.3477 1217.26 99.3477ZM1229.02 85.25V88.3203H1231.39V89.9961H1229.02V97.8594C1229.02 98.3672 1229.13 98.75 1229.34 99.0078C1229.55 99.2578 1229.91 99.3828 1230.42 99.3828C1230.67 99.3828 1231.01 99.3359 1231.45 99.2422V101C1230.88 101.156 1230.32 101.234 1229.79 101.234C1228.82 101.234 1228.09 100.941 1227.59 100.355C1227.1 99.7695 1226.86 98.9375 1226.86 97.8594V89.9961H1224.55V88.3203H1226.86V85.25H1229.02ZM1239.2 101.234C1237.48 101.234 1236.08 100.672 1235 99.5469C1233.92 98.4141 1233.38 96.9023 1233.38 95.0117V94.6133C1233.38 93.3555 1233.62 92.2344 1234.1 91.25C1234.58 90.2578 1235.25 89.4844 1236.11 88.9297C1236.98 88.3672 1237.92 88.0859 1238.93 88.0859C1240.57 88.0859 1241.86 88.6289 1242.77 89.7148C1243.68 90.8008 1244.14 92.3555 1244.14 94.3789V95.2812H1235.55C1235.58 96.5312 1235.95 97.543 1236.64 98.3164C1237.34 99.082 1238.23 99.4648 1239.31 99.4648C1240.08 99.4648 1240.73 99.3086 1241.26 98.9961C1241.79 98.6836 1242.25 98.2695 1242.65 97.7539L1243.98 98.7852C1242.91 100.418 1241.32 101.234 1239.2 101.234ZM1238.93 89.8672C1238.05 89.8672 1237.32 90.1875 1236.72 90.8281C1236.13 91.4609 1235.76 92.3516 1235.62 93.5H1241.97V93.3359C1241.91 92.2344 1241.61 91.3828 1241.08 90.7812C1240.55 90.1719 1239.83 89.8672 1238.93 89.8672ZM1255.37 101H1253.12V83.9375H1255.37V101ZM1261.2 88.3203L1261.27 89.9141C1262.24 88.6953 1263.51 88.0859 1265.07 88.0859C1267.75 88.0859 1269.1 89.5977 1269.12 92.6211V101H1266.96V92.6094C1266.95 91.6953 1266.74 91.0195 1266.32 90.582C1265.92 90.1445 1265.28 89.9258 1264.41 89.9258C1263.71 89.9258 1263.09 90.1133 1262.56 90.4883C1262.03 90.8633 1261.62 91.3555 1261.32 91.9648V101H1259.15V88.3203H1261.2ZM1276.58 98.0586L1279.72 88.3203H1281.93L1277.39 101H1275.73L1271.14 88.3203H1273.36L1276.58 98.0586ZM1289.12 101.234C1287.4 101.234 1286 100.672 1284.92 99.5469C1283.84 98.4141 1283.3 96.9023 1283.3 95.0117V94.6133C1283.3 93.3555 1283.54 92.2344 1284.02 91.25C1284.5 90.2578 1285.18 89.4844 1286.04 88.9297C1286.9 88.3672 1287.84 88.0859 1288.85 88.0859C1290.5 88.0859 1291.78 88.6289 1292.69 89.7148C1293.61 90.8008 1294.06 92.3555 1294.06 94.3789V95.2812H1285.47C1285.5 96.5312 1285.87 97.543 1286.56 98.3164C1287.27 99.082 1288.16 99.4648 1289.23 99.4648C1290 99.4648 1290.65 99.3086 1291.18 98.9961C1291.71 98.6836 1292.18 98.2695 1292.57 97.7539L1293.9 98.7852C1292.84 100.418 1291.24 101.234 1289.12 101.234ZM1288.85 89.8672C1287.97 89.8672 1287.24 90.1875 1286.64 90.8281C1286.05 91.4609 1285.68 92.3516 1285.54 93.5H1291.89V93.3359C1291.83 92.2344 1291.54 91.3828 1291 90.7812C1290.47 90.1719 1289.75 89.8672 1288.85 89.8672ZM1298.63 88.3203L1298.7 89.9141C1299.67 88.6953 1300.94 88.0859 1302.5 88.0859C1305.18 88.0859 1306.53 89.5977 1306.55 92.6211V101H1304.39V92.6094C1304.38 91.6953 1304.17 91.0195 1303.75 90.582C1303.35 90.1445 1302.71 89.9258 1301.84 89.9258C1301.14 89.9258 1300.52 90.1133 1299.99 90.4883C1299.46 90.8633 1299.05 91.3555 1298.75 91.9648V101H1296.58V88.3203H1298.63ZM1312.77 85.25V88.3203H1315.13V89.9961H1312.77V97.8594C1312.77 98.3672 1312.87 98.75 1313.08 99.0078C1313.29 99.2578 1313.65 99.3828 1314.16 99.3828C1314.41 99.3828 1314.75 99.3359 1315.19 99.2422V101C1314.62 101.156 1314.07 101.234 1313.53 101.234C1312.56 101.234 1311.83 100.941 1311.34 100.355C1310.84 99.7695 1310.6 98.9375 1310.6 97.8594V89.9961H1308.29V88.3203H1310.6V85.25H1312.77ZM1316.87 94.543C1316.87 93.3008 1317.11 92.1836 1317.59 91.1914C1318.09 90.1992 1318.77 89.4336 1319.63 88.8945C1320.51 88.3555 1321.5 88.0859 1322.62 88.0859C1324.35 88.0859 1325.74 88.6836 1326.8 89.8789C1327.88 91.0742 1328.41 92.6641 1328.41 94.6484V94.8008C1328.41 96.0352 1328.17 97.1445 1327.7 98.1289C1327.23 99.1055 1326.55 99.8672 1325.67 100.414C1324.79 100.961 1323.79 101.234 1322.64 101.234C1320.93 101.234 1319.53 100.637 1318.46 99.4414C1317.4 98.2461 1316.87 96.6641 1316.87 94.6953V94.543ZM1319.05 94.8008C1319.05 96.207 1319.37 97.3359 1320.02 98.1875C1320.68 99.0391 1321.55 99.4648 1322.64 99.4648C1323.75 99.4648 1324.62 99.0352 1325.27 98.1758C1325.92 97.3086 1326.24 96.0977 1326.24 94.543C1326.24 93.1523 1325.91 92.0273 1325.25 91.168C1324.59 90.3008 1323.71 89.8672 1322.62 89.8672C1321.55 89.8672 1320.69 90.293 1320.03 91.1445C1319.38 91.9961 1319.05 93.2148 1319.05 94.8008ZM1337.26 90.2656C1336.93 90.2109 1336.57 90.1836 1336.19 90.1836C1334.77 90.1836 1333.8 90.7891 1333.3 92V101H1331.13V88.3203H1333.24L1333.27 89.7852C1333.98 88.6523 1334.99 88.0859 1336.3 88.0859C1336.72 88.0859 1337.04 88.1406 1337.26 88.25V90.2656ZM1343.62 97.8242L1346.57 88.3203H1348.89L1343.8 102.957C1343.01 105.066 1341.75 106.121 1340.04 106.121L1339.62 106.086L1338.82 105.934V104.176L1339.4 104.223C1340.14 104.223 1340.71 104.074 1341.11 103.777C1341.53 103.48 1341.87 102.938 1342.13 102.148L1342.61 100.859L1338.09 88.3203H1340.46L1343.62 97.8242Z" fill="white"/>
<path d="M939.5 150C939.5 148.619 938.381 147.5 937 147.5C935.619 147.5 934.5 148.619 934.5 150L939.5 150ZM1124.77 256.768C1125.74 255.791 1125.74 254.209 1124.77 253.232L1108.86 237.322C1107.88 236.346 1106.3 236.346 1105.32 237.322C1104.35 238.299 1104.35 239.882 1105.32 240.858L1119.46 255L1105.32 269.142C1104.35 270.118 1104.35 271.701 1105.32 272.678C1106.3 273.654 1107.88 273.654 1108.86 272.678L1124.77 256.768ZM934.5 150L934.5 231L939.5 231L939.5 150L934.5 150ZM961 257.5L1123 257.5L1123 252.5L961 252.5L961 257.5ZM934.5 231C934.5 245.636 946.364 257.5 961 257.5L961 252.5C949.126 252.5 939.5 242.874 939.5 231L934.5 231Z" fill="#FF6542"/>
</svg>
