<svg width="1086" height="443" viewBox="0 0 1086 443" fill="none" xmlns="http://www.w3.org/2000/svg">
<circle cx="64" cy="64" r="64" fill="#779FA1"/>
<path d="M42.502 64.127C40.2507 63.4798 38.61 62.6868 37.5801 61.748C36.5592 60.8001 36.0488 59.6335 36.0488 58.248C36.0488 56.6803 36.6732 55.3861 37.9219 54.3652C39.1797 53.3353 40.8112 52.8203 42.8164 52.8203C44.1836 52.8203 45.4004 53.0846 46.4668 53.6133C47.5423 54.1419 48.3717 54.8711 48.9551 55.8008C49.5475 56.7305 49.8438 57.7467 49.8438 58.8496H47.2051C47.2051 57.6465 46.8223 56.7031 46.0566 56.0195C45.291 55.3268 44.2109 54.9805 42.8164 54.9805C41.5221 54.9805 40.5104 55.2676 39.7812 55.8418C39.0612 56.4069 38.7012 57.1953 38.7012 58.207C38.7012 59.0182 39.043 59.7064 39.7266 60.2715C40.4193 60.8275 41.5905 61.3379 43.2402 61.8027C44.8991 62.2676 46.1934 62.7826 47.123 63.3477C48.0618 63.9036 48.7546 64.5553 49.2012 65.3027C49.6569 66.0501 49.8848 66.9297 49.8848 67.9414C49.8848 69.5547 49.2559 70.849 47.998 71.8242C46.7402 72.7904 45.0586 73.2734 42.9531 73.2734C41.5859 73.2734 40.3099 73.0137 39.125 72.4941C37.9401 71.9655 37.0241 71.2454 36.377 70.334C35.7389 69.4225 35.4199 68.388 35.4199 67.2305H38.0586C38.0586 68.4336 38.5007 69.3861 39.3848 70.0879C40.278 70.7806 41.4674 71.127 42.9531 71.127C44.3385 71.127 45.4004 70.8444 46.1387 70.2793C46.877 69.7142 47.2461 68.944 47.2461 67.9688C47.2461 66.9935 46.9043 66.2415 46.2207 65.7129C45.5371 65.1751 44.2975 64.6465 42.502 64.127ZM56.2969 54.625V58.207H59.0586V60.1621H56.2969V69.3359C56.2969 69.9284 56.4199 70.375 56.666 70.6758C56.9121 70.9674 57.3314 71.1133 57.9238 71.1133C58.2155 71.1133 58.6165 71.0586 59.127 70.9492V73C58.4616 73.1823 57.8145 73.2734 57.1855 73.2734C56.0553 73.2734 55.2031 72.9316 54.6289 72.248C54.0547 71.5645 53.7676 70.5938 53.7676 69.3359V60.1621H51.0742V58.207H53.7676V54.625H56.2969ZM71.1582 73C71.0124 72.7083 70.8939 72.1888 70.8027 71.4414C69.627 72.6628 68.2233 73.2734 66.5918 73.2734C65.1335 73.2734 63.9349 72.8633 62.9961 72.043C62.0664 71.2135 61.6016 70.1654 61.6016 68.8984C61.6016 67.3581 62.1849 66.1641 63.3516 65.3164C64.5273 64.4596 66.1771 64.0312 68.3008 64.0312H70.7617V62.8691C70.7617 61.985 70.4974 61.2832 69.9688 60.7637C69.4401 60.235 68.6608 59.9707 67.6309 59.9707C66.7285 59.9707 65.972 60.1986 65.3613 60.6543C64.7507 61.11 64.4453 61.6615 64.4453 62.3086H61.9023C61.9023 61.5703 62.1621 60.8594 62.6816 60.1758C63.2103 59.4831 63.9212 58.9362 64.8145 58.5352C65.7168 58.1341 66.7057 57.9336 67.7812 57.9336C69.4857 57.9336 70.821 58.362 71.7871 59.2188C72.7533 60.0664 73.2546 61.2376 73.291 62.7324V69.541C73.291 70.8991 73.4642 71.9792 73.8105 72.7812V73H71.1582ZM66.9609 71.0723C67.7539 71.0723 68.5059 70.8672 69.2168 70.457C69.9277 70.0469 70.4427 69.5137 70.7617 68.8574V65.8223H68.7793C65.6803 65.8223 64.1309 66.7292 64.1309 68.543C64.1309 69.3359 64.3952 69.9557 64.9238 70.4023C65.4525 70.849 66.1315 71.0723 66.9609 71.0723ZM84.4062 60.4766C84.0234 60.4128 83.6087 60.3809 83.1621 60.3809C81.5033 60.3809 80.3776 61.0872 79.7852 62.5V73H77.2559V58.207H79.7168L79.7578 59.916C80.5872 58.5944 81.763 57.9336 83.2852 57.9336C83.7773 57.9336 84.151 57.9974 84.4062 58.125V60.4766ZM90.8594 54.625V58.207H93.6211V60.1621H90.8594V69.3359C90.8594 69.9284 90.9824 70.375 91.2285 70.6758C91.4746 70.9674 91.8939 71.1133 92.4863 71.1133C92.778 71.1133 93.179 71.0586 93.6895 70.9492V73C93.0241 73.1823 92.377 73.2734 91.748 73.2734C90.6178 73.2734 89.7656 72.9316 89.1914 72.248C88.6172 71.5645 88.3301 70.5938 88.3301 69.3359V60.1621H85.6367V58.207H88.3301V54.625H90.8594Z" fill="white"/>
<path d="M152 61.5C150.619 61.5 149.5 62.6193 149.5 64C149.5 65.3807 150.619 66.5 152 66.5L152 61.5ZM217.768 65.7678C218.744 64.7915 218.744 63.2085 217.768 62.2322L201.858 46.3223C200.882 45.346 199.299 45.346 198.322 46.3223C197.346 47.2986 197.346 48.8816 198.322 49.8579L212.464 64L198.322 78.1421C197.346 79.1184 197.346 80.7014 198.322 81.6777C199.299 82.654 200.882 82.654 201.858 81.6777L217.768 65.7678ZM152 66.5L216 66.5L216 61.5L152 61.5L152 66.5Z" fill="#FF6542"/>
<path d="M428 61.5C426.619 61.5 425.5 62.6193 425.5 64C425.5 65.3807 426.619 66.5 428 66.5L428 61.5ZM493.768 65.7678C494.744 64.7915 494.744 63.2085 493.768 62.2322L477.858 46.3223C476.882 45.346 475.299 45.346 474.322 46.3223C473.346 47.2986 473.346 48.8816 474.322 49.8579L488.464 64L474.322 78.1421C473.346 79.1184 473.346 80.7014 474.322 81.6777C475.299 82.654 476.882 82.654 477.858 81.6777L493.768 65.7678ZM428 66.5L492 66.5L492 61.5L428 61.5L428 66.5Z" fill="#FF6542"/>
<path d="M428 61.5C426.619 61.5 425.5 62.6193 425.5 64C425.5 65.3807 426.619 66.5 428 66.5L428 61.5ZM493.768 65.7678C494.744 64.7915 494.744 63.2085 493.768 62.2322L477.858 46.3223C476.882 45.346 475.299 45.346 474.322 46.3223C473.346 47.2986 473.346 48.8816 474.322 49.8579L488.464 64L474.322 78.1421C473.346 79.1184 473.346 80.7014 474.322 81.6777C475.299 82.654 476.882 82.654 477.858 81.6777L493.768 65.7678ZM428 66.5L492 66.5L492 61.5L428 61.5L428 66.5Z" fill="#FF6542"/>
<path d="M766 193.5C764.619 193.5 763.5 194.619 763.5 196C763.5 197.381 764.619 198.5 766 198.5L766 193.5ZM831.768 197.768C832.744 196.791 832.744 195.209 831.768 194.232L815.858 178.322C814.882 177.346 813.299 177.346 812.322 178.322C811.346 179.299 811.346 180.882 812.322 181.858L826.464 196L812.322 210.142C811.346 211.118 811.346 212.701 812.322 213.678C813.299 214.654 814.882 214.654 815.858 213.678L831.768 197.768ZM766 198.5L830 198.5L830 193.5L766 193.5L766 198.5Z" fill="#FF6542"/>
<path d="M766 318.5C764.619 318.5 763.5 319.619 763.5 321C763.5 322.381 764.619 323.5 766 323.5L766 318.5ZM831.768 322.768C832.744 321.791 832.744 320.209 831.768 319.232L815.858 303.322C814.882 302.346 813.299 302.346 812.322 303.322C811.346 304.299 811.346 305.882 812.322 306.858L826.464 321L812.322 335.142C811.346 336.118 811.346 337.701 812.322 338.678C813.299 339.654 814.882 339.654 815.858 338.678L831.768 322.768ZM766 323.5L830 323.5L830 318.5L766 318.5L766 323.5Z" fill="#FF6542"/>
<path d="M348.5 108C348.5 106.619 347.381 105.5 346 105.5C344.619 105.5 343.5 106.619 343.5 108L348.5 108ZM493.768 198.768C494.744 197.791 494.744 196.209 493.768 195.232L477.858 179.322C476.882 178.346 475.299 178.346 474.322 179.322C473.346 180.299 473.346 181.882 474.322 182.858L488.464 197L474.322 211.142C473.346 212.118 473.346 213.701 474.322 214.678C475.299 215.654 476.882 215.654 477.858 214.678L493.768 198.768ZM343.5 108L343.5 173L348.5 173L348.5 108L343.5 108ZM370 199.5L492 199.5L492 194.5L370 194.5L370 199.5ZM343.5 173C343.5 187.636 355.364 199.5 370 199.5L370 194.5C358.126 194.5 348.5 184.874 348.5 173L343.5 173Z" fill="#FF6542"/>
<path d="M298.5 108C298.5 106.619 297.381 105.5 296 105.5C294.619 105.5 293.5 106.619 293.5 108L298.5 108ZM493.768 322.768C494.744 321.791 494.744 320.209 493.768 319.232L477.858 303.322C476.882 302.346 475.299 302.346 474.322 303.322C473.346 304.299 473.346 305.882 474.322 306.858L488.464 321L474.322 335.142C473.346 336.118 473.346 337.701 474.322 338.678C475.299 339.654 476.882 339.654 477.858 338.678L493.768 322.768ZM293.5 108L293.5 297L298.5 297L298.5 108L293.5 108ZM320 323.5L492 323.5L492 318.5L320 318.5L320 323.5ZM293.5 297C293.5 311.636 305.364 323.5 320 323.5L320 318.5C308.126 318.5 298.5 308.874 298.5 297L293.5 297Z" fill="#FF6542"/>
<rect x="235" y="30" width="169" height="67" rx="24" fill="#88498F"/>
<path d="M272.703 72H270.441V64.1133H261.84V72H259.59V54.9375H261.84V62.2734H270.441V54.9375H272.703V72ZM275.785 65.543C275.785 64.3008 276.027 63.1836 276.512 62.1914C277.004 61.1992 277.684 60.4336 278.551 59.8945C279.426 59.3555 280.422 59.0859 281.539 59.0859C283.266 59.0859 284.66 59.6836 285.723 60.8789C286.793 62.0742 287.328 63.6641 287.328 65.6484V65.8008C287.328 67.0352 287.09 68.1445 286.613 69.1289C286.145 70.1055 285.469 70.8672 284.586 71.4141C283.711 71.9609 282.703 72.2344 281.562 72.2344C279.844 72.2344 278.449 71.6367 277.379 70.4414C276.316 69.2461 275.785 67.6641 275.785 65.6953V65.543ZM277.965 65.8008C277.965 67.207 278.289 68.3359 278.938 69.1875C279.594 70.0391 280.469 70.4648 281.562 70.4648C282.664 70.4648 283.539 70.0352 284.188 69.1758C284.836 68.3086 285.16 67.0977 285.16 65.543C285.16 64.1523 284.828 63.0273 284.164 62.168C283.508 61.3008 282.633 60.8672 281.539 60.8672C280.469 60.8672 279.605 61.293 278.949 62.1445C278.293 62.9961 277.965 64.2148 277.965 65.8008ZM292.086 59.3203L292.145 60.7266C293.074 59.6328 294.328 59.0859 295.906 59.0859C297.68 59.0859 298.887 59.7656 299.527 61.125C299.949 60.5156 300.496 60.0234 301.168 59.6484C301.848 59.2734 302.648 59.0859 303.57 59.0859C306.352 59.0859 307.766 60.5586 307.812 63.5039V72H305.645V63.6328C305.645 62.7266 305.438 62.0508 305.023 61.6055C304.609 61.1523 303.914 60.9258 302.938 60.9258C302.133 60.9258 301.465 61.168 300.934 61.6523C300.402 62.1289 300.094 62.7734 300.008 63.5859V72H297.828V63.6914C297.828 61.8477 296.926 60.9258 295.121 60.9258C293.699 60.9258 292.727 61.5312 292.203 62.7422V72H290.035V59.3203H292.086ZM316.355 72.2344C314.637 72.2344 313.238 71.6719 312.16 70.5469C311.082 69.4141 310.543 67.9023 310.543 66.0117V65.6133C310.543 64.3555 310.781 63.2344 311.258 62.25C311.742 61.2578 312.414 60.4844 313.273 59.9297C314.141 59.3672 315.078 59.0859 316.086 59.0859C317.734 59.0859 319.016 59.6289 319.93 60.7148C320.844 61.8008 321.301 63.3555 321.301 65.3789V66.2812H312.711C312.742 67.5312 313.105 68.543 313.801 69.3164C314.504 70.082 315.395 70.4648 316.473 70.4648C317.238 70.4648 317.887 70.3086 318.418 69.9961C318.949 69.6836 319.414 69.2695 319.812 68.7539L321.137 69.7852C320.074 71.418 318.48 72.2344 316.355 72.2344ZM316.086 60.8672C315.211 60.8672 314.477 61.1875 313.883 61.8281C313.289 62.4609 312.922 63.3516 312.781 64.5H319.133V64.3359C319.07 63.2344 318.773 62.3828 318.242 61.7812C317.711 61.1719 316.992 60.8672 316.086 60.8672ZM332.363 65.3203V72H330.113V54.9375H336.406C338.273 54.9375 339.734 55.4141 340.789 56.3672C341.852 57.3203 342.383 58.582 342.383 60.1523C342.383 61.8086 341.863 63.0859 340.824 63.9844C339.793 64.875 338.312 65.3203 336.383 65.3203H332.363ZM332.363 63.4805H336.406C337.609 63.4805 338.531 63.1992 339.172 62.6367C339.812 62.0664 340.133 61.2461 340.133 60.1758C340.133 59.1602 339.812 58.3477 339.172 57.7383C338.531 57.1289 337.652 56.8125 336.535 56.7891H332.363V63.4805ZM352.602 72C352.477 71.75 352.375 71.3047 352.297 70.6641C351.289 71.7109 350.086 72.2344 348.688 72.2344C347.438 72.2344 346.41 71.8828 345.605 71.1797C344.809 70.4688 344.41 69.5703 344.41 68.4844C344.41 67.1641 344.91 66.1406 345.91 65.4141C346.918 64.6797 348.332 64.3125 350.152 64.3125H352.262V63.3164C352.262 62.5586 352.035 61.957 351.582 61.5117C351.129 61.0586 350.461 60.832 349.578 60.832C348.805 60.832 348.156 61.0273 347.633 61.418C347.109 61.8086 346.848 62.2812 346.848 62.8359H344.668C344.668 62.2031 344.891 61.5938 345.336 61.0078C345.789 60.4141 346.398 59.9453 347.164 59.6016C347.938 59.2578 348.785 59.0859 349.707 59.0859C351.168 59.0859 352.312 59.4531 353.141 60.1875C353.969 60.9141 354.398 61.918 354.43 63.1992V69.0352C354.43 70.1992 354.578 71.125 354.875 71.8125V72H352.602ZM349.004 70.3477C349.684 70.3477 350.328 70.1719 350.938 69.8203C351.547 69.4688 351.988 69.0117 352.262 68.4492V65.8477H350.562C347.906 65.8477 346.578 66.625 346.578 68.1797C346.578 68.8594 346.805 69.3906 347.258 69.7734C347.711 70.1562 348.293 70.3477 349.004 70.3477ZM357.312 65.5547C357.312 63.5781 357.77 62.0078 358.684 60.8438C359.598 59.6719 360.809 59.0859 362.316 59.0859C363.863 59.0859 365.07 59.6328 365.938 60.7266L366.043 59.3203H368.023V71.6953C368.023 73.3359 367.535 74.6289 366.559 75.5742C365.59 76.5195 364.285 76.9922 362.645 76.9922C361.73 76.9922 360.836 76.7969 359.961 76.4062C359.086 76.0156 358.418 75.4805 357.957 74.8008L359.082 73.5C360.012 74.6484 361.148 75.2227 362.492 75.2227C363.547 75.2227 364.367 74.9258 364.953 74.332C365.547 73.7383 365.844 72.9023 365.844 71.8242V70.7344C364.977 71.7344 363.793 72.2344 362.293 72.2344C360.809 72.2344 359.605 71.6367 358.684 70.4414C357.77 69.2461 357.312 67.6172 357.312 65.5547ZM359.492 65.8008C359.492 67.2305 359.785 68.3555 360.371 69.1758C360.957 69.9883 361.777 70.3945 362.832 70.3945C364.199 70.3945 365.203 69.7734 365.844 68.5312V62.7422C365.18 61.5312 364.184 60.9258 362.855 60.9258C361.801 60.9258 360.977 61.3359 360.383 62.1562C359.789 62.9766 359.492 64.1914 359.492 65.8008ZM376.566 72.2344C374.848 72.2344 373.449 71.6719 372.371 70.5469C371.293 69.4141 370.754 67.9023 370.754 66.0117V65.6133C370.754 64.3555 370.992 63.2344 371.469 62.25C371.953 61.2578 372.625 60.4844 373.484 59.9297C374.352 59.3672 375.289 59.0859 376.297 59.0859C377.945 59.0859 379.227 59.6289 380.141 60.7148C381.055 61.8008 381.512 63.3555 381.512 65.3789V66.2812H372.922C372.953 67.5312 373.316 68.543 374.012 69.3164C374.715 70.082 375.605 70.4648 376.684 70.4648C377.449 70.4648 378.098 70.3086 378.629 69.9961C379.16 69.6836 379.625 69.2695 380.023 68.7539L381.348 69.7852C380.285 71.418 378.691 72.2344 376.566 72.2344ZM376.297 60.8672C375.422 60.8672 374.688 61.1875 374.094 61.8281C373.5 62.4609 373.133 63.3516 372.992 64.5H379.344V64.3359C379.281 63.2344 378.984 62.3828 378.453 61.7812C377.922 61.1719 377.203 60.8672 376.297 60.8672Z" fill="white"/>
<rect x="516" y="21" width="225" height="86" rx="24" fill="#88498F"/>
<path d="M589.062 52.5859C588.852 54.3906 588.184 55.7852 587.059 56.7695C585.941 57.7461 584.453 58.2344 582.594 58.2344C580.578 58.2344 578.961 57.5117 577.742 56.0664C576.531 54.6211 575.926 52.6875 575.926 50.2656V48.625C575.926 47.0391 576.207 45.6445 576.77 44.4414C577.34 43.2383 578.145 42.3164 579.184 41.6758C580.223 41.0273 581.426 40.7031 582.793 40.7031C584.605 40.7031 586.059 41.2109 587.152 42.2266C588.246 43.2344 588.883 44.6328 589.062 46.4219H586.801C586.605 45.0625 586.18 44.0781 585.523 43.4688C584.875 42.8594 583.965 42.5547 582.793 42.5547C581.355 42.5547 580.227 43.0859 579.406 44.1484C578.594 45.2109 578.188 46.7227 578.188 48.6836V50.3359C578.188 52.1875 578.574 53.6602 579.348 54.7539C580.121 55.8477 581.203 56.3945 582.594 56.3945C583.844 56.3945 584.801 56.1133 585.465 55.5508C586.137 54.9805 586.582 53.9922 586.801 52.5859H589.062ZM591.23 51.543C591.23 50.3008 591.473 49.1836 591.957 48.1914C592.449 47.1992 593.129 46.4336 593.996 45.8945C594.871 45.3555 595.867 45.0859 596.984 45.0859C598.711 45.0859 600.105 45.6836 601.168 46.8789C602.238 48.0742 602.773 49.6641 602.773 51.6484V51.8008C602.773 53.0352 602.535 54.1445 602.059 55.1289C601.59 56.1055 600.914 56.8672 600.031 57.4141C599.156 57.9609 598.148 58.2344 597.008 58.2344C595.289 58.2344 593.895 57.6367 592.824 56.4414C591.762 55.2461 591.23 53.6641 591.23 51.6953V51.543ZM593.41 51.8008C593.41 53.207 593.734 54.3359 594.383 55.1875C595.039 56.0391 595.914 56.4648 597.008 56.4648C598.109 56.4648 598.984 56.0352 599.633 55.1758C600.281 54.3086 600.605 53.0977 600.605 51.543C600.605 50.1523 600.273 49.0273 599.609 48.168C598.953 47.3008 598.078 46.8672 596.984 46.8672C595.914 46.8672 595.051 47.293 594.395 48.1445C593.738 48.9961 593.41 50.2148 593.41 51.8008ZM607.531 45.3203L607.59 46.7266C608.52 45.6328 609.773 45.0859 611.352 45.0859C613.125 45.0859 614.332 45.7656 614.973 47.125C615.395 46.5156 615.941 46.0234 616.613 45.6484C617.293 45.2734 618.094 45.0859 619.016 45.0859C621.797 45.0859 623.211 46.5586 623.258 49.5039V58H621.09V49.6328C621.09 48.7266 620.883 48.0508 620.469 47.6055C620.055 47.1523 619.359 46.9258 618.383 46.9258C617.578 46.9258 616.91 47.168 616.379 47.6523C615.848 48.1289 615.539 48.7734 615.453 49.5859V58H613.273V49.6914C613.273 47.8477 612.371 46.9258 610.566 46.9258C609.145 46.9258 608.172 47.5312 607.648 48.7422V58H605.48V45.3203H607.531ZM637.25 51.8008C637.25 53.7305 636.809 55.2852 635.926 56.4648C635.043 57.6445 633.848 58.2344 632.34 58.2344C630.801 58.2344 629.59 57.7461 628.707 56.7695V62.875H626.539V45.3203H628.52L628.625 46.7266C629.508 45.6328 630.734 45.0859 632.305 45.0859C633.828 45.0859 635.031 45.6602 635.914 46.8086C636.805 47.957 637.25 49.5547 637.25 51.6016V51.8008ZM635.082 51.5547C635.082 50.125 634.777 48.9961 634.168 48.168C633.559 47.3398 632.723 46.9258 631.66 46.9258C630.348 46.9258 629.363 47.5078 628.707 48.6719V54.7305C629.355 55.8867 630.348 56.4648 631.684 56.4648C632.723 56.4648 633.547 56.0547 634.156 55.2344C634.773 54.4062 635.082 53.1797 635.082 51.5547ZM642.371 58H640.203V40H642.371V58ZM651.113 58.2344C649.395 58.2344 647.996 57.6719 646.918 56.5469C645.84 55.4141 645.301 53.9023 645.301 52.0117V51.6133C645.301 50.3555 645.539 49.2344 646.016 48.25C646.5 47.2578 647.172 46.4844 648.031 45.9297C648.898 45.3672 649.836 45.0859 650.844 45.0859C652.492 45.0859 653.773 45.6289 654.688 46.7148C655.602 47.8008 656.059 49.3555 656.059 51.3789V52.2812H647.469C647.5 53.5312 647.863 54.543 648.559 55.3164C649.262 56.082 650.152 56.4648 651.23 56.4648C651.996 56.4648 652.645 56.3086 653.176 55.9961C653.707 55.6836 654.172 55.2695 654.57 54.7539L655.895 55.7852C654.832 57.418 653.238 58.2344 651.113 58.2344ZM650.844 46.8672C649.969 46.8672 649.234 47.1875 648.641 47.8281C648.047 48.4609 647.68 49.3516 647.539 50.5H653.891V50.3359C653.828 49.2344 653.531 48.3828 653 47.7812C652.469 47.1719 651.75 46.8672 650.844 46.8672ZM661.52 42.25V45.3203H663.887V46.9961H661.52V54.8594C661.52 55.3672 661.625 55.75 661.836 56.0078C662.047 56.2578 662.406 56.3828 662.914 56.3828C663.164 56.3828 663.508 56.3359 663.945 56.2422V58C663.375 58.1562 662.82 58.2344 662.281 58.2344C661.312 58.2344 660.582 57.9414 660.09 57.3555C659.598 56.7695 659.352 55.9375 659.352 54.8594V46.9961H657.043V45.3203H659.352V42.25H661.52ZM671.691 58.2344C669.973 58.2344 668.574 57.6719 667.496 56.5469C666.418 55.4141 665.879 53.9023 665.879 52.0117V51.6133C665.879 50.3555 666.117 49.2344 666.594 48.25C667.078 47.2578 667.75 46.4844 668.609 45.9297C669.477 45.3672 670.414 45.0859 671.422 45.0859C673.07 45.0859 674.352 45.6289 675.266 46.7148C676.18 47.8008 676.637 49.3555 676.637 51.3789V52.2812H668.047C668.078 53.5312 668.441 54.543 669.137 55.3164C669.84 56.082 670.73 56.4648 671.809 56.4648C672.574 56.4648 673.223 56.3086 673.754 55.9961C674.285 55.6836 674.75 55.2695 675.148 54.7539L676.473 55.7852C675.41 57.418 673.816 58.2344 671.691 58.2344ZM671.422 46.8672C670.547 46.8672 669.812 47.1875 669.219 47.8281C668.625 48.4609 668.258 49.3516 668.117 50.5H674.469V50.3359C674.406 49.2344 674.109 48.3828 673.578 47.7812C673.047 47.1719 672.328 46.8672 671.422 46.8672ZM556.777 86C556.652 85.75 556.551 85.3047 556.473 84.6641C555.465 85.7109 554.262 86.2344 552.863 86.2344C551.613 86.2344 550.586 85.8828 549.781 85.1797C548.984 84.4688 548.586 83.5703 548.586 82.4844C548.586 81.1641 549.086 80.1406 550.086 79.4141C551.094 78.6797 552.508 78.3125 554.328 78.3125H556.438V77.3164C556.438 76.5586 556.211 75.957 555.758 75.5117C555.305 75.0586 554.637 74.832 553.754 74.832C552.98 74.832 552.332 75.0273 551.809 75.418C551.285 75.8086 551.023 76.2812 551.023 76.8359H548.844C548.844 76.2031 549.066 75.5938 549.512 75.0078C549.965 74.4141 550.574 73.9453 551.34 73.6016C552.113 73.2578 552.961 73.0859 553.883 73.0859C555.344 73.0859 556.488 73.4531 557.316 74.1875C558.145 74.9141 558.574 75.918 558.605 77.1992V83.0352C558.605 84.1992 558.754 85.125 559.051 85.8125V86H556.777ZM553.18 84.3477C553.859 84.3477 554.504 84.1719 555.113 83.8203C555.723 83.4688 556.164 83.0117 556.438 82.4492V79.8477H554.738C552.082 79.8477 550.754 80.625 550.754 82.1797C550.754 82.8594 550.98 83.3906 551.434 83.7734C551.887 84.1562 552.469 84.3477 553.18 84.3477ZM567.09 84.4648C567.863 84.4648 568.539 84.2305 569.117 83.7617C569.695 83.293 570.016 82.707 570.078 82.0039H572.129C572.09 82.7305 571.84 83.4219 571.379 84.0781C570.918 84.7344 570.301 85.2578 569.527 85.6484C568.762 86.0391 567.949 86.2344 567.09 86.2344C565.363 86.2344 563.988 85.6602 562.965 84.5117C561.949 83.3555 561.441 81.7773 561.441 79.7773V79.4141C561.441 78.1797 561.668 77.082 562.121 76.1211C562.574 75.1602 563.223 74.4141 564.066 73.8828C564.918 73.3516 565.922 73.0859 567.078 73.0859C568.5 73.0859 569.68 73.5117 570.617 74.3633C571.562 75.2148 572.066 76.3203 572.129 77.6797H570.078C570.016 76.8594 569.703 76.1875 569.141 75.6641C568.586 75.1328 567.898 74.8672 567.078 74.8672C565.977 74.8672 565.121 75.2656 564.512 76.0625C563.91 76.8516 563.609 77.9961 563.609 79.4961V79.9062C563.609 81.3672 563.91 82.4922 564.512 83.2812C565.113 84.0703 565.973 84.4648 567.09 84.4648ZM579.652 84.4648C580.426 84.4648 581.102 84.2305 581.68 83.7617C582.258 83.293 582.578 82.707 582.641 82.0039H584.691C584.652 82.7305 584.402 83.4219 583.941 84.0781C583.48 84.7344 582.863 85.2578 582.09 85.6484C581.324 86.0391 580.512 86.2344 579.652 86.2344C577.926 86.2344 576.551 85.6602 575.527 84.5117C574.512 83.3555 574.004 81.7773 574.004 79.7773V79.4141C574.004 78.1797 574.23 77.082 574.684 76.1211C575.137 75.1602 575.785 74.4141 576.629 73.8828C577.48 73.3516 578.484 73.0859 579.641 73.0859C581.062 73.0859 582.242 73.5117 583.18 74.3633C584.125 75.2148 584.629 76.3203 584.691 77.6797H582.641C582.578 76.8594 582.266 76.1875 581.703 75.6641C581.148 75.1328 580.461 74.8672 579.641 74.8672C578.539 74.8672 577.684 75.2656 577.074 76.0625C576.473 76.8516 576.172 77.9961 576.172 79.4961V79.9062C576.172 81.3672 576.473 82.4922 577.074 83.2812C577.676 84.0703 578.535 84.4648 579.652 84.4648ZM586.555 79.543C586.555 78.3008 586.797 77.1836 587.281 76.1914C587.773 75.1992 588.453 74.4336 589.32 73.8945C590.195 73.3555 591.191 73.0859 592.309 73.0859C594.035 73.0859 595.43 73.6836 596.492 74.8789C597.562 76.0742 598.098 77.6641 598.098 79.6484V79.8008C598.098 81.0352 597.859 82.1445 597.383 83.1289C596.914 84.1055 596.238 84.8672 595.355 85.4141C594.48 85.9609 593.473 86.2344 592.332 86.2344C590.613 86.2344 589.219 85.6367 588.148 84.4414C587.086 83.2461 586.555 81.6641 586.555 79.6953V79.543ZM588.734 79.8008C588.734 81.207 589.059 82.3359 589.707 83.1875C590.363 84.0391 591.238 84.4648 592.332 84.4648C593.434 84.4648 594.309 84.0352 594.957 83.1758C595.605 82.3086 595.93 81.0977 595.93 79.543C595.93 78.1523 595.598 77.0273 594.934 76.168C594.277 75.3008 593.402 74.8672 592.309 74.8672C591.238 74.8672 590.375 75.293 589.719 76.1445C589.062 76.9961 588.734 78.2148 588.734 79.8008ZM608.645 84.7461C607.801 85.7383 606.562 86.2344 604.93 86.2344C603.578 86.2344 602.547 85.8438 601.836 85.0625C601.133 84.2734 600.777 83.1094 600.77 81.5703V73.3203H602.938V81.5117C602.938 83.4336 603.719 84.3945 605.281 84.3945C606.938 84.3945 608.039 83.7773 608.586 82.543V73.3203H610.754V86H608.691L608.645 84.7461ZM616.109 73.3203L616.18 74.9141C617.148 73.6953 618.414 73.0859 619.977 73.0859C622.656 73.0859 624.008 74.5977 624.031 77.6211V86H621.863V77.6094C621.855 76.6953 621.645 76.0195 621.23 75.582C620.824 75.1445 620.188 74.9258 619.32 74.9258C618.617 74.9258 618 75.1133 617.469 75.4883C616.938 75.8633 616.523 76.3555 616.227 76.9648V86H614.059V73.3203H616.109ZM630.242 70.25V73.3203H632.609V74.9961H630.242V82.8594C630.242 83.3672 630.348 83.75 630.559 84.0078C630.77 84.2578 631.129 84.3828 631.637 84.3828C631.887 84.3828 632.23 84.3359 632.668 84.2422V86C632.098 86.1562 631.543 86.2344 631.004 86.2344C630.035 86.2344 629.305 85.9414 628.812 85.3555C628.32 84.7695 628.074 83.9375 628.074 82.8594V74.9961H625.766V73.3203H628.074V70.25H630.242ZM640.578 79.5547C640.578 77.6094 641.039 76.0469 641.961 74.8672C642.883 73.6797 644.09 73.0859 645.582 73.0859C647.066 73.0859 648.242 73.5938 649.109 74.6094V68H651.277V86H649.285L649.18 84.6406C648.312 85.7031 647.105 86.2344 645.559 86.2344C644.09 86.2344 642.891 85.6328 641.961 84.4297C641.039 83.2266 640.578 81.6562 640.578 79.7188V79.5547ZM642.746 79.8008C642.746 81.2383 643.043 82.3633 643.637 83.1758C644.23 83.9883 645.051 84.3945 646.098 84.3945C647.473 84.3945 648.477 83.7773 649.109 82.543V76.7188C648.461 75.5234 647.465 74.9258 646.121 74.9258C645.059 74.9258 644.23 75.3359 643.637 76.1562C643.043 76.9766 642.746 78.1914 642.746 79.8008ZM659.914 86.2344C658.195 86.2344 656.797 85.6719 655.719 84.5469C654.641 83.4141 654.102 81.9023 654.102 80.0117V79.6133C654.102 78.3555 654.34 77.2344 654.816 76.25C655.301 75.2578 655.973 74.4844 656.832 73.9297C657.699 73.3672 658.637 73.0859 659.645 73.0859C661.293 73.0859 662.574 73.6289 663.488 74.7148C664.402 75.8008 664.859 77.3555 664.859 79.3789V80.2812H656.27C656.301 81.5312 656.664 82.543 657.359 83.3164C658.062 84.082 658.953 84.4648 660.031 84.4648C660.797 84.4648 661.445 84.3086 661.977 83.9961C662.508 83.6836 662.973 83.2695 663.371 82.7539L664.695 83.7852C663.633 85.418 662.039 86.2344 659.914 86.2344ZM659.645 74.8672C658.77 74.8672 658.035 75.1875 657.441 75.8281C656.848 76.4609 656.48 77.3516 656.34 78.5H662.691V78.3359C662.629 77.2344 662.332 76.3828 661.801 75.7812C661.27 75.1719 660.551 74.8672 659.645 74.8672ZM670.32 70.25V73.3203H672.688V74.9961H670.32V82.8594C670.32 83.3672 670.426 83.75 670.637 84.0078C670.848 84.2578 671.207 84.3828 671.715 84.3828C671.965 84.3828 672.309 84.3359 672.746 84.2422V86C672.176 86.1562 671.621 86.2344 671.082 86.2344C670.113 86.2344 669.383 85.9414 668.891 85.3555C668.398 84.7695 668.152 83.9375 668.152 82.8594V74.9961H665.844V73.3203H668.152V70.25H670.32ZM683.059 86C682.934 85.75 682.832 85.3047 682.754 84.6641C681.746 85.7109 680.543 86.2344 679.145 86.2344C677.895 86.2344 676.867 85.8828 676.062 85.1797C675.266 84.4688 674.867 83.5703 674.867 82.4844C674.867 81.1641 675.367 80.1406 676.367 79.4141C677.375 78.6797 678.789 78.3125 680.609 78.3125H682.719V77.3164C682.719 76.5586 682.492 75.957 682.039 75.5117C681.586 75.0586 680.918 74.832 680.035 74.832C679.262 74.832 678.613 75.0273 678.09 75.418C677.566 75.8086 677.305 76.2812 677.305 76.8359H675.125C675.125 76.2031 675.348 75.5938 675.793 75.0078C676.246 74.4141 676.855 73.9453 677.621 73.6016C678.395 73.2578 679.242 73.0859 680.164 73.0859C681.625 73.0859 682.77 73.4531 683.598 74.1875C684.426 74.9141 684.855 75.918 684.887 77.1992V83.0352C684.887 84.1992 685.035 85.125 685.332 85.8125V86H683.059ZM679.461 84.3477C680.141 84.3477 680.785 84.1719 681.395 83.8203C682.004 83.4688 682.445 83.0117 682.719 82.4492V79.8477H681.02C678.363 79.8477 677.035 80.625 677.035 82.1797C677.035 82.8594 677.262 83.3906 677.715 83.7734C678.168 84.1562 678.75 84.3477 679.461 84.3477ZM690.641 86H688.473V73.3203H690.641V86ZM688.297 69.957C688.297 69.6055 688.402 69.3086 688.613 69.0664C688.832 68.8242 689.152 68.7031 689.574 68.7031C689.996 68.7031 690.316 68.8242 690.535 69.0664C690.754 69.3086 690.863 69.6055 690.863 69.957C690.863 70.3086 690.754 70.6016 690.535 70.8359C690.316 71.0703 689.996 71.1875 689.574 71.1875C689.152 71.1875 688.832 71.0703 688.613 70.8359C688.402 70.6016 688.297 70.3086 688.297 69.957ZM696.477 86H694.309V68H696.477V86ZM707.34 82.6367C707.34 82.0508 707.117 81.5977 706.672 81.2773C706.234 80.9492 705.465 80.668 704.363 80.4336C703.27 80.1992 702.398 79.918 701.75 79.5898C701.109 79.2617 700.633 78.8711 700.32 78.418C700.016 77.9648 699.863 77.4258 699.863 76.8008C699.863 75.7617 700.301 74.8828 701.176 74.1641C702.059 73.4453 703.184 73.0859 704.551 73.0859C705.988 73.0859 707.152 73.457 708.043 74.1992C708.941 74.9414 709.391 75.8906 709.391 77.0469H707.211C707.211 76.4531 706.957 75.9414 706.449 75.5117C705.949 75.082 705.316 74.8672 704.551 74.8672C703.762 74.8672 703.145 75.0391 702.699 75.3828C702.254 75.7266 702.031 76.1758 702.031 76.7305C702.031 77.2539 702.238 77.6484 702.652 77.9141C703.066 78.1797 703.812 78.4336 704.891 78.6758C705.977 78.918 706.855 79.207 707.527 79.543C708.199 79.8789 708.695 80.2852 709.016 80.7617C709.344 81.2305 709.508 81.8047 709.508 82.4844C709.508 83.6172 709.055 84.5273 708.148 85.2148C707.242 85.8945 706.066 86.2344 704.621 86.2344C703.605 86.2344 702.707 86.0547 701.926 85.6953C701.145 85.3359 700.531 84.8359 700.086 84.1953C699.648 83.5469 699.43 82.8477 699.43 82.0977H701.598C701.637 82.8242 701.926 83.4023 702.465 83.832C703.012 84.2539 703.73 84.4648 704.621 84.4648C705.441 84.4648 706.098 84.3008 706.59 83.9727C707.09 83.6367 707.34 83.1914 707.34 82.6367Z" fill="white"/>
<rect x="534" y="163" width="189" height="67" rx="24" fill="#88498F"/>
<path d="M566.938 200.547H559.789L558.184 205H555.863L562.379 187.938H564.348L570.875 205H568.566L566.938 200.547ZM560.469 198.695H566.27L563.363 190.715L560.469 198.695ZM572.305 198.555C572.305 196.609 572.766 195.047 573.688 193.867C574.609 192.68 575.816 192.086 577.309 192.086C578.793 192.086 579.969 192.594 580.836 193.609V187H583.004V205H581.012L580.906 203.641C580.039 204.703 578.832 205.234 577.285 205.234C575.816 205.234 574.617 204.633 573.688 203.43C572.766 202.227 572.305 200.656 572.305 198.719V198.555ZM574.473 198.801C574.473 200.238 574.77 201.363 575.363 202.176C575.957 202.988 576.777 203.395 577.824 203.395C579.199 203.395 580.203 202.777 580.836 201.543V195.719C580.188 194.523 579.191 193.926 577.848 193.926C576.785 193.926 575.957 194.336 575.363 195.156C574.77 195.977 574.473 197.191 574.473 198.801ZM585.852 198.555C585.852 196.609 586.312 195.047 587.234 193.867C588.156 192.68 589.363 192.086 590.855 192.086C592.34 192.086 593.516 192.594 594.383 193.609V187H596.551V205H594.559L594.453 203.641C593.586 204.703 592.379 205.234 590.832 205.234C589.363 205.234 588.164 204.633 587.234 203.43C586.312 202.227 585.852 200.656 585.852 198.719V198.555ZM588.02 198.801C588.02 200.238 588.316 201.363 588.91 202.176C589.504 202.988 590.324 203.395 591.371 203.395C592.746 203.395 593.75 202.777 594.383 201.543V195.719C593.734 194.523 592.738 193.926 591.395 193.926C590.332 193.926 589.504 194.336 588.91 195.156C588.316 195.977 588.02 197.191 588.02 198.801ZM608.633 205H606.383V187.938H608.633V205ZM614.469 192.32L614.539 193.914C615.508 192.695 616.773 192.086 618.336 192.086C621.016 192.086 622.367 193.598 622.391 196.621V205H620.223V196.609C620.215 195.695 620.004 195.02 619.59 194.582C619.184 194.145 618.547 193.926 617.68 193.926C616.977 193.926 616.359 194.113 615.828 194.488C615.297 194.863 614.883 195.355 614.586 195.965V205H612.418V192.32H614.469ZM629.844 202.059L632.984 192.32H635.199L630.652 205H629L624.406 192.32H626.621L629.844 202.059ZM642.383 205.234C640.664 205.234 639.266 204.672 638.188 203.547C637.109 202.414 636.57 200.902 636.57 199.012V198.613C636.57 197.355 636.809 196.234 637.285 195.25C637.77 194.258 638.441 193.484 639.301 192.93C640.168 192.367 641.105 192.086 642.113 192.086C643.762 192.086 645.043 192.629 645.957 193.715C646.871 194.801 647.328 196.355 647.328 198.379V199.281H638.738C638.77 200.531 639.133 201.543 639.828 202.316C640.531 203.082 641.422 203.465 642.5 203.465C643.266 203.465 643.914 203.309 644.445 202.996C644.977 202.684 645.441 202.27 645.84 201.754L647.164 202.785C646.102 204.418 644.508 205.234 642.383 205.234ZM642.113 193.867C641.238 193.867 640.504 194.188 639.91 194.828C639.316 195.461 638.949 196.352 638.809 197.5H645.16V197.336C645.098 196.234 644.801 195.383 644.27 194.781C643.738 194.172 643.02 193.867 642.113 193.867ZM651.898 192.32L651.969 193.914C652.938 192.695 654.203 192.086 655.766 192.086C658.445 192.086 659.797 193.598 659.82 196.621V205H657.652V196.609C657.645 195.695 657.434 195.02 657.02 194.582C656.613 194.145 655.977 193.926 655.109 193.926C654.406 193.926 653.789 194.113 653.258 194.488C652.727 194.863 652.312 195.355 652.016 195.965V205H649.848V192.32H651.898ZM666.031 189.25V192.32H668.398V193.996H666.031V201.859C666.031 202.367 666.137 202.75 666.348 203.008C666.559 203.258 666.918 203.383 667.426 203.383C667.676 203.383 668.02 203.336 668.457 203.242V205C667.887 205.156 667.332 205.234 666.793 205.234C665.824 205.234 665.094 204.941 664.602 204.355C664.109 203.77 663.863 202.938 663.863 201.859V193.996H661.555V192.32H663.863V189.25H666.031ZM670.133 198.543C670.133 197.301 670.375 196.184 670.859 195.191C671.352 194.199 672.031 193.434 672.898 192.895C673.773 192.355 674.77 192.086 675.887 192.086C677.613 192.086 679.008 192.684 680.07 193.879C681.141 195.074 681.676 196.664 681.676 198.648V198.801C681.676 200.035 681.438 201.145 680.961 202.129C680.492 203.105 679.816 203.867 678.934 204.414C678.059 204.961 677.051 205.234 675.91 205.234C674.191 205.234 672.797 204.637 671.727 203.441C670.664 202.246 670.133 200.664 670.133 198.695V198.543ZM672.312 198.801C672.312 200.207 672.637 201.336 673.285 202.188C673.941 203.039 674.816 203.465 675.91 203.465C677.012 203.465 677.887 203.035 678.535 202.176C679.184 201.309 679.508 200.098 679.508 198.543C679.508 197.152 679.176 196.027 678.512 195.168C677.855 194.301 676.98 193.867 675.887 193.867C674.816 193.867 673.953 194.293 673.297 195.145C672.641 195.996 672.312 197.215 672.312 198.801ZM690.523 194.266C690.195 194.211 689.84 194.184 689.457 194.184C688.035 194.184 687.07 194.789 686.562 196V205H684.395V192.32H686.504L686.539 193.785C687.25 192.652 688.258 192.086 689.562 192.086C689.984 192.086 690.305 192.141 690.523 192.25V194.266ZM696.887 201.824L699.84 192.32H702.16L697.062 206.957C696.273 209.066 695.02 210.121 693.301 210.121L692.891 210.086L692.082 209.934V208.176L692.668 208.223C693.402 208.223 693.973 208.074 694.379 207.777C694.793 207.48 695.133 206.938 695.398 206.148L695.879 204.859L691.355 192.32H693.723L696.887 201.824Z" fill="white"/>
<rect x="534" y="286" width="189" height="67" rx="24" fill="#88498F"/>
<path d="M573.629 322.586C573.418 324.391 572.75 325.785 571.625 326.77C570.508 327.746 569.02 328.234 567.16 328.234C565.145 328.234 563.527 327.512 562.309 326.066C561.098 324.621 560.492 322.688 560.492 320.266V318.625C560.492 317.039 560.773 315.645 561.336 314.441C561.906 313.238 562.711 312.316 563.75 311.676C564.789 311.027 565.992 310.703 567.359 310.703C569.172 310.703 570.625 311.211 571.719 312.227C572.812 313.234 573.449 314.633 573.629 316.422H571.367C571.172 315.062 570.746 314.078 570.09 313.469C569.441 312.859 568.531 312.555 567.359 312.555C565.922 312.555 564.793 313.086 563.973 314.148C563.16 315.211 562.754 316.723 562.754 318.684V320.336C562.754 322.188 563.141 323.66 563.914 324.754C564.688 325.848 565.77 326.395 567.16 326.395C568.41 326.395 569.367 326.113 570.031 325.551C570.703 324.98 571.148 323.992 571.367 322.586H573.629ZM575.797 321.543C575.797 320.301 576.039 319.184 576.523 318.191C577.016 317.199 577.695 316.434 578.562 315.895C579.438 315.355 580.434 315.086 581.551 315.086C583.277 315.086 584.672 315.684 585.734 316.879C586.805 318.074 587.34 319.664 587.34 321.648V321.801C587.34 323.035 587.102 324.145 586.625 325.129C586.156 326.105 585.48 326.867 584.598 327.414C583.723 327.961 582.715 328.234 581.574 328.234C579.855 328.234 578.461 327.637 577.391 326.441C576.328 325.246 575.797 323.664 575.797 321.695V321.543ZM577.977 321.801C577.977 323.207 578.301 324.336 578.949 325.188C579.605 326.039 580.48 326.465 581.574 326.465C582.676 326.465 583.551 326.035 584.199 325.176C584.848 324.309 585.172 323.098 585.172 321.543C585.172 320.152 584.84 319.027 584.176 318.168C583.52 317.301 582.645 316.867 581.551 316.867C580.48 316.867 579.617 317.293 578.961 318.145C578.305 318.996 577.977 320.215 577.977 321.801ZM592.109 315.32L592.18 316.914C593.148 315.695 594.414 315.086 595.977 315.086C598.656 315.086 600.008 316.598 600.031 319.621V328H597.863V319.609C597.855 318.695 597.645 318.02 597.23 317.582C596.824 317.145 596.188 316.926 595.32 316.926C594.617 316.926 594 317.113 593.469 317.488C592.938 317.863 592.523 318.355 592.227 318.965V328H590.059V315.32H592.109ZM606.242 312.25V315.32H608.609V316.996H606.242V324.859C606.242 325.367 606.348 325.75 606.559 326.008C606.77 326.258 607.129 326.383 607.637 326.383C607.887 326.383 608.23 326.336 608.668 326.242V328C608.098 328.156 607.543 328.234 607.004 328.234C606.035 328.234 605.305 327.941 604.812 327.355C604.32 326.77 604.074 325.938 604.074 324.859V316.996H601.766V315.32H604.074V312.25H606.242ZM618.98 328C618.855 327.75 618.754 327.305 618.676 326.664C617.668 327.711 616.465 328.234 615.066 328.234C613.816 328.234 612.789 327.883 611.984 327.18C611.188 326.469 610.789 325.57 610.789 324.484C610.789 323.164 611.289 322.141 612.289 321.414C613.297 320.68 614.711 320.312 616.531 320.312H618.641V319.316C618.641 318.559 618.414 317.957 617.961 317.512C617.508 317.059 616.84 316.832 615.957 316.832C615.184 316.832 614.535 317.027 614.012 317.418C613.488 317.809 613.227 318.281 613.227 318.836H611.047C611.047 318.203 611.27 317.594 611.715 317.008C612.168 316.414 612.777 315.945 613.543 315.602C614.316 315.258 615.164 315.086 616.086 315.086C617.547 315.086 618.691 315.453 619.52 316.188C620.348 316.914 620.777 317.918 620.809 319.199V325.035C620.809 326.199 620.957 327.125 621.254 327.812V328H618.98ZM615.383 326.348C616.062 326.348 616.707 326.172 617.316 325.82C617.926 325.469 618.367 325.012 618.641 324.449V321.848H616.941C614.285 321.848 612.957 322.625 612.957 324.18C612.957 324.859 613.184 325.391 613.637 325.773C614.09 326.156 614.672 326.348 615.383 326.348ZM629.293 326.465C630.066 326.465 630.742 326.23 631.32 325.762C631.898 325.293 632.219 324.707 632.281 324.004H634.332C634.293 324.73 634.043 325.422 633.582 326.078C633.121 326.734 632.504 327.258 631.73 327.648C630.965 328.039 630.152 328.234 629.293 328.234C627.566 328.234 626.191 327.66 625.168 326.512C624.152 325.355 623.645 323.777 623.645 321.777V321.414C623.645 320.18 623.871 319.082 624.324 318.121C624.777 317.16 625.426 316.414 626.27 315.883C627.121 315.352 628.125 315.086 629.281 315.086C630.703 315.086 631.883 315.512 632.82 316.363C633.766 317.215 634.27 318.32 634.332 319.68H632.281C632.219 318.859 631.906 318.188 631.344 317.664C630.789 317.133 630.102 316.867 629.281 316.867C628.18 316.867 627.324 317.266 626.715 318.062C626.113 318.852 625.812 319.996 625.812 321.496V321.906C625.812 323.367 626.113 324.492 626.715 325.281C627.316 326.07 628.176 326.465 629.293 326.465ZM639.711 312.25V315.32H642.078V316.996H639.711V324.859C639.711 325.367 639.816 325.75 640.027 326.008C640.238 326.258 640.598 326.383 641.105 326.383C641.355 326.383 641.699 326.336 642.137 326.242V328C641.566 328.156 641.012 328.234 640.473 328.234C639.504 328.234 638.773 327.941 638.281 327.355C637.789 326.77 637.543 325.938 637.543 324.859V316.996H635.234V315.32H637.543V312.25H639.711ZM664.027 328H661.766L653.176 314.852V328H650.914V310.938H653.176L661.789 324.145V310.938H664.027V328ZM680.621 325.762C680.043 326.59 679.234 327.211 678.195 327.625C677.164 328.031 675.961 328.234 674.586 328.234C673.195 328.234 671.961 327.91 670.883 327.262C669.805 326.605 668.969 325.676 668.375 324.473C667.789 323.27 667.488 321.875 667.473 320.289V318.801C667.473 316.23 668.07 314.238 669.266 312.824C670.469 311.41 672.156 310.703 674.328 310.703C676.109 310.703 677.543 311.16 678.629 312.074C679.715 312.98 680.379 314.27 680.621 315.941H678.371C677.949 313.684 676.605 312.555 674.34 312.555C672.832 312.555 671.688 313.086 670.906 314.148C670.133 315.203 669.742 316.734 669.734 318.742V320.137C669.734 322.051 670.172 323.574 671.047 324.707C671.922 325.832 673.105 326.395 674.598 326.395C675.441 326.395 676.18 326.301 676.812 326.113C677.445 325.926 677.969 325.609 678.383 325.164V321.332H674.434V319.504H680.621V325.762ZM697.508 320.02C697.508 321.691 697.227 323.152 696.664 324.402C696.102 325.645 695.305 326.594 694.273 327.25C693.242 327.906 692.039 328.234 690.664 328.234C689.32 328.234 688.129 327.906 687.09 327.25C686.051 326.586 685.242 325.645 684.664 324.426C684.094 323.199 683.801 321.781 683.785 320.172V318.941C683.785 317.301 684.07 315.852 684.641 314.594C685.211 313.336 686.016 312.375 687.055 311.711C688.102 311.039 689.297 310.703 690.641 310.703C692.008 310.703 693.211 311.035 694.25 311.699C695.297 312.355 696.102 313.312 696.664 314.57C697.227 315.82 697.508 317.277 697.508 318.941V320.02ZM695.27 318.918C695.27 316.895 694.863 315.344 694.051 314.266C693.238 313.18 692.102 312.637 690.641 312.637C689.219 312.637 688.098 313.18 687.277 314.266C686.465 315.344 686.047 316.844 686.023 318.766V320.02C686.023 321.98 686.434 323.523 687.254 324.648C688.082 325.766 689.219 326.324 690.664 326.324C692.117 326.324 693.242 325.797 694.039 324.742C694.836 323.68 695.246 322.16 695.27 320.184V318.918Z" fill="white"/>
<rect x="854" y="164" width="197" height="67" rx="24" fill="#88498F"/>
<path d="M882.594 203.012L887.469 188.938H889.93L883.602 206H881.609L875.293 188.938H877.742L882.594 203.012ZM894.242 206H892.074V193.32H894.242V206ZM891.898 189.957C891.898 189.605 892.004 189.309 892.215 189.066C892.434 188.824 892.754 188.703 893.176 188.703C893.598 188.703 893.918 188.824 894.137 189.066C894.355 189.309 894.465 189.605 894.465 189.957C894.465 190.309 894.355 190.602 894.137 190.836C893.918 191.07 893.598 191.188 893.176 191.188C892.754 191.188 892.434 191.07 892.215 190.836C892.004 190.602 891.898 190.309 891.898 189.957ZM902.984 206.234C901.266 206.234 899.867 205.672 898.789 204.547C897.711 203.414 897.172 201.902 897.172 200.012V199.613C897.172 198.355 897.41 197.234 897.887 196.25C898.371 195.258 899.043 194.484 899.902 193.93C900.77 193.367 901.707 193.086 902.715 193.086C904.363 193.086 905.645 193.629 906.559 194.715C907.473 195.801 907.93 197.355 907.93 199.379V200.281H899.34C899.371 201.531 899.734 202.543 900.43 203.316C901.133 204.082 902.023 204.465 903.102 204.465C903.867 204.465 904.516 204.309 905.047 203.996C905.578 203.684 906.043 203.27 906.441 202.754L907.766 203.785C906.703 205.418 905.109 206.234 902.984 206.234ZM902.715 194.867C901.84 194.867 901.105 195.188 900.512 195.828C899.918 196.461 899.551 197.352 899.41 198.5H905.762V198.336C905.699 197.234 905.402 196.383 904.871 195.781C904.34 195.172 903.621 194.867 902.715 194.867ZM921.676 203.012L924.113 193.32H926.281L922.59 206H920.832L917.75 196.391L914.75 206H912.992L909.312 193.32H911.469L913.965 202.812L916.918 193.32H918.664L921.676 203.012ZM937.203 206H934.953V188.938H937.203V206ZM943.039 193.32L943.109 194.914C944.078 193.695 945.344 193.086 946.906 193.086C949.586 193.086 950.938 194.598 950.961 197.621V206H948.793V197.609C948.785 196.695 948.574 196.02 948.16 195.582C947.754 195.145 947.117 194.926 946.25 194.926C945.547 194.926 944.93 195.113 944.398 195.488C943.867 195.863 943.453 196.355 943.156 196.965V206H940.988V193.32H943.039ZM958.414 203.059L961.555 193.32H963.77L959.223 206H957.57L952.977 193.32H955.191L958.414 203.059ZM970.953 206.234C969.234 206.234 967.836 205.672 966.758 204.547C965.68 203.414 965.141 201.902 965.141 200.012V199.613C965.141 198.355 965.379 197.234 965.855 196.25C966.34 195.258 967.012 194.484 967.871 193.93C968.738 193.367 969.676 193.086 970.684 193.086C972.332 193.086 973.613 193.629 974.527 194.715C975.441 195.801 975.898 197.355 975.898 199.379V200.281H967.309C967.34 201.531 967.703 202.543 968.398 203.316C969.102 204.082 969.992 204.465 971.07 204.465C971.836 204.465 972.484 204.309 973.016 203.996C973.547 203.684 974.012 203.27 974.41 202.754L975.734 203.785C974.672 205.418 973.078 206.234 970.953 206.234ZM970.684 194.867C969.809 194.867 969.074 195.188 968.48 195.828C967.887 196.461 967.52 197.352 967.379 198.5H973.73V198.336C973.668 197.234 973.371 196.383 972.84 195.781C972.309 195.172 971.59 194.867 970.684 194.867ZM980.469 193.32L980.539 194.914C981.508 193.695 982.773 193.086 984.336 193.086C987.016 193.086 988.367 194.598 988.391 197.621V206H986.223V197.609C986.215 196.695 986.004 196.02 985.59 195.582C985.184 195.145 984.547 194.926 983.68 194.926C982.977 194.926 982.359 195.113 981.828 195.488C981.297 195.863 980.883 196.355 980.586 196.965V206H978.418V193.32H980.469ZM994.602 190.25V193.32H996.969V194.996H994.602V202.859C994.602 203.367 994.707 203.75 994.918 204.008C995.129 204.258 995.488 204.383 995.996 204.383C996.246 204.383 996.59 204.336 997.027 204.242V206C996.457 206.156 995.902 206.234 995.363 206.234C994.395 206.234 993.664 205.941 993.172 205.355C992.68 204.77 992.434 203.938 992.434 202.859V194.996H990.125V193.32H992.434V190.25H994.602ZM998.703 199.543C998.703 198.301 998.945 197.184 999.43 196.191C999.922 195.199 1000.6 194.434 1001.47 193.895C1002.34 193.355 1003.34 193.086 1004.46 193.086C1006.18 193.086 1007.58 193.684 1008.64 194.879C1009.71 196.074 1010.25 197.664 1010.25 199.648V199.801C1010.25 201.035 1010.01 202.145 1009.53 203.129C1009.06 204.105 1008.39 204.867 1007.5 205.414C1006.63 205.961 1005.62 206.234 1004.48 206.234C1002.76 206.234 1001.37 205.637 1000.3 204.441C999.234 203.246 998.703 201.664 998.703 199.695V199.543ZM1000.88 199.801C1000.88 201.207 1001.21 202.336 1001.86 203.188C1002.51 204.039 1003.39 204.465 1004.48 204.465C1005.58 204.465 1006.46 204.035 1007.11 203.176C1007.75 202.309 1008.08 201.098 1008.08 199.543C1008.08 198.152 1007.75 197.027 1007.08 196.168C1006.43 195.301 1005.55 194.867 1004.46 194.867C1003.39 194.867 1002.52 195.293 1001.87 196.145C1001.21 196.996 1000.88 198.215 1000.88 199.801ZM1019.09 195.266C1018.77 195.211 1018.41 195.184 1018.03 195.184C1016.61 195.184 1015.64 195.789 1015.13 197V206H1012.96V193.32H1015.07L1015.11 194.785C1015.82 193.652 1016.83 193.086 1018.13 193.086C1018.55 193.086 1018.88 193.141 1019.09 193.25V195.266ZM1025.46 202.824L1028.41 193.32H1030.73L1025.63 207.957C1024.84 210.066 1023.59 211.121 1021.87 211.121L1021.46 211.086L1020.65 210.934V209.176L1021.24 209.223C1021.97 209.223 1022.54 209.074 1022.95 208.777C1023.36 208.48 1023.7 207.938 1023.97 207.148L1024.45 205.859L1019.93 193.32H1022.29L1025.46 202.824Z" fill="white"/>
<rect x="507" y="7" width="244" height="365" stroke="#88498F" stroke-width="2" stroke-linecap="round" stroke-linejoin="round" stroke-dasharray="0 14"/>
<path d="M544.744 404.502H537.429V410.883H545.84V412H536.107V396.359H545.786V397.487H537.429V403.385H544.744V404.502ZM551.984 405.093L555.121 400.377H556.646L552.704 406.081L556.818 412H555.304L551.995 407.08L548.687 412H547.172L551.275 406.081L547.333 400.377H548.848L551.984 405.093ZM560.471 412H559.182V400.377H560.471V412ZM558.956 397.015C558.956 396.771 559.035 396.567 559.192 396.402C559.35 396.23 559.565 396.145 559.837 396.145C560.109 396.145 560.324 396.23 560.481 396.402C560.646 396.567 560.729 396.771 560.729 397.015C560.729 397.258 560.646 397.462 560.481 397.627C560.324 397.792 560.109 397.874 559.837 397.874C559.565 397.874 559.35 397.792 559.192 397.627C559.035 397.462 558.956 397.258 558.956 397.015ZM570.934 409.046C570.934 408.409 570.676 407.896 570.16 407.51C569.652 407.123 568.882 406.822 567.851 406.607C566.819 406.385 566.017 406.135 565.444 405.855C564.879 405.569 564.456 405.222 564.177 404.813C563.905 404.405 563.769 403.911 563.769 403.331C563.769 402.414 564.152 401.659 564.918 401.064C565.684 400.463 566.665 400.162 567.861 400.162C569.158 400.162 570.196 400.484 570.977 401.129C571.764 401.766 572.158 402.601 572.158 403.632H570.869C570.869 402.951 570.583 402.386 570.01 401.935C569.444 401.483 568.728 401.258 567.861 401.258C567.016 401.258 566.336 401.448 565.82 401.827C565.312 402.2 565.058 402.687 565.058 403.288C565.058 403.868 565.269 404.319 565.691 404.642C566.121 404.957 566.898 405.247 568.022 405.512C569.154 405.777 569.999 406.06 570.558 406.36C571.123 406.661 571.542 407.023 571.814 407.445C572.087 407.868 572.223 408.38 572.223 408.981C572.223 409.963 571.825 410.747 571.03 411.334C570.243 411.921 569.211 412.215 567.937 412.215C566.583 412.215 565.484 411.889 564.639 411.237C563.801 410.578 563.382 409.748 563.382 408.745H564.671C564.721 409.497 565.036 410.084 565.616 410.507C566.203 410.922 566.977 411.13 567.937 411.13C568.832 411.13 569.555 410.933 570.106 410.539C570.658 410.145 570.934 409.647 570.934 409.046ZM577.121 397.401V400.377H579.527V401.43H577.121V409.175C577.121 409.819 577.236 410.299 577.465 410.614C577.701 410.929 578.091 411.087 578.636 411.087C578.851 411.087 579.198 411.051 579.678 410.979L579.731 412.032C579.395 412.154 578.937 412.215 578.356 412.215C577.476 412.215 576.835 411.961 576.434 411.452C576.033 410.937 575.832 410.181 575.832 409.186V401.43H573.694V400.377H575.832V397.401H577.121ZM583.631 412H582.342V400.377H583.631V412ZM582.116 397.015C582.116 396.771 582.195 396.567 582.353 396.402C582.51 396.23 582.725 396.145 582.997 396.145C583.269 396.145 583.484 396.23 583.642 396.402C583.806 396.567 583.889 396.771 583.889 397.015C583.889 397.258 583.806 397.462 583.642 397.627C583.484 397.792 583.269 397.874 582.997 397.874C582.725 397.874 582.51 397.792 582.353 397.627C582.195 397.462 582.116 397.258 582.116 397.015ZM588.357 400.377L588.4 402.364C588.837 401.648 589.382 401.104 590.033 400.731C590.685 400.352 591.405 400.162 592.192 400.162C593.438 400.162 594.366 400.513 594.975 401.215C595.583 401.917 595.891 402.969 595.898 404.373V412H594.62V404.362C594.613 403.324 594.391 402.55 593.954 402.042C593.524 401.534 592.833 401.279 591.881 401.279C591.086 401.279 590.381 401.53 589.765 402.031C589.156 402.525 588.705 403.195 588.411 404.04V412H587.133V400.377H588.357ZM598.713 406.081C598.713 404.262 599.114 402.823 599.916 401.763C600.725 400.696 601.821 400.162 603.203 400.162C604.786 400.162 605.989 400.792 606.812 402.053L606.877 400.377H608.08V411.764C608.08 413.26 607.661 414.446 606.823 415.319C605.985 416.193 604.85 416.63 603.418 416.63C602.609 416.63 601.835 416.447 601.098 416.082C600.367 415.724 599.791 415.244 599.368 414.643L600.088 413.869C600.997 414.986 602.079 415.545 603.332 415.545C604.406 415.545 605.244 415.226 605.846 414.589C606.447 413.959 606.759 413.081 606.78 411.957V410.496C605.957 411.642 604.757 412.215 603.182 412.215C601.835 412.215 600.754 411.678 599.938 410.604C599.121 409.529 598.713 408.079 598.713 406.253V406.081ZM600.013 406.307C600.013 407.789 600.31 408.96 600.904 409.819C601.499 410.672 602.337 411.098 603.418 411.098C605.001 411.098 606.121 410.389 606.78 408.971V403.567C606.479 402.823 606.046 402.257 605.48 401.87C604.915 401.476 604.234 401.279 603.439 401.279C602.358 401.279 601.517 401.705 600.915 402.558C600.313 403.403 600.013 404.652 600.013 406.307ZM622.152 401.473C621.88 401.423 621.59 401.397 621.282 401.397C620.48 401.397 619.8 401.623 619.241 402.074C618.69 402.518 618.296 403.166 618.06 404.019V412H616.781V400.377H618.038L618.06 402.225C618.74 400.85 619.832 400.162 621.336 400.162C621.694 400.162 621.977 400.209 622.185 400.302L622.152 401.473ZM628.479 412.215C627.491 412.215 626.596 411.971 625.794 411.484C624.999 410.997 624.38 410.321 623.936 409.454C623.492 408.58 623.27 407.603 623.27 406.521V406.06C623.27 404.942 623.484 403.936 623.914 403.041C624.351 402.146 624.956 401.444 625.729 400.936C626.503 400.42 627.341 400.162 628.243 400.162C629.654 400.162 630.771 400.646 631.595 401.612C632.425 402.572 632.841 403.886 632.841 405.555V406.274H624.548V406.521C624.548 407.839 624.924 408.938 625.676 409.819C626.435 410.693 627.387 411.13 628.533 411.13C629.221 411.13 629.826 411.005 630.349 410.754C630.879 410.503 631.358 410.102 631.788 409.551L632.594 410.163C631.648 411.531 630.277 412.215 628.479 412.215ZM628.243 401.258C627.276 401.258 626.46 401.612 625.794 402.321C625.135 403.03 624.734 403.983 624.591 405.179H631.562V405.039C631.527 403.922 631.208 403.012 630.606 402.311C630.005 401.609 629.217 401.258 628.243 401.258ZM642.305 409.046C642.305 408.409 642.047 407.896 641.531 407.51C641.023 407.123 640.253 406.822 639.222 406.607C638.19 406.385 637.388 406.135 636.815 405.855C636.25 405.569 635.827 405.222 635.548 404.813C635.276 404.405 635.14 403.911 635.14 403.331C635.14 402.414 635.523 401.659 636.289 401.064C637.055 400.463 638.036 400.162 639.232 400.162C640.529 400.162 641.567 400.484 642.348 401.129C643.135 401.766 643.529 402.601 643.529 403.632H642.24C642.24 402.951 641.954 402.386 641.381 401.935C640.815 401.483 640.099 401.258 639.232 401.258C638.387 401.258 637.707 401.448 637.191 401.827C636.683 402.2 636.429 402.687 636.429 403.288C636.429 403.868 636.64 404.319 637.062 404.642C637.492 404.957 638.269 405.247 639.394 405.512C640.525 405.777 641.37 406.06 641.929 406.36C642.494 406.661 642.913 407.023 643.186 407.445C643.458 407.868 643.594 408.38 643.594 408.981C643.594 409.963 643.196 410.747 642.401 411.334C641.614 411.921 640.582 412.215 639.308 412.215C637.954 412.215 636.855 411.889 636.01 411.237C635.172 410.578 634.753 409.748 634.753 408.745H636.042C636.092 409.497 636.407 410.084 636.987 410.507C637.575 410.922 638.348 411.13 639.308 411.13C640.203 411.13 640.926 410.933 641.478 410.539C642.029 410.145 642.305 409.647 642.305 409.046ZM648.492 397.401V400.377H650.898V401.43H648.492V409.175C648.492 409.819 648.607 410.299 648.836 410.614C649.072 410.929 649.463 411.087 650.007 411.087C650.222 411.087 650.569 411.051 651.049 410.979L651.103 412.032C650.766 412.154 650.308 412.215 649.728 412.215C648.847 412.215 648.206 411.961 647.805 411.452C647.404 410.937 647.203 410.181 647.203 409.186V401.43H645.065V400.377H647.203V397.401H648.492ZM660.899 412C660.771 411.635 660.688 411.094 660.652 410.378C660.201 410.965 659.625 411.42 658.923 411.742C658.228 412.057 657.491 412.215 656.71 412.215C655.593 412.215 654.687 411.903 653.992 411.28C653.305 410.657 652.961 409.869 652.961 408.917C652.961 407.785 653.43 406.89 654.368 406.231C655.313 405.573 656.628 405.243 658.311 405.243H660.642V403.922C660.642 403.091 660.384 402.439 659.868 401.967C659.36 401.487 658.615 401.247 657.634 401.247C656.739 401.247 655.997 401.476 655.41 401.935C654.823 402.393 654.529 402.944 654.529 403.589L653.24 403.578C653.24 402.654 653.67 401.856 654.529 401.183C655.389 400.502 656.445 400.162 657.698 400.162C658.994 400.162 660.015 400.488 660.76 401.14C661.512 401.784 661.898 402.687 661.92 403.847V409.347C661.92 410.471 662.038 411.312 662.274 411.871V412H660.899ZM656.86 411.076C657.72 411.076 658.486 410.868 659.159 410.453C659.84 410.038 660.334 409.483 660.642 408.788V406.231H658.343C657.061 406.246 656.058 406.482 655.335 406.94C654.612 407.392 654.25 408.015 654.25 408.81C654.25 409.461 654.49 410.002 654.97 410.432C655.457 410.861 656.087 411.076 656.86 411.076ZM672.834 410.528C672.061 411.653 670.825 412.215 669.128 412.215C667.889 412.215 666.947 411.857 666.303 411.141C665.658 410.417 665.329 409.35 665.314 407.939V400.377H666.593V407.778C666.593 409.991 667.488 411.098 669.278 411.098C671.14 411.098 672.318 410.328 672.812 408.788V400.377H674.102V412H672.855L672.834 410.528ZM682.824 401.473C682.552 401.423 682.262 401.397 681.954 401.397C681.152 401.397 680.472 401.623 679.913 402.074C679.362 402.518 678.968 403.166 678.731 404.019V412H677.453V400.377H678.71L678.731 402.225C679.412 400.85 680.504 400.162 682.008 400.162C682.366 400.162 682.649 400.209 682.856 400.302L682.824 401.473ZM691.772 412C691.644 411.635 691.561 411.094 691.525 410.378C691.074 410.965 690.498 411.42 689.796 411.742C689.101 412.057 688.364 412.215 687.583 412.215C686.466 412.215 685.56 411.903 684.865 411.28C684.178 410.657 683.834 409.869 683.834 408.917C683.834 407.785 684.303 406.89 685.241 406.231C686.187 405.573 687.501 405.243 689.184 405.243H691.515V403.922C691.515 403.091 691.257 402.439 690.741 401.967C690.233 401.487 689.488 401.247 688.507 401.247C687.612 401.247 686.87 401.476 686.283 401.935C685.696 402.393 685.402 402.944 685.402 403.589L684.113 403.578C684.113 402.654 684.543 401.856 685.402 401.183C686.262 400.502 687.318 400.162 688.571 400.162C689.868 400.162 690.888 400.488 691.633 401.14C692.385 401.784 692.771 402.687 692.793 403.847V409.347C692.793 410.471 692.911 411.312 693.147 411.871V412H691.772ZM687.733 411.076C688.593 411.076 689.359 410.868 690.032 410.453C690.713 410.038 691.207 409.483 691.515 408.788V406.231H689.216C687.934 406.246 686.931 406.482 686.208 406.94C685.485 407.392 685.123 408.015 685.123 408.81C685.123 409.461 685.363 410.002 685.843 410.432C686.33 410.861 686.96 411.076 687.733 411.076ZM697.455 400.377L697.498 402.364C697.935 401.648 698.479 401.104 699.131 400.731C699.783 400.352 700.502 400.162 701.29 400.162C702.536 400.162 703.464 400.513 704.072 401.215C704.681 401.917 704.989 402.969 704.996 404.373V412H703.718V404.362C703.711 403.324 703.489 402.55 703.052 402.042C702.622 401.534 701.931 401.279 700.979 401.279C700.184 401.279 699.478 401.53 698.862 402.031C698.254 402.525 697.802 403.195 697.509 404.04V412H696.23V400.377H697.455ZM710.324 397.401V400.377H712.73V401.43H710.324V409.175C710.324 409.819 710.439 410.299 710.668 410.614C710.904 410.929 711.295 411.087 711.839 411.087C712.054 411.087 712.401 411.051 712.881 410.979L712.935 412.032C712.598 412.154 712.14 412.215 711.56 412.215C710.679 412.215 710.038 411.961 709.637 411.452C709.236 410.937 709.035 410.181 709.035 409.186V401.43H706.897V400.377H709.035V397.401H710.324ZM722.355 409.046C722.355 408.409 722.098 407.896 721.582 407.51C721.074 407.123 720.304 406.822 719.272 406.607C718.241 406.385 717.439 406.135 716.866 405.855C716.3 405.569 715.878 405.222 715.599 404.813C715.326 404.405 715.19 403.911 715.19 403.331C715.19 402.414 715.574 401.659 716.34 401.064C717.106 400.463 718.087 400.162 719.283 400.162C720.579 400.162 721.618 400.484 722.398 401.129C723.186 401.766 723.58 402.601 723.58 403.632H722.291C722.291 402.951 722.005 402.386 721.432 401.935C720.866 401.483 720.15 401.258 719.283 401.258C718.438 401.258 717.758 401.448 717.242 401.827C716.734 402.2 716.479 402.687 716.479 403.288C716.479 403.868 716.691 404.319 717.113 404.642C717.543 404.957 718.32 405.247 719.444 405.512C720.576 405.777 721.421 406.06 721.979 406.36C722.545 406.661 722.964 407.023 723.236 407.445C723.508 407.868 723.645 408.38 723.645 408.981C723.645 409.963 723.247 410.747 722.452 411.334C721.664 411.921 720.633 412.215 719.358 412.215C718.005 412.215 716.906 411.889 716.061 411.237C715.223 410.578 714.804 409.748 714.804 408.745H716.093C716.143 409.497 716.458 410.084 717.038 410.507C717.625 410.922 718.399 411.13 719.358 411.13C720.254 411.13 720.977 410.933 721.528 410.539C722.08 410.145 722.355 409.647 722.355 409.046ZM574.736 435.046C574.736 434.409 574.479 433.896 573.963 433.51C573.454 433.123 572.685 432.822 571.653 432.607C570.622 432.385 569.82 432.135 569.247 431.855C568.681 431.569 568.259 431.222 567.979 430.813C567.707 430.405 567.571 429.911 567.571 429.331C567.571 428.414 567.954 427.659 568.721 427.064C569.487 426.463 570.468 426.162 571.664 426.162C572.96 426.162 573.999 426.484 574.779 427.129C575.567 427.766 575.961 428.601 575.961 429.632H574.672C574.672 428.951 574.385 428.386 573.812 427.935C573.247 427.483 572.531 427.258 571.664 427.258C570.819 427.258 570.139 427.448 569.623 427.827C569.115 428.2 568.86 428.687 568.86 429.288C568.86 429.868 569.072 430.319 569.494 430.642C569.924 430.957 570.701 431.247 571.825 431.512C572.957 431.777 573.802 432.06 574.36 432.36C574.926 432.661 575.345 433.023 575.617 433.445C575.889 433.868 576.025 434.38 576.025 434.981C576.025 435.963 575.628 436.747 574.833 437.334C574.045 437.921 573.014 438.215 571.739 438.215C570.386 438.215 569.286 437.889 568.441 437.237C567.604 436.578 567.185 435.748 567.185 434.745H568.474C568.524 435.497 568.839 436.084 569.419 436.507C570.006 436.922 570.78 437.13 571.739 437.13C572.634 437.13 573.358 436.933 573.909 436.539C574.461 436.145 574.736 435.647 574.736 435.046ZM581.687 432.146L580.215 433.563V438H578.926V421.5H580.215V432.06L581.429 430.749L585.876 426.377H587.498L582.567 431.275L587.928 438H586.392L581.687 432.146ZM591.15 438H589.861V426.377H591.15V438ZM589.636 423.015C589.636 422.771 589.715 422.567 589.872 422.402C590.03 422.23 590.244 422.145 590.517 422.145C590.789 422.145 591.004 422.23 591.161 422.402C591.326 422.567 591.408 422.771 591.408 423.015C591.408 423.258 591.326 423.462 591.161 423.627C591.004 423.792 590.789 423.874 590.517 423.874C590.244 423.874 590.03 423.792 589.872 423.627C589.715 423.462 589.636 423.258 589.636 423.015ZM603.998 432.307C603.998 434.118 603.597 435.558 602.795 436.625C601.993 437.685 600.919 438.215 599.572 438.215C597.982 438.215 596.765 437.656 595.92 436.539V442.469H594.642V426.377H595.834L595.898 428.021C596.736 426.782 597.95 426.162 599.54 426.162C600.929 426.162 602.018 426.688 602.806 427.741C603.601 428.794 603.998 430.255 603.998 432.124V432.307ZM602.709 432.081C602.709 430.599 602.405 429.428 601.796 428.568C601.187 427.709 600.339 427.279 599.25 427.279C598.462 427.279 597.785 427.469 597.22 427.849C596.654 428.228 596.221 428.78 595.92 429.503V435.078C596.228 435.744 596.668 436.253 597.241 436.604C597.814 436.954 598.491 437.13 599.271 437.13C600.353 437.13 601.194 436.7 601.796 435.841C602.405 434.974 602.709 433.721 602.709 432.081ZM614.203 423.401V426.377H616.609V427.43H614.203V435.175C614.203 435.819 614.318 436.299 614.547 436.614C614.783 436.929 615.174 437.087 615.718 437.087C615.933 437.087 616.28 437.051 616.76 436.979L616.813 438.032C616.477 438.154 616.019 438.215 615.438 438.215C614.558 438.215 613.917 437.961 613.516 437.452C613.115 436.937 612.914 436.181 612.914 435.186V427.43H610.776V426.377H612.914V423.401H614.203ZM620.552 428.343C620.974 427.648 621.515 427.111 622.174 426.731C622.833 426.352 623.552 426.162 624.333 426.162C625.579 426.162 626.507 426.513 627.115 427.215C627.724 427.917 628.032 428.969 628.039 430.373V438H626.761V430.362C626.754 429.324 626.532 428.55 626.095 428.042C625.665 427.534 624.974 427.279 624.021 427.279C623.227 427.279 622.521 427.53 621.905 428.031C621.297 428.525 620.845 429.195 620.552 430.04V438H619.273V421.5H620.552V428.343ZM632.787 438H631.498V426.377H632.787V438ZM631.272 423.015C631.272 422.771 631.351 422.567 631.509 422.402C631.666 422.23 631.881 422.145 632.153 422.145C632.425 422.145 632.64 422.23 632.798 422.402C632.963 422.567 633.045 422.771 633.045 423.015C633.045 423.258 632.963 423.462 632.798 423.627C632.64 423.792 632.425 423.874 632.153 423.874C631.881 423.874 631.666 423.792 631.509 423.627C631.351 423.462 631.272 423.258 631.272 423.015ZM643.25 435.046C643.25 434.409 642.992 433.896 642.477 433.51C641.968 433.123 641.198 432.822 640.167 432.607C639.136 432.385 638.334 432.135 637.761 431.855C637.195 431.569 636.772 431.222 636.493 430.813C636.221 430.405 636.085 429.911 636.085 429.331C636.085 428.414 636.468 427.659 637.234 427.064C638.001 426.463 638.982 426.162 640.178 426.162C641.474 426.162 642.512 426.484 643.293 427.129C644.081 427.766 644.475 428.601 644.475 429.632H643.186C643.186 428.951 642.899 428.386 642.326 427.935C641.76 427.483 641.044 427.258 640.178 427.258C639.333 427.258 638.652 427.448 638.137 427.827C637.628 428.2 637.374 428.687 637.374 429.288C637.374 429.868 637.585 430.319 638.008 430.642C638.438 430.957 639.215 431.247 640.339 431.512C641.47 431.777 642.315 432.06 642.874 432.36C643.44 432.661 643.859 433.023 644.131 433.445C644.403 433.868 644.539 434.38 644.539 434.981C644.539 435.963 644.142 436.747 643.347 437.334C642.559 437.921 641.528 438.215 640.253 438.215C638.899 438.215 637.8 437.889 636.955 437.237C636.117 436.578 635.698 435.748 635.698 434.745H636.987C637.037 435.497 637.353 436.084 637.933 436.507C638.52 436.922 639.293 437.13 640.253 437.13C641.148 437.13 641.871 436.933 642.423 436.539C642.974 436.145 643.25 435.647 643.25 435.046ZM659.75 435.046C659.75 434.409 659.492 433.896 658.977 433.51C658.468 433.123 657.698 432.822 656.667 432.607C655.636 432.385 654.834 432.135 654.261 431.855C653.695 431.569 653.272 431.222 652.993 430.813C652.721 430.405 652.585 429.911 652.585 429.331C652.585 428.414 652.968 427.659 653.734 427.064C654.501 426.463 655.482 426.162 656.678 426.162C657.974 426.162 659.012 426.484 659.793 427.129C660.581 427.766 660.975 428.601 660.975 429.632H659.686C659.686 428.951 659.399 428.386 658.826 427.935C658.26 427.483 657.544 427.258 656.678 427.258C655.833 427.258 655.152 427.448 654.637 427.827C654.128 428.2 653.874 428.687 653.874 429.288C653.874 429.868 654.085 430.319 654.508 430.642C654.938 430.957 655.715 431.247 656.839 431.512C657.97 431.777 658.815 432.06 659.374 432.36C659.94 432.661 660.359 433.023 660.631 433.445C660.903 433.868 661.039 434.38 661.039 434.981C661.039 435.963 660.642 436.747 659.847 437.334C659.059 437.921 658.028 438.215 656.753 438.215C655.399 438.215 654.3 437.889 653.455 437.237C652.617 436.578 652.198 435.748 652.198 434.745H653.487C653.537 435.497 653.853 436.084 654.433 436.507C655.02 436.922 655.793 437.13 656.753 437.13C657.648 437.13 658.371 436.933 658.923 436.539C659.474 436.145 659.75 435.647 659.75 435.046ZM665.938 423.401V426.377H668.344V427.43H665.938V435.175C665.938 435.819 666.052 436.299 666.281 436.614C666.518 436.929 666.908 437.087 667.452 437.087C667.667 437.087 668.014 437.051 668.494 436.979L668.548 438.032C668.211 438.154 667.753 438.215 667.173 438.215C666.292 438.215 665.651 437.961 665.25 437.452C664.849 436.937 664.648 436.181 664.648 435.186V427.43H662.511V426.377H664.648V423.401H665.938ZM675.509 438.215C674.521 438.215 673.625 437.971 672.823 437.484C672.028 436.997 671.409 436.321 670.965 435.454C670.521 434.58 670.299 433.603 670.299 432.521V432.06C670.299 430.942 670.514 429.936 670.943 429.041C671.38 428.146 671.985 427.444 672.759 426.936C673.532 426.42 674.37 426.162 675.272 426.162C676.683 426.162 677.8 426.646 678.624 427.612C679.455 428.572 679.87 429.886 679.87 431.555V432.274H671.577V432.521C671.577 433.839 671.953 434.938 672.705 435.819C673.464 436.693 674.417 437.13 675.562 437.13C676.25 437.13 676.855 437.005 677.378 436.754C677.908 436.503 678.388 436.102 678.817 435.551L679.623 436.163C678.678 437.531 677.306 438.215 675.509 438.215ZM675.272 427.258C674.306 427.258 673.489 427.612 672.823 428.321C672.164 429.03 671.763 429.983 671.62 431.179H678.592V431.039C678.556 429.922 678.237 429.012 677.636 428.311C677.034 427.609 676.246 427.258 675.272 427.258ZM691.719 432.307C691.719 434.118 691.318 435.558 690.516 436.625C689.714 437.685 688.639 438.215 687.293 438.215C685.703 438.215 684.486 437.656 683.641 436.539V442.469H682.362V426.377H683.555L683.619 428.021C684.457 426.782 685.671 426.162 687.261 426.162C688.65 426.162 689.739 426.688 690.526 427.741C691.321 428.794 691.719 430.255 691.719 432.124V432.307ZM690.43 432.081C690.43 430.599 690.125 429.428 689.517 428.568C688.908 427.709 688.059 427.279 686.971 427.279C686.183 427.279 685.506 427.469 684.94 427.849C684.375 428.228 683.941 428.78 683.641 429.503V435.078C683.949 435.744 684.389 436.253 684.962 436.604C685.535 436.954 686.212 437.13 686.992 437.13C688.074 437.13 688.915 436.7 689.517 435.841C690.125 434.974 690.43 433.721 690.43 432.081Z" fill="#581752"/>
<rect x="854" y="287" width="232" height="67" rx="24" fill="#88498F"/>
<path d="M891.391 323.586C891.18 325.391 890.512 326.785 889.387 327.77C888.27 328.746 886.781 329.234 884.922 329.234C882.906 329.234 881.289 328.512 880.07 327.066C878.859 325.621 878.254 323.688 878.254 321.266V319.625C878.254 318.039 878.535 316.645 879.098 315.441C879.668 314.238 880.473 313.316 881.512 312.676C882.551 312.027 883.754 311.703 885.121 311.703C886.934 311.703 888.387 312.211 889.48 313.227C890.574 314.234 891.211 315.633 891.391 317.422H889.129C888.934 316.062 888.508 315.078 887.852 314.469C887.203 313.859 886.293 313.555 885.121 313.555C883.684 313.555 882.555 314.086 881.734 315.148C880.922 316.211 880.516 317.723 880.516 319.684V321.336C880.516 323.188 880.902 324.66 881.676 325.754C882.449 326.848 883.531 327.395 884.922 327.395C886.172 327.395 887.129 327.113 887.793 326.551C888.465 325.98 888.91 324.992 889.129 323.586H891.391ZM893.559 322.543C893.559 321.301 893.801 320.184 894.285 319.191C894.777 318.199 895.457 317.434 896.324 316.895C897.199 316.355 898.195 316.086 899.312 316.086C901.039 316.086 902.434 316.684 903.496 317.879C904.566 319.074 905.102 320.664 905.102 322.648V322.801C905.102 324.035 904.863 325.145 904.387 326.129C903.918 327.105 903.242 327.867 902.359 328.414C901.484 328.961 900.477 329.234 899.336 329.234C897.617 329.234 896.223 328.637 895.152 327.441C894.09 326.246 893.559 324.664 893.559 322.695V322.543ZM895.738 322.801C895.738 324.207 896.062 325.336 896.711 326.188C897.367 327.039 898.242 327.465 899.336 327.465C900.438 327.465 901.312 327.035 901.961 326.176C902.609 325.309 902.934 324.098 902.934 322.543C902.934 321.152 902.602 320.027 901.938 319.168C901.281 318.301 900.406 317.867 899.312 317.867C898.242 317.867 897.379 318.293 896.723 319.145C896.066 319.996 895.738 321.215 895.738 322.801ZM910.176 329H908.008V311H910.176V329ZM916.012 329H913.844V311H916.012V329ZM924.754 329.234C923.035 329.234 921.637 328.672 920.559 327.547C919.48 326.414 918.941 324.902 918.941 323.012V322.613C918.941 321.355 919.18 320.234 919.656 319.25C920.141 318.258 920.812 317.484 921.672 316.93C922.539 316.367 923.477 316.086 924.484 316.086C926.133 316.086 927.414 316.629 928.328 317.715C929.242 318.801 929.699 320.355 929.699 322.379V323.281H921.109C921.141 324.531 921.504 325.543 922.199 326.316C922.902 327.082 923.793 327.465 924.871 327.465C925.637 327.465 926.285 327.309 926.816 326.996C927.348 326.684 927.812 326.27 928.211 325.754L929.535 326.785C928.473 328.418 926.879 329.234 924.754 329.234ZM924.484 317.867C923.609 317.867 922.875 318.188 922.281 318.828C921.688 319.461 921.32 320.352 921.18 321.5H927.531V321.336C927.469 320.234 927.172 319.383 926.641 318.781C926.109 318.172 925.391 317.867 924.484 317.867ZM937.305 327.465C938.078 327.465 938.754 327.23 939.332 326.762C939.91 326.293 940.23 325.707 940.293 325.004H942.344C942.305 325.73 942.055 326.422 941.594 327.078C941.133 327.734 940.516 328.258 939.742 328.648C938.977 329.039 938.164 329.234 937.305 329.234C935.578 329.234 934.203 328.66 933.18 327.512C932.164 326.355 931.656 324.777 931.656 322.777V322.414C931.656 321.18 931.883 320.082 932.336 319.121C932.789 318.16 933.438 317.414 934.281 316.883C935.133 316.352 936.137 316.086 937.293 316.086C938.715 316.086 939.895 316.512 940.832 317.363C941.777 318.215 942.281 319.32 942.344 320.68H940.293C940.23 319.859 939.918 319.188 939.355 318.664C938.801 318.133 938.113 317.867 937.293 317.867C936.191 317.867 935.336 318.266 934.727 319.062C934.125 319.852 933.824 320.996 933.824 322.496V322.906C933.824 324.367 934.125 325.492 934.727 326.281C935.328 327.07 936.188 327.465 937.305 327.465ZM947.723 313.25V316.32H950.09V317.996H947.723V325.859C947.723 326.367 947.828 326.75 948.039 327.008C948.25 327.258 948.609 327.383 949.117 327.383C949.367 327.383 949.711 327.336 950.148 327.242V329C949.578 329.156 949.023 329.234 948.484 329.234C947.516 329.234 946.785 328.941 946.293 328.355C945.801 327.77 945.555 326.938 945.555 325.859V317.996H943.246V316.32H945.555V313.25H947.723ZM954.988 329H952.82V316.32H954.988V329ZM952.645 312.957C952.645 312.605 952.75 312.309 952.961 312.066C953.18 311.824 953.5 311.703 953.922 311.703C954.344 311.703 954.664 311.824 954.883 312.066C955.102 312.309 955.211 312.605 955.211 312.957C955.211 313.309 955.102 313.602 954.883 313.836C954.664 314.07 954.344 314.188 953.922 314.188C953.5 314.188 953.18 314.07 952.961 313.836C952.75 313.602 952.645 313.309 952.645 312.957ZM957.895 322.543C957.895 321.301 958.137 320.184 958.621 319.191C959.113 318.199 959.793 317.434 960.66 316.895C961.535 316.355 962.531 316.086 963.648 316.086C965.375 316.086 966.77 316.684 967.832 317.879C968.902 319.074 969.438 320.664 969.438 322.648V322.801C969.438 324.035 969.199 325.145 968.723 326.129C968.254 327.105 967.578 327.867 966.695 328.414C965.82 328.961 964.812 329.234 963.672 329.234C961.953 329.234 960.559 328.637 959.488 327.441C958.426 326.246 957.895 324.664 957.895 322.695V322.543ZM960.074 322.801C960.074 324.207 960.398 325.336 961.047 326.188C961.703 327.039 962.578 327.465 963.672 327.465C964.773 327.465 965.648 327.035 966.297 326.176C966.945 325.309 967.27 324.098 967.27 322.543C967.27 321.152 966.938 320.027 966.273 319.168C965.617 318.301 964.742 317.867 963.648 317.867C962.578 317.867 961.715 318.293 961.059 319.145C960.402 319.996 960.074 321.215 960.074 322.801ZM974.207 316.32L974.277 317.914C975.246 316.695 976.512 316.086 978.074 316.086C980.754 316.086 982.105 317.598 982.129 320.621V329H979.961V320.609C979.953 319.695 979.742 319.02 979.328 318.582C978.922 318.145 978.285 317.926 977.418 317.926C976.715 317.926 976.098 318.113 975.566 318.488C975.035 318.863 974.621 319.355 974.324 319.965V329H972.156V316.32H974.207ZM991.691 329V311.938H996.508C997.992 311.938 999.305 312.266 1000.45 312.922C1001.59 313.578 1002.46 314.512 1003.08 315.723C1003.71 316.934 1004.02 318.324 1004.03 319.895V320.984C1004.03 322.594 1003.72 324.004 1003.09 325.215C1002.48 326.426 1001.59 327.355 1000.43 328.004C999.285 328.652 997.945 328.984 996.414 329H991.691ZM993.941 313.789V327.16H996.309C998.043 327.16 999.391 326.621 1000.35 325.543C1001.32 324.465 1001.8 322.93 1001.8 320.938V319.941C1001.8 318.004 1001.35 316.5 1000.43 315.43C999.527 314.352 998.238 313.805 996.566 313.789H993.941ZM1012.36 329.234C1010.64 329.234 1009.25 328.672 1008.17 327.547C1007.09 326.414 1006.55 324.902 1006.55 323.012V322.613C1006.55 321.355 1006.79 320.234 1007.27 319.25C1007.75 318.258 1008.42 317.484 1009.28 316.93C1010.15 316.367 1011.09 316.086 1012.09 316.086C1013.74 316.086 1015.02 316.629 1015.94 317.715C1016.85 318.801 1017.31 320.355 1017.31 322.379V323.281H1008.72C1008.75 324.531 1009.11 325.543 1009.81 326.316C1010.51 327.082 1011.4 327.465 1012.48 327.465C1013.25 327.465 1013.89 327.309 1014.43 326.996C1014.96 326.684 1015.42 326.27 1015.82 325.754L1017.14 326.785C1016.08 328.418 1014.49 329.234 1012.36 329.234ZM1012.09 317.867C1011.22 317.867 1010.48 318.188 1009.89 318.828C1009.3 319.461 1008.93 320.352 1008.79 321.5H1015.14V321.336C1015.08 320.234 1014.78 319.383 1014.25 318.781C1013.72 318.172 1013 317.867 1012.09 317.867ZM1022.77 313.25V316.32H1025.14V317.996H1022.77V325.859C1022.77 326.367 1022.88 326.75 1023.09 327.008C1023.3 327.258 1023.66 327.383 1024.16 327.383C1024.41 327.383 1024.76 327.336 1025.2 327.242V329C1024.62 329.156 1024.07 329.234 1023.53 329.234C1022.56 329.234 1021.83 328.941 1021.34 328.355C1020.85 327.77 1020.6 326.938 1020.6 325.859V317.996H1018.29V316.32H1020.6V313.25H1022.77ZM1035.51 329C1035.38 328.75 1035.28 328.305 1035.2 327.664C1034.2 328.711 1032.99 329.234 1031.59 329.234C1030.34 329.234 1029.32 328.883 1028.51 328.18C1027.71 327.469 1027.32 326.57 1027.32 325.484C1027.32 324.164 1027.82 323.141 1028.82 322.414C1029.82 321.68 1031.24 321.312 1033.06 321.312H1035.17V320.316C1035.17 319.559 1034.94 318.957 1034.49 318.512C1034.04 318.059 1033.37 317.832 1032.48 317.832C1031.71 317.832 1031.06 318.027 1030.54 318.418C1030.02 318.809 1029.75 319.281 1029.75 319.836H1027.57C1027.57 319.203 1027.8 318.594 1028.24 318.008C1028.7 317.414 1029.3 316.945 1030.07 316.602C1030.84 316.258 1031.69 316.086 1032.61 316.086C1034.07 316.086 1035.22 316.453 1036.05 317.188C1036.88 317.914 1037.3 318.918 1037.34 320.199V326.035C1037.34 327.199 1037.48 328.125 1037.78 328.812V329H1035.51ZM1031.91 327.348C1032.59 327.348 1033.23 327.172 1033.84 326.82C1034.45 326.469 1034.89 326.012 1035.17 325.449V322.848H1033.47C1030.81 322.848 1029.48 323.625 1029.48 325.18C1029.48 325.859 1029.71 326.391 1030.16 326.773C1030.62 327.156 1031.2 327.348 1031.91 327.348ZM1043.09 329H1040.92V316.32H1043.09V329ZM1040.75 312.957C1040.75 312.605 1040.85 312.309 1041.06 312.066C1041.28 311.824 1041.6 311.703 1042.02 311.703C1042.45 311.703 1042.77 311.824 1042.98 312.066C1043.2 312.309 1043.31 312.605 1043.31 312.957C1043.31 313.309 1043.2 313.602 1042.98 313.836C1042.77 314.07 1042.45 314.188 1042.02 314.188C1041.6 314.188 1041.28 314.07 1041.06 313.836C1040.85 313.602 1040.75 313.309 1040.75 312.957ZM1048.93 329H1046.76V311H1048.93V329ZM1059.79 325.637C1059.79 325.051 1059.57 324.598 1059.12 324.277C1058.68 323.949 1057.91 323.668 1056.81 323.434C1055.72 323.199 1054.85 322.918 1054.2 322.59C1053.56 322.262 1053.08 321.871 1052.77 321.418C1052.46 320.965 1052.31 320.426 1052.31 319.801C1052.31 318.762 1052.75 317.883 1053.62 317.164C1054.51 316.445 1055.63 316.086 1057 316.086C1058.44 316.086 1059.6 316.457 1060.49 317.199C1061.39 317.941 1061.84 318.891 1061.84 320.047H1059.66C1059.66 319.453 1059.41 318.941 1058.9 318.512C1058.4 318.082 1057.77 317.867 1057 317.867C1056.21 317.867 1055.59 318.039 1055.15 318.383C1054.7 318.727 1054.48 319.176 1054.48 319.73C1054.48 320.254 1054.69 320.648 1055.1 320.914C1055.52 321.18 1056.26 321.434 1057.34 321.676C1058.43 321.918 1059.3 322.207 1059.98 322.543C1060.65 322.879 1061.14 323.285 1061.46 323.762C1061.79 324.23 1061.96 324.805 1061.96 325.484C1061.96 326.617 1061.5 327.527 1060.6 328.215C1059.69 328.895 1058.52 329.234 1057.07 329.234C1056.05 329.234 1055.16 329.055 1054.38 328.695C1053.59 328.336 1052.98 327.836 1052.54 327.195C1052.1 326.547 1051.88 325.848 1051.88 325.098H1054.05C1054.09 325.824 1054.38 326.402 1054.91 326.832C1055.46 327.254 1056.18 327.465 1057.07 327.465C1057.89 327.465 1058.55 327.301 1059.04 326.973C1059.54 326.637 1059.79 326.191 1059.79 325.637Z" fill="white"/>
</svg>
