<svg width="726" height="360" viewBox="0 0 726 360" fill="none" xmlns="http://www.w3.org/2000/svg">
<circle cx="64" cy="94" r="64" fill="#779FA1"/>
<path d="M47.2461 97.9688C47.2461 97.5039 47.1732 97.0938 47.0273 96.7383C46.8906 96.3737 46.6445 96.0456 46.2891 95.7539C45.9427 95.4622 45.4596 95.1842 44.8398 94.9199C44.2292 94.6556 43.4544 94.3867 42.5156 94.1133C41.5312 93.8216 40.6426 93.498 39.8496 93.1426C39.0566 92.778 38.3776 92.3633 37.8125 91.8984C37.2474 91.4336 36.8145 90.9004 36.5137 90.2988C36.2129 89.6973 36.0625 89.0091 36.0625 88.2344C36.0625 87.4596 36.222 86.7441 36.541 86.0879C36.86 85.4316 37.3158 84.862 37.9082 84.3789C38.5098 83.8867 39.2253 83.5039 40.0547 83.2305C40.8841 82.957 41.8092 82.8203 42.8301 82.8203C44.3249 82.8203 45.5918 83.1074 46.6309 83.6816C47.679 84.2467 48.4766 84.9896 49.0234 85.9102C49.5703 86.8216 49.8438 87.7969 49.8438 88.8359H47.2188C47.2188 88.0885 47.0592 87.4277 46.7402 86.8535C46.4212 86.2702 45.9382 85.8145 45.291 85.4863C44.6439 85.1491 43.8236 84.9805 42.8301 84.9805C41.8913 84.9805 41.1165 85.1217 40.5059 85.4043C39.8952 85.6868 39.4395 86.0697 39.1387 86.5527C38.847 87.0358 38.7012 87.5872 38.7012 88.207C38.7012 88.6263 38.7878 89.0091 38.9609 89.3555C39.1432 89.6927 39.4212 90.0072 39.7949 90.2988C40.1777 90.5905 40.6608 90.8594 41.2441 91.1055C41.8366 91.3516 42.543 91.5885 43.3633 91.8164C44.4935 92.1354 45.4688 92.4909 46.2891 92.8828C47.1094 93.2747 47.7839 93.7168 48.3125 94.209C48.8503 94.6921 49.2467 95.2435 49.502 95.8633C49.7663 96.474 49.8984 97.1667 49.8984 97.9414C49.8984 98.7526 49.7344 99.4863 49.4062 100.143C49.0781 100.799 48.6087 101.359 47.998 101.824C47.3874 102.289 46.6536 102.649 45.7969 102.904C44.9492 103.15 44.0013 103.273 42.9531 103.273C42.0326 103.273 41.1257 103.146 40.2324 102.891C39.3483 102.635 38.5417 102.253 37.8125 101.742C37.0924 101.232 36.5137 100.603 36.0762 99.8555C35.6478 99.099 35.4336 98.224 35.4336 97.2305H38.0586C38.0586 97.9141 38.1908 98.502 38.4551 98.9941C38.7194 99.4772 39.0794 99.8783 39.5352 100.197C40 100.516 40.5241 100.753 41.1074 100.908C41.6999 101.054 42.3151 101.127 42.9531 101.127C43.8737 101.127 44.653 100.999 45.291 100.744C45.929 100.489 46.4121 100.124 46.7402 99.6504C47.0775 99.1764 47.2461 98.6159 47.2461 97.9688ZM59.0723 88.207V90.1484H51.0742V88.207H59.0723ZM53.7812 84.6113H56.3105V99.3359C56.3105 99.8372 56.388 100.215 56.543 100.471C56.6979 100.726 56.8984 100.895 57.1445 100.977C57.3906 101.059 57.6549 101.1 57.9375 101.1C58.1471 101.1 58.3659 101.081 58.5938 101.045C58.8307 100.999 59.0085 100.963 59.127 100.936L59.1406 103C58.9401 103.064 58.6758 103.123 58.3477 103.178C58.0286 103.242 57.6413 103.273 57.1855 103.273C56.5658 103.273 55.9961 103.15 55.4766 102.904C54.957 102.658 54.5423 102.248 54.2324 101.674C53.9316 101.09 53.7812 100.307 53.7812 99.3223V84.6113ZM70.7617 100.471V92.8555C70.7617 92.2721 70.6432 91.7663 70.4062 91.3379C70.1784 90.9004 69.832 90.5632 69.3672 90.3262C68.9023 90.0892 68.3281 89.9707 67.6445 89.9707C67.0065 89.9707 66.446 90.0801 65.9629 90.2988C65.4889 90.5176 65.1152 90.8047 64.8418 91.1602C64.5775 91.5156 64.4453 91.8984 64.4453 92.3086H61.916C61.916 91.7799 62.0527 91.2559 62.3262 90.7363C62.5996 90.2168 62.9915 89.7474 63.502 89.3281C64.0215 88.8997 64.6413 88.5625 65.3613 88.3164C66.0905 88.0612 66.9017 87.9336 67.7949 87.9336C68.8704 87.9336 69.8184 88.1159 70.6387 88.4805C71.4681 88.8451 72.1152 89.3965 72.5801 90.1348C73.054 90.8639 73.291 91.7799 73.291 92.8828V99.7734C73.291 100.266 73.332 100.79 73.4141 101.346C73.5052 101.902 73.6374 102.38 73.8105 102.781V103H71.1719C71.0443 102.708 70.944 102.321 70.8711 101.838C70.7982 101.346 70.7617 100.89 70.7617 100.471ZM71.1992 94.0312L71.2266 95.8086H68.6699C67.9499 95.8086 67.3073 95.8678 66.7422 95.9863C66.1771 96.0957 65.7031 96.2643 65.3203 96.4922C64.9375 96.7201 64.6458 97.0072 64.4453 97.3535C64.2448 97.6908 64.1445 98.0872 64.1445 98.543C64.1445 99.0078 64.2493 99.4316 64.459 99.8145C64.6686 100.197 64.9831 100.503 65.4023 100.73C65.8307 100.949 66.3548 101.059 66.9746 101.059C67.7493 101.059 68.4329 100.895 69.0254 100.566C69.6178 100.238 70.0872 99.8372 70.4336 99.3633C70.7891 98.8893 70.9805 98.429 71.0078 97.9824L72.0879 99.1992C72.0241 99.582 71.8509 100.006 71.5684 100.471C71.2858 100.936 70.9076 101.382 70.4336 101.811C69.9688 102.23 69.4128 102.581 68.7656 102.863C68.1276 103.137 67.4076 103.273 66.6055 103.273C65.6029 103.273 64.7233 103.077 63.9668 102.686C63.2194 102.294 62.6361 101.77 62.2168 101.113C61.8066 100.448 61.6016 99.7051 61.6016 98.8848C61.6016 98.0918 61.7565 97.3945 62.0664 96.793C62.3763 96.1823 62.8229 95.6764 63.4062 95.2754C63.9896 94.8652 64.6914 94.5553 65.5117 94.3457C66.332 94.1361 67.248 94.0312 68.2598 94.0312H71.1992ZM79.7988 90.5312V103H77.2695V88.207H79.7305L79.7988 90.5312ZM84.4199 88.125L84.4062 90.4766C84.1966 90.431 83.9961 90.4036 83.8047 90.3945C83.6224 90.3763 83.4128 90.3672 83.1758 90.3672C82.5924 90.3672 82.0775 90.4583 81.6309 90.6406C81.1842 90.8229 80.806 91.0781 80.4961 91.4062C80.1862 91.7344 79.9401 92.1263 79.7578 92.582C79.5846 93.0286 79.4707 93.5208 79.416 94.0586L78.7051 94.4688C78.7051 93.5755 78.7917 92.737 78.9648 91.9531C79.1471 91.1693 79.4251 90.4766 79.7988 89.875C80.1725 89.2643 80.6465 88.7904 81.2207 88.4531C81.804 88.1068 82.4967 87.9336 83.2988 87.9336C83.4811 87.9336 83.6908 87.9564 83.9277 88.002C84.1647 88.0384 84.3288 88.0794 84.4199 88.125ZM93.6348 88.207V90.1484H85.6367V88.207H93.6348ZM88.3438 84.6113H90.873V99.3359C90.873 99.8372 90.9505 100.215 91.1055 100.471C91.2604 100.726 91.4609 100.895 91.707 100.977C91.9531 101.059 92.2174 101.1 92.5 101.1C92.7096 101.1 92.9284 101.081 93.1562 101.045C93.3932 100.999 93.571 100.963 93.6895 100.936L93.7031 103C93.5026 103.064 93.2383 103.123 92.9102 103.178C92.5911 103.242 92.2038 103.273 91.748 103.273C91.1283 103.273 90.5586 103.15 90.0391 102.904C89.5195 102.658 89.1048 102.248 88.7949 101.674C88.4941 101.09 88.3438 100.307 88.3438 99.3223V84.6113Z" fill="white"/>
<path d="M152 91.5C150.619 91.5 149.5 92.6193 149.5 94C149.5 95.3807 150.619 96.5 152 96.5L152 91.5ZM217.768 95.7678C218.744 94.7915 218.744 93.2085 217.768 92.2322L201.858 76.3223C200.882 75.346 199.299 75.346 198.322 76.3223C197.346 77.2986 197.346 78.8816 198.322 79.8579L212.464 94L198.322 108.142C197.346 109.118 197.346 110.701 198.322 111.678C199.299 112.654 200.882 112.654 201.858 111.678L217.768 95.7678ZM152 96.5L216 96.5L216 91.5L152 91.5L152 96.5Z" fill="#FF6542"/>
<path d="M469 91.5C467.619 91.5 466.5 92.6193 466.5 94C466.5 95.3807 467.619 96.5 469 96.5L469 91.5ZM534.768 95.7678C535.744 94.7915 535.744 93.2085 534.768 92.2322L518.858 76.3223C517.882 75.346 516.299 75.346 515.322 76.3223C514.346 77.2986 514.346 78.8816 515.322 79.8579L529.464 94L515.322 108.142C514.346 109.118 514.346 110.701 515.322 111.678C516.299 112.654 517.882 112.654 518.858 111.678L534.768 95.7678ZM469 96.5L533 96.5L533 91.5L469 91.5L469 96.5Z" fill="#FF6542"/>
<path d="M344.5 205C344.5 203.619 343.381 202.5 342 202.5C340.619 202.5 339.5 203.619 339.5 205H344.5ZM340.232 270.768C341.209 271.744 342.791 271.744 343.768 270.768L359.678 254.858C360.654 253.882 360.654 252.299 359.678 251.322C358.701 250.346 357.118 250.346 356.142 251.322L342 265.464L327.858 251.322C326.882 250.346 325.299 250.346 324.322 251.322C323.346 252.299 323.346 253.882 324.322 254.858L340.232 270.768ZM339.5 205V269H344.5V205H339.5Z" fill="#FF6542"/>
<path d="M643.768 149.232C642.791 148.256 641.209 148.256 640.232 149.232L624.322 165.142C623.346 166.118 623.346 167.701 624.322 168.678C625.299 169.654 626.882 169.654 627.858 168.678L642 154.536L656.142 168.678C657.118 169.654 658.701 169.654 659.678 168.678C660.654 167.701 660.654 166.118 659.678 165.142L643.768 149.232ZM469 324.5C467.619 324.5 466.5 325.619 466.5 327C466.5 328.381 467.619 329.5 469 329.5V324.5ZM639.5 151V303H644.5V151H639.5ZM618 324.5H469V329.5H618V324.5ZM639.5 303C639.5 314.874 629.874 324.5 618 324.5V329.5C632.636 329.5 644.5 317.636 644.5 303H639.5Z" fill="#FF6542"/>
<path d="M329.941 10.1334C337.27 4.22022 347.73 4.22022 355.059 10.1334L439.709 78.4349C449.631 86.4401 449.631 101.56 439.709 109.565L355.059 177.867C347.73 183.78 337.27 183.78 329.941 177.867L245.291 109.565C235.369 101.56 235.369 86.4401 245.291 78.4349L329.941 10.1334Z" fill="#FFB2A0"/>
<path d="M285.371 100.854H294.805V103H282.732V83.0938H285.371V100.854ZM296.732 95.4668C296.732 94.0176 297.015 92.7142 297.58 91.5566C298.154 90.3991 298.947 89.5059 299.959 88.877C300.98 88.248 302.142 87.9336 303.445 87.9336C305.46 87.9336 307.087 88.6309 308.326 90.0254C309.575 91.4199 310.199 93.2747 310.199 95.5898V95.7676C310.199 97.2077 309.921 98.502 309.365 99.6504C308.818 100.79 308.03 101.678 307 102.316C305.979 102.954 304.803 103.273 303.473 103.273C301.467 103.273 299.84 102.576 298.592 101.182C297.352 99.7871 296.732 97.9414 296.732 95.6445V95.4668ZM299.275 95.7676C299.275 97.4082 299.654 98.7253 300.41 99.7188C301.176 100.712 302.197 101.209 303.473 101.209C304.758 101.209 305.779 100.708 306.535 99.7051C307.292 98.6934 307.67 97.2806 307.67 95.4668C307.67 93.8444 307.283 92.5319 306.508 91.5293C305.742 90.5176 304.721 90.0117 303.445 90.0117C302.197 90.0117 301.189 90.5085 300.424 91.502C299.658 92.4954 299.275 93.9173 299.275 95.7676ZM312.77 95.4805C312.77 93.1745 313.303 91.3424 314.369 89.9844C315.436 88.6172 316.848 87.9336 318.607 87.9336C320.412 87.9336 321.82 88.5716 322.832 89.8477L322.955 88.207H325.266V102.645C325.266 104.559 324.696 106.067 323.557 107.17C322.426 108.273 320.904 108.824 318.99 108.824C317.924 108.824 316.88 108.596 315.859 108.141C314.839 107.685 314.059 107.061 313.521 106.268L314.834 104.75C315.919 106.09 317.245 106.76 318.812 106.76C320.043 106.76 321 106.413 321.684 105.721C322.376 105.028 322.723 104.053 322.723 102.795V101.523C321.711 102.69 320.33 103.273 318.58 103.273C316.848 103.273 315.445 102.576 314.369 101.182C313.303 99.7871 312.77 97.8867 312.77 95.4805ZM315.312 95.7676C315.312 97.4355 315.654 98.748 316.338 99.7051C317.021 100.653 317.979 101.127 319.209 101.127C320.804 101.127 321.975 100.402 322.723 98.9531V92.1992C321.948 90.7865 320.786 90.0801 319.236 90.0801C318.006 90.0801 317.044 90.5586 316.352 91.5156C315.659 92.4727 315.312 93.89 315.312 95.7676ZM328.492 95.4805C328.492 93.1745 329.025 91.3424 330.092 89.9844C331.158 88.6172 332.571 87.9336 334.33 87.9336C336.135 87.9336 337.543 88.5716 338.555 89.8477L338.678 88.207H340.988V102.645C340.988 104.559 340.419 106.067 339.279 107.17C338.149 108.273 336.627 108.824 334.713 108.824C333.646 108.824 332.603 108.596 331.582 108.141C330.561 107.685 329.782 107.061 329.244 106.268L330.557 104.75C331.641 106.09 332.967 106.76 334.535 106.76C335.766 106.76 336.723 106.413 337.406 105.721C338.099 105.028 338.445 104.053 338.445 102.795V101.523C337.434 102.69 336.053 103.273 334.303 103.273C332.571 103.273 331.167 102.576 330.092 101.182C329.025 99.7871 328.492 97.8867 328.492 95.4805ZM331.035 95.7676C331.035 97.4355 331.377 98.748 332.061 99.7051C332.744 100.653 333.701 101.127 334.932 101.127C336.527 101.127 337.698 100.402 338.445 98.9531V92.1992C337.671 90.7865 336.508 90.0801 334.959 90.0801C333.729 90.0801 332.767 90.5586 332.074 91.5156C331.382 92.4727 331.035 93.89 331.035 95.7676ZM350.955 103.273C348.95 103.273 347.318 102.617 346.061 101.305C344.803 99.9831 344.174 98.2194 344.174 96.0137V95.5488C344.174 94.0814 344.452 92.7734 345.008 91.625C345.573 90.4674 346.357 89.5651 347.359 88.918C348.371 88.2617 349.465 87.9336 350.641 87.9336C352.564 87.9336 354.059 88.5671 355.125 89.834C356.191 91.1009 356.725 92.9147 356.725 95.2754V96.3281H346.703C346.74 97.7865 347.163 98.9668 347.975 99.8691C348.795 100.762 349.834 101.209 351.092 101.209C351.985 101.209 352.742 101.027 353.361 100.662C353.981 100.298 354.523 99.8145 354.988 99.2129L356.533 100.416C355.294 102.321 353.434 103.273 350.955 103.273ZM350.641 90.0117C349.62 90.0117 348.763 90.3854 348.07 91.1328C347.378 91.8711 346.949 92.9102 346.785 94.25H354.195V94.0586C354.122 92.7734 353.776 91.7799 353.156 91.0781C352.536 90.3672 351.698 90.0117 350.641 90.0117ZM359.049 95.4805C359.049 93.2109 359.587 91.388 360.662 90.0117C361.738 88.6263 363.146 87.9336 364.887 87.9336C366.618 87.9336 367.99 88.526 369.002 89.7109V82H371.531V103H369.207L369.084 101.414C368.072 102.654 366.664 103.273 364.859 103.273C363.146 103.273 361.747 102.572 360.662 101.168C359.587 99.7643 359.049 97.9323 359.049 95.6719V95.4805ZM361.578 95.7676C361.578 97.4447 361.924 98.7572 362.617 99.7051C363.31 100.653 364.267 101.127 365.488 101.127C367.092 101.127 368.264 100.407 369.002 98.9668V92.1719C368.245 90.7773 367.083 90.0801 365.516 90.0801C364.276 90.0801 363.31 90.5586 362.617 91.5156C361.924 92.4727 361.578 93.89 361.578 95.7676ZM385.627 103H383.002V83.0938H385.627V103ZM392.436 88.207L392.518 90.0664C393.648 88.6445 395.124 87.9336 396.947 87.9336C400.074 87.9336 401.65 89.6973 401.678 93.2246V103H399.148V93.2109C399.139 92.1445 398.893 91.3561 398.41 90.8457C397.936 90.3353 397.193 90.0801 396.182 90.0801C395.361 90.0801 394.641 90.2988 394.021 90.7363C393.402 91.1738 392.919 91.748 392.572 92.459V103H390.043V88.207H392.436Z" fill="white"/>
<path d="M490.344 58.9199L494.055 51.7812H496.184L491.281 60.6973V66H489.406V60.6973L484.504 51.7812H486.652L490.344 58.9199ZM501.477 66.1953C500.044 66.1953 498.879 65.7266 497.98 64.7891C497.082 63.8451 496.633 62.5853 496.633 61.0098V60.6777C496.633 59.6296 496.831 58.6953 497.229 57.875C497.632 57.0482 498.192 56.4036 498.908 55.9414C499.631 55.4727 500.412 55.2383 501.252 55.2383C502.626 55.2383 503.693 55.6908 504.455 56.5957C505.217 57.5007 505.598 58.7962 505.598 60.4824V61.2344H498.439C498.465 62.276 498.768 63.1191 499.348 63.7637C499.934 64.4017 500.676 64.7207 501.574 64.7207C502.212 64.7207 502.753 64.5905 503.195 64.3301C503.638 64.0697 504.025 63.7246 504.357 63.2949L505.461 64.1543C504.576 65.515 503.247 66.1953 501.477 66.1953ZM501.252 56.7227C500.523 56.7227 499.911 56.9896 499.416 57.5234C498.921 58.0508 498.615 58.793 498.498 59.75H503.791V59.6133C503.739 58.6953 503.492 57.9857 503.049 57.4844C502.606 56.9766 502.007 56.7227 501.252 56.7227ZM513.85 63.1973C513.85 62.709 513.664 62.3314 513.293 62.0645C512.928 61.791 512.287 61.5566 511.369 61.3613C510.458 61.166 509.732 60.9316 509.191 60.6582C508.658 60.3848 508.26 60.0592 508 59.6816C507.746 59.304 507.619 58.8548 507.619 58.334C507.619 57.4681 507.984 56.7357 508.713 56.1367C509.449 55.5378 510.386 55.2383 511.525 55.2383C512.723 55.2383 513.693 55.5475 514.436 56.166C515.184 56.7845 515.559 57.5755 515.559 58.5391H513.742C513.742 58.0443 513.531 57.6178 513.107 57.2598C512.691 56.9017 512.163 56.7227 511.525 56.7227C510.868 56.7227 510.354 56.8659 509.982 57.1523C509.611 57.4388 509.426 57.8132 509.426 58.2754C509.426 58.7116 509.598 59.0404 509.943 59.2617C510.288 59.4831 510.91 59.6947 511.809 59.8965C512.714 60.0983 513.446 60.3392 514.006 60.6191C514.566 60.8991 514.979 61.2376 515.246 61.6348C515.52 62.0254 515.656 62.5039 515.656 63.0703C515.656 64.0143 515.279 64.7728 514.523 65.3457C513.768 65.9121 512.788 66.1953 511.584 66.1953C510.738 66.1953 509.989 66.0456 509.338 65.7461C508.687 65.4466 508.176 65.0299 507.805 64.4961C507.44 63.9557 507.258 63.373 507.258 62.748H509.064C509.097 63.3535 509.338 63.8353 509.787 64.1934C510.243 64.5449 510.842 64.7207 511.584 64.7207C512.268 64.7207 512.814 64.584 513.225 64.3105C513.641 64.0306 513.85 63.6595 513.85 63.1973Z" fill="#581752"/>
<path d="M367.746 243H365.861L358.703 232.043V243H356.818V228.781H358.703L365.881 239.787V228.781H367.746V243ZM370.314 237.619C370.314 236.584 370.516 235.653 370.92 234.826C371.33 233.999 371.896 233.361 372.619 232.912C373.348 232.463 374.178 232.238 375.109 232.238C376.548 232.238 377.71 232.736 378.596 233.732C379.488 234.729 379.934 236.053 379.934 237.707V237.834C379.934 238.863 379.735 239.787 379.338 240.607C378.947 241.421 378.384 242.056 377.648 242.512C376.919 242.967 376.079 243.195 375.129 243.195C373.697 243.195 372.535 242.697 371.643 241.701C370.757 240.705 370.314 239.387 370.314 237.746V237.619ZM372.131 237.834C372.131 239.006 372.401 239.947 372.941 240.656C373.488 241.366 374.217 241.721 375.129 241.721C376.047 241.721 376.776 241.363 377.316 240.646C377.857 239.924 378.127 238.915 378.127 237.619C378.127 236.46 377.85 235.523 377.297 234.807C376.75 234.084 376.021 233.723 375.109 233.723C374.217 233.723 373.498 234.077 372.951 234.787C372.404 235.497 372.131 236.512 372.131 237.834Z" fill="#581752"/>
<rect x="557" y="60" width="169" height="67" rx="24" fill="#88498F"/>
<path d="M594.703 102H592.441V94.1133H583.84V102H581.59V84.9375H583.84V92.2734H592.441V84.9375H594.703V102ZM597.785 95.543C597.785 94.3008 598.027 93.1836 598.512 92.1914C599.004 91.1992 599.684 90.4336 600.551 89.8945C601.426 89.3555 602.422 89.0859 603.539 89.0859C605.266 89.0859 606.66 89.6836 607.723 90.8789C608.793 92.0742 609.328 93.6641 609.328 95.6484V95.8008C609.328 97.0352 609.09 98.1445 608.613 99.1289C608.145 100.105 607.469 100.867 606.586 101.414C605.711 101.961 604.703 102.234 603.562 102.234C601.844 102.234 600.449 101.637 599.379 100.441C598.316 99.2461 597.785 97.6641 597.785 95.6953V95.543ZM599.965 95.8008C599.965 97.207 600.289 98.3359 600.938 99.1875C601.594 100.039 602.469 100.465 603.562 100.465C604.664 100.465 605.539 100.035 606.188 99.1758C606.836 98.3086 607.16 97.0977 607.16 95.543C607.16 94.1523 606.828 93.0273 606.164 92.168C605.508 91.3008 604.633 90.8672 603.539 90.8672C602.469 90.8672 601.605 91.293 600.949 92.1445C600.293 92.9961 599.965 94.2148 599.965 95.8008ZM614.086 89.3203L614.145 90.7266C615.074 89.6328 616.328 89.0859 617.906 89.0859C619.68 89.0859 620.887 89.7656 621.527 91.125C621.949 90.5156 622.496 90.0234 623.168 89.6484C623.848 89.2734 624.648 89.0859 625.57 89.0859C628.352 89.0859 629.766 90.5586 629.812 93.5039V102H627.645V93.6328C627.645 92.7266 627.438 92.0508 627.023 91.6055C626.609 91.1523 625.914 90.9258 624.938 90.9258C624.133 90.9258 623.465 91.168 622.934 91.6523C622.402 92.1289 622.094 92.7734 622.008 93.5859V102H619.828V93.6914C619.828 91.8477 618.926 90.9258 617.121 90.9258C615.699 90.9258 614.727 91.5312 614.203 92.7422V102H612.035V89.3203H614.086ZM638.355 102.234C636.637 102.234 635.238 101.672 634.16 100.547C633.082 99.4141 632.543 97.9023 632.543 96.0117V95.6133C632.543 94.3555 632.781 93.2344 633.258 92.25C633.742 91.2578 634.414 90.4844 635.273 89.9297C636.141 89.3672 637.078 89.0859 638.086 89.0859C639.734 89.0859 641.016 89.6289 641.93 90.7148C642.844 91.8008 643.301 93.3555 643.301 95.3789V96.2812H634.711C634.742 97.5312 635.105 98.543 635.801 99.3164C636.504 100.082 637.395 100.465 638.473 100.465C639.238 100.465 639.887 100.309 640.418 99.9961C640.949 99.6836 641.414 99.2695 641.812 98.7539L643.137 99.7852C642.074 101.418 640.48 102.234 638.355 102.234ZM638.086 90.8672C637.211 90.8672 636.477 91.1875 635.883 91.8281C635.289 92.4609 634.922 93.3516 634.781 94.5H641.133V94.3359C641.07 93.2344 640.773 92.3828 640.242 91.7812C639.711 91.1719 638.992 90.8672 638.086 90.8672ZM654.363 95.3203V102H652.113V84.9375H658.406C660.273 84.9375 661.734 85.4141 662.789 86.3672C663.852 87.3203 664.383 88.582 664.383 90.1523C664.383 91.8086 663.863 93.0859 662.824 93.9844C661.793 94.875 660.312 95.3203 658.383 95.3203H654.363ZM654.363 93.4805H658.406C659.609 93.4805 660.531 93.1992 661.172 92.6367C661.812 92.0664 662.133 91.2461 662.133 90.1758C662.133 89.1602 661.812 88.3477 661.172 87.7383C660.531 87.1289 659.652 86.8125 658.535 86.7891H654.363V93.4805ZM674.602 102C674.477 101.75 674.375 101.305 674.297 100.664C673.289 101.711 672.086 102.234 670.688 102.234C669.438 102.234 668.41 101.883 667.605 101.18C666.809 100.469 666.41 99.5703 666.41 98.4844C666.41 97.1641 666.91 96.1406 667.91 95.4141C668.918 94.6797 670.332 94.3125 672.152 94.3125H674.262V93.3164C674.262 92.5586 674.035 91.957 673.582 91.5117C673.129 91.0586 672.461 90.832 671.578 90.832C670.805 90.832 670.156 91.0273 669.633 91.418C669.109 91.8086 668.848 92.2812 668.848 92.8359H666.668C666.668 92.2031 666.891 91.5938 667.336 91.0078C667.789 90.4141 668.398 89.9453 669.164 89.6016C669.938 89.2578 670.785 89.0859 671.707 89.0859C673.168 89.0859 674.312 89.4531 675.141 90.1875C675.969 90.9141 676.398 91.918 676.43 93.1992V99.0352C676.43 100.199 676.578 101.125 676.875 101.812V102H674.602ZM671.004 100.348C671.684 100.348 672.328 100.172 672.938 99.8203C673.547 99.4688 673.988 99.0117 674.262 98.4492V95.8477H672.562C669.906 95.8477 668.578 96.625 668.578 98.1797C668.578 98.8594 668.805 99.3906 669.258 99.7734C669.711 100.156 670.293 100.348 671.004 100.348ZM679.312 95.5547C679.312 93.5781 679.77 92.0078 680.684 90.8438C681.598 89.6719 682.809 89.0859 684.316 89.0859C685.863 89.0859 687.07 89.6328 687.938 90.7266L688.043 89.3203H690.023V101.695C690.023 103.336 689.535 104.629 688.559 105.574C687.59 106.52 686.285 106.992 684.645 106.992C683.73 106.992 682.836 106.797 681.961 106.406C681.086 106.016 680.418 105.48 679.957 104.801L681.082 103.5C682.012 104.648 683.148 105.223 684.492 105.223C685.547 105.223 686.367 104.926 686.953 104.332C687.547 103.738 687.844 102.902 687.844 101.824V100.734C686.977 101.734 685.793 102.234 684.293 102.234C682.809 102.234 681.605 101.637 680.684 100.441C679.77 99.2461 679.312 97.6172 679.312 95.5547ZM681.492 95.8008C681.492 97.2305 681.785 98.3555 682.371 99.1758C682.957 99.9883 683.777 100.395 684.832 100.395C686.199 100.395 687.203 99.7734 687.844 98.5312V92.7422C687.18 91.5312 686.184 90.9258 684.855 90.9258C683.801 90.9258 682.977 91.3359 682.383 92.1562C681.789 92.9766 681.492 94.1914 681.492 95.8008ZM698.566 102.234C696.848 102.234 695.449 101.672 694.371 100.547C693.293 99.4141 692.754 97.9023 692.754 96.0117V95.6133C692.754 94.3555 692.992 93.2344 693.469 92.25C693.953 91.2578 694.625 90.4844 695.484 89.9297C696.352 89.3672 697.289 89.0859 698.297 89.0859C699.945 89.0859 701.227 89.6289 702.141 90.7148C703.055 91.8008 703.512 93.3555 703.512 95.3789V96.2812H694.922C694.953 97.5312 695.316 98.543 696.012 99.3164C696.715 100.082 697.605 100.465 698.684 100.465C699.449 100.465 700.098 100.309 700.629 99.9961C701.16 99.6836 701.625 99.2695 702.023 98.7539L703.348 99.7852C702.285 101.418 700.691 102.234 698.566 102.234ZM698.297 90.8672C697.422 90.8672 696.688 91.1875 696.094 91.8281C695.5 92.4609 695.133 93.3516 694.992 94.5H701.344V94.3359C701.281 93.2344 700.984 92.3828 700.453 91.7812C699.922 91.1719 699.203 90.8672 698.297 90.8672Z" fill="white"/>
<rect x="240" y="293" width="204" height="67" rx="24" fill="#88498F"/>
<path d="M267.844 333.16H275.93V335H265.582V317.938H267.844V333.16ZM277.582 328.543C277.582 327.301 277.824 326.184 278.309 325.191C278.801 324.199 279.48 323.434 280.348 322.895C281.223 322.355 282.219 322.086 283.336 322.086C285.062 322.086 286.457 322.684 287.52 323.879C288.59 325.074 289.125 326.664 289.125 328.648V328.801C289.125 330.035 288.887 331.145 288.41 332.129C287.941 333.105 287.266 333.867 286.383 334.414C285.508 334.961 284.5 335.234 283.359 335.234C281.641 335.234 280.246 334.637 279.176 333.441C278.113 332.246 277.582 330.664 277.582 328.695V328.543ZM279.762 328.801C279.762 330.207 280.086 331.336 280.734 332.188C281.391 333.039 282.266 333.465 283.359 333.465C284.461 333.465 285.336 333.035 285.984 332.176C286.633 331.309 286.957 330.098 286.957 328.543C286.957 327.152 286.625 326.027 285.961 325.168C285.305 324.301 284.43 323.867 283.336 323.867C282.266 323.867 281.402 324.293 280.746 325.145C280.09 325.996 279.762 327.215 279.762 328.801ZM291.328 328.555C291.328 326.578 291.785 325.008 292.699 323.844C293.613 322.672 294.824 322.086 296.332 322.086C297.879 322.086 299.086 322.633 299.953 323.727L300.059 322.32H302.039V334.695C302.039 336.336 301.551 337.629 300.574 338.574C299.605 339.52 298.301 339.992 296.66 339.992C295.746 339.992 294.852 339.797 293.977 339.406C293.102 339.016 292.434 338.48 291.973 337.801L293.098 336.5C294.027 337.648 295.164 338.223 296.508 338.223C297.562 338.223 298.383 337.926 298.969 337.332C299.562 336.738 299.859 335.902 299.859 334.824V333.734C298.992 334.734 297.809 335.234 296.309 335.234C294.824 335.234 293.621 334.637 292.699 333.441C291.785 332.246 291.328 330.617 291.328 328.555ZM293.508 328.801C293.508 330.23 293.801 331.355 294.387 332.176C294.973 332.988 295.793 333.395 296.848 333.395C298.215 333.395 299.219 332.773 299.859 331.531V325.742C299.195 324.531 298.199 323.926 296.871 323.926C295.816 323.926 294.992 324.336 294.398 325.156C293.805 325.977 293.508 327.191 293.508 328.801ZM313.629 335H311.461V322.32H313.629V335ZM311.285 318.957C311.285 318.605 311.391 318.309 311.602 318.066C311.82 317.824 312.141 317.703 312.562 317.703C312.984 317.703 313.305 317.824 313.523 318.066C313.742 318.309 313.852 318.605 313.852 318.957C313.852 319.309 313.742 319.602 313.523 319.836C313.305 320.07 312.984 320.188 312.562 320.188C312.141 320.188 311.82 320.07 311.602 319.836C311.391 319.602 311.285 319.309 311.285 318.957ZM319.16 322.32L319.23 323.914C320.199 322.695 321.465 322.086 323.027 322.086C325.707 322.086 327.059 323.598 327.082 326.621V335H324.914V326.609C324.906 325.695 324.695 325.02 324.281 324.582C323.875 324.145 323.238 323.926 322.371 323.926C321.668 323.926 321.051 324.113 320.52 324.488C319.988 324.863 319.574 325.355 319.277 325.965V335H317.109V322.32H319.16ZM330.785 336.465H328.922L336.047 317.938H337.898L330.785 336.465ZM345.609 327.395C343.68 326.84 342.273 326.16 341.391 325.355C340.516 324.543 340.078 323.543 340.078 322.355C340.078 321.012 340.613 319.902 341.684 319.027C342.762 318.145 344.16 317.703 345.879 317.703C347.051 317.703 348.094 317.93 349.008 318.383C349.93 318.836 350.641 319.461 351.141 320.258C351.648 321.055 351.902 321.926 351.902 322.871H349.641C349.641 321.84 349.312 321.031 348.656 320.445C348 319.852 347.074 319.555 345.879 319.555C344.77 319.555 343.902 319.801 343.277 320.293C342.66 320.777 342.352 321.453 342.352 322.32C342.352 323.016 342.645 323.605 343.23 324.09C343.824 324.566 344.828 325.004 346.242 325.402C347.664 325.801 348.773 326.242 349.57 326.727C350.375 327.203 350.969 327.762 351.352 328.402C351.742 329.043 351.938 329.797 351.938 330.664C351.938 332.047 351.398 333.156 350.32 333.992C349.242 334.82 347.801 335.234 345.996 335.234C344.824 335.234 343.73 335.012 342.715 334.566C341.699 334.113 340.914 333.496 340.359 332.715C339.812 331.934 339.539 331.047 339.539 330.055H341.801C341.801 331.086 342.18 331.902 342.938 332.504C343.703 333.098 344.723 333.395 345.996 333.395C347.184 333.395 348.094 333.152 348.727 332.668C349.359 332.184 349.676 331.523 349.676 330.688C349.676 329.852 349.383 329.207 348.797 328.754C348.211 328.293 347.148 327.84 345.609 327.395ZM356.848 335H354.68V322.32H356.848V335ZM354.504 318.957C354.504 318.605 354.609 318.309 354.82 318.066C355.039 317.824 355.359 317.703 355.781 317.703C356.203 317.703 356.523 317.824 356.742 318.066C356.961 318.309 357.07 318.605 357.07 318.957C357.07 319.309 356.961 319.602 356.742 319.836C356.523 320.07 356.203 320.188 355.781 320.188C355.359 320.188 355.039 320.07 354.82 319.836C354.609 319.602 354.504 319.309 354.504 318.957ZM359.812 328.555C359.812 326.578 360.27 325.008 361.184 323.844C362.098 322.672 363.309 322.086 364.816 322.086C366.363 322.086 367.57 322.633 368.438 323.727L368.543 322.32H370.523V334.695C370.523 336.336 370.035 337.629 369.059 338.574C368.09 339.52 366.785 339.992 365.145 339.992C364.23 339.992 363.336 339.797 362.461 339.406C361.586 339.016 360.918 338.48 360.457 337.801L361.582 336.5C362.512 337.648 363.648 338.223 364.992 338.223C366.047 338.223 366.867 337.926 367.453 337.332C368.047 336.738 368.344 335.902 368.344 334.824V333.734C367.477 334.734 366.293 335.234 364.793 335.234C363.309 335.234 362.105 334.637 361.184 333.441C360.27 332.246 359.812 330.617 359.812 328.555ZM361.992 328.801C361.992 330.23 362.285 331.355 362.871 332.176C363.457 332.988 364.277 333.395 365.332 333.395C366.699 333.395 367.703 332.773 368.344 331.531V325.742C367.68 324.531 366.684 323.926 365.355 323.926C364.301 323.926 363.477 324.336 362.883 325.156C362.289 325.977 361.992 327.191 361.992 328.801ZM375.855 322.32L375.926 323.914C376.895 322.695 378.16 322.086 379.723 322.086C382.402 322.086 383.754 323.598 383.777 326.621V335H381.609V326.609C381.602 325.695 381.391 325.02 380.977 324.582C380.57 324.145 379.934 323.926 379.066 323.926C378.363 323.926 377.746 324.113 377.215 324.488C376.684 324.863 376.27 325.355 375.973 325.965V335H373.805V322.32H375.855ZM405.352 317.938V329.539C405.344 331.148 404.836 332.465 403.828 333.488C402.828 334.512 401.469 335.086 399.75 335.211L399.152 335.234C397.285 335.234 395.797 334.73 394.688 333.723C393.578 332.715 393.016 331.328 393 329.562V317.938H395.227V329.492C395.227 330.727 395.566 331.688 396.246 332.375C396.926 333.055 397.895 333.395 399.152 333.395C400.426 333.395 401.398 333.055 402.07 332.375C402.75 331.695 403.09 330.738 403.09 329.504V317.938H405.352ZM419.273 328.801C419.273 330.73 418.832 332.285 417.949 333.465C417.066 334.645 415.871 335.234 414.363 335.234C412.824 335.234 411.613 334.746 410.73 333.77V339.875H408.562V322.32H410.543L410.648 323.727C411.531 322.633 412.758 322.086 414.328 322.086C415.852 322.086 417.055 322.66 417.938 323.809C418.828 324.957 419.273 326.555 419.273 328.602V328.801ZM417.105 328.555C417.105 327.125 416.801 325.996 416.191 325.168C415.582 324.34 414.746 323.926 413.684 323.926C412.371 323.926 411.387 324.508 410.73 325.672V331.73C411.379 332.887 412.371 333.465 413.707 333.465C414.746 333.465 415.57 333.055 416.18 332.234C416.797 331.406 417.105 330.18 417.105 328.555Z" fill="white"/>
</svg>
