<svg width="1008" height="136" viewBox="0 0 1008 136" fill="none" xmlns="http://www.w3.org/2000/svg">
<path d="M250 65.5C248.619 65.5 247.5 66.6193 247.5 68C247.5 69.3807 248.619 70.5 250 70.5L250 65.5ZM252.768 69.7678C253.744 68.7915 253.744 67.2085 252.768 66.2322L236.858 50.3223C235.882 49.346 234.299 49.346 233.322 50.3223C232.346 51.2986 232.346 52.8816 233.322 53.8579L247.464 68L233.322 82.1421C232.346 83.1184 232.346 84.7014 233.322 85.6777C234.299 86.654 235.882 86.654 236.858 85.6777L252.768 69.7678ZM250 70.5L251 70.5L251 65.5L250 65.5L250 70.5Z" fill="#FF6542"/>
<path d="M511 65.5C509.619 65.5 508.5 66.6193 508.5 68C508.5 69.3807 509.619 70.5 511 70.5L511 65.5ZM513.768 69.7678C514.744 68.7915 514.744 67.2085 513.768 66.2322L497.858 50.3223C496.882 49.346 495.299 49.346 494.322 50.3223C493.346 51.2986 493.346 52.8816 494.322 53.8579L508.464 68L494.322 82.1421C493.346 83.1184 493.346 84.7014 494.322 85.6777C495.299 86.654 496.882 86.654 497.858 85.6777L513.768 69.7678ZM511 70.5L512 70.5L512 65.5L511 65.5L511 70.5Z" fill="#FF6542"/>
<path d="M772 65.5C770.619 65.5 769.5 66.6193 769.5 68C769.5 69.3807 770.619 70.5 772 70.5L772 65.5ZM774.768 69.7678C775.744 68.7915 775.744 67.2085 774.768 66.2322L758.858 50.3223C757.882 49.346 756.299 49.346 755.322 50.3223C754.346 51.2986 754.346 52.8816 755.322 53.8579L769.464 68L755.322 82.1421C754.346 83.1184 754.346 84.7014 755.322 85.6777C756.299 86.654 757.882 86.654 758.858 85.6777L774.768 69.7678ZM772 70.5L773 70.5L773 65.5L772 65.5L772 70.5Z" fill="#FF6542"/>
<rect width="225" height="136" rx="24" fill="#88498F"/>
<path d="M21.6055 48H19.3555V30.9375H21.6055V48ZM27.4414 35.3203L27.5117 36.9141C28.4805 35.6953 29.7461 35.0859 31.3086 35.0859C33.9883 35.0859 35.3398 36.5977 35.3633 39.6211V48H33.1953V39.6094C33.1875 38.6953 32.9766 38.0195 32.5625 37.582C32.1562 37.1445 31.5195 36.9258 30.6523 36.9258C29.9492 36.9258 29.332 37.1133 28.8008 37.4883C28.2695 37.8633 27.8555 38.3555 27.5586 38.9648V48H25.3906V35.3203H27.4414ZM49.3438 41.8008C49.3438 43.7305 48.9023 45.2852 48.0195 46.4648C47.1367 47.6445 45.9414 48.2344 44.4336 48.2344C42.8945 48.2344 41.6836 47.7461 40.8008 46.7695V52.875H38.6328V35.3203H40.6133L40.7188 36.7266C41.6016 35.6328 42.8281 35.0859 44.3984 35.0859C45.9219 35.0859 47.125 35.6602 48.0078 36.8086C48.8984 37.957 49.3438 39.5547 49.3438 41.6016V41.8008ZM47.1758 41.5547C47.1758 40.125 46.8711 38.9961 46.2617 38.168C45.6523 37.3398 44.8164 36.9258 43.7539 36.9258C42.4414 36.9258 41.457 37.5078 40.8008 38.6719V44.7305C41.4492 45.8867 42.4414 46.4648 43.7773 46.4648C44.8164 46.4648 45.6406 46.0547 46.25 45.2344C46.8672 44.4062 47.1758 43.1797 47.1758 41.5547ZM59.9375 46.7461C59.0938 47.7383 57.8555 48.2344 56.2227 48.2344C54.8711 48.2344 53.8398 47.8438 53.1289 47.0625C52.4258 46.2734 52.0703 45.1094 52.0625 43.5703V35.3203H54.2305V43.5117C54.2305 45.4336 55.0117 46.3945 56.5742 46.3945C58.2305 46.3945 59.332 45.7773 59.8789 44.543V35.3203H62.0469V48H59.9844L59.9375 46.7461ZM68.293 32.25V35.3203H70.6602V36.9961H68.293V44.8594C68.293 45.3672 68.3984 45.75 68.6094 46.0078C68.8203 46.2578 69.1797 46.3828 69.6875 46.3828C69.9375 46.3828 70.2812 46.3359 70.7188 46.2422V48C70.1484 48.1562 69.5938 48.2344 69.0547 48.2344C68.0859 48.2344 67.3555 47.9414 66.8633 47.3555C66.3711 46.7695 66.125 45.9375 66.125 44.8594V36.9961H63.8164V35.3203H66.125V32.25H68.293ZM92.6094 48H90.3477V40.1133H81.7461V48H79.4961V30.9375H81.7461V38.2734H90.3477V30.9375H92.6094V48ZM104.094 46.7461C103.25 47.7383 102.012 48.2344 100.379 48.2344C99.0273 48.2344 97.9961 47.8438 97.2852 47.0625C96.582 46.2734 96.2266 45.1094 96.2188 43.5703V35.3203H98.3867V43.5117C98.3867 45.4336 99.168 46.3945 100.73 46.3945C102.387 46.3945 103.488 45.7773 104.035 44.543V35.3203H106.203V48H104.141L104.094 46.7461ZM111.559 35.3203L111.629 36.9141C112.598 35.6953 113.863 35.0859 115.426 35.0859C118.105 35.0859 119.457 36.5977 119.48 39.6211V48H117.312V39.6094C117.305 38.6953 117.094 38.0195 116.68 37.582C116.273 37.1445 115.637 36.9258 114.77 36.9258C114.066 36.9258 113.449 37.1133 112.918 37.4883C112.387 37.8633 111.973 38.3555 111.676 38.9648V48H109.508V35.3203H111.559ZM122.234 41.5547C122.234 39.5781 122.691 38.0078 123.605 36.8438C124.52 35.6719 125.73 35.0859 127.238 35.0859C128.785 35.0859 129.992 35.6328 130.859 36.7266L130.965 35.3203H132.945V47.6953C132.945 49.3359 132.457 50.6289 131.48 51.5742C130.512 52.5195 129.207 52.9922 127.566 52.9922C126.652 52.9922 125.758 52.7969 124.883 52.4062C124.008 52.0156 123.34 51.4805 122.879 50.8008L124.004 49.5C124.934 50.6484 126.07 51.2227 127.414 51.2227C128.469 51.2227 129.289 50.9258 129.875 50.332C130.469 49.7383 130.766 48.9023 130.766 47.8242V46.7344C129.898 47.7344 128.715 48.2344 127.215 48.2344C125.73 48.2344 124.527 47.6367 123.605 46.4414C122.691 45.2461 122.234 43.6172 122.234 41.5547ZM124.414 41.8008C124.414 43.2305 124.707 44.3555 125.293 45.1758C125.879 45.9883 126.699 46.3945 127.754 46.3945C129.121 46.3945 130.125 45.7734 130.766 44.5312V38.7422C130.102 37.5312 129.105 36.9258 127.777 36.9258C126.723 36.9258 125.898 37.3359 125.305 38.1562C124.711 38.9766 124.414 40.1914 124.414 41.8008ZM141.488 48.2344C139.77 48.2344 138.371 47.6719 137.293 46.5469C136.215 45.4141 135.676 43.9023 135.676 42.0117V41.6133C135.676 40.3555 135.914 39.2344 136.391 38.25C136.875 37.2578 137.547 36.4844 138.406 35.9297C139.273 35.3672 140.211 35.0859 141.219 35.0859C142.867 35.0859 144.148 35.6289 145.062 36.7148C145.977 37.8008 146.434 39.3555 146.434 41.3789V42.2812H137.844C137.875 43.5312 138.238 44.543 138.934 45.3164C139.637 46.082 140.527 46.4648 141.605 46.4648C142.371 46.4648 143.02 46.3086 143.551 45.9961C144.082 45.6836 144.547 45.2695 144.945 44.7539L146.27 45.7852C145.207 47.418 143.613 48.2344 141.488 48.2344ZM141.219 36.8672C140.344 36.8672 139.609 37.1875 139.016 37.8281C138.422 38.4609 138.055 39.3516 137.914 40.5H144.266V40.3359C144.203 39.2344 143.906 38.3828 143.375 37.7812C142.844 37.1719 142.125 36.8672 141.219 36.8672ZM155.082 37.2656C154.754 37.2109 154.398 37.1836 154.016 37.1836C152.594 37.1836 151.629 37.7891 151.121 39V48H148.953V35.3203H151.062L151.098 36.7852C151.809 35.6523 152.816 35.0859 154.121 35.0859C154.543 35.0859 154.863 35.1406 155.082 35.25V37.2656ZM170.422 44.6367C170.422 44.0508 170.199 43.5977 169.754 43.2773C169.316 42.9492 168.547 42.668 167.445 42.4336C166.352 42.1992 165.48 41.918 164.832 41.5898C164.191 41.2617 163.715 40.8711 163.402 40.418C163.098 39.9648 162.945 39.4258 162.945 38.8008C162.945 37.7617 163.383 36.8828 164.258 36.1641C165.141 35.4453 166.266 35.0859 167.633 35.0859C169.07 35.0859 170.234 35.457 171.125 36.1992C172.023 36.9414 172.473 37.8906 172.473 39.0469H170.293C170.293 38.4531 170.039 37.9414 169.531 37.5117C169.031 37.082 168.398 36.8672 167.633 36.8672C166.844 36.8672 166.227 37.0391 165.781 37.3828C165.336 37.7266 165.113 38.1758 165.113 38.7305C165.113 39.2539 165.32 39.6484 165.734 39.9141C166.148 40.1797 166.895 40.4336 167.973 40.6758C169.059 40.918 169.938 41.207 170.609 41.543C171.281 41.8789 171.777 42.2852 172.098 42.7617C172.426 43.2305 172.59 43.8047 172.59 44.4844C172.59 45.6172 172.137 46.5273 171.23 47.2148C170.324 47.8945 169.148 48.2344 167.703 48.2344C166.688 48.2344 165.789 48.0547 165.008 47.6953C164.227 47.3359 163.613 46.8359 163.168 46.1953C162.73 45.5469 162.512 44.8477 162.512 44.0977H164.68C164.719 44.8242 165.008 45.4023 165.547 45.832C166.094 46.2539 166.812 46.4648 167.703 46.4648C168.523 46.4648 169.18 46.3008 169.672 45.9727C170.172 45.6367 170.422 45.1914 170.422 44.6367ZM186.125 41.8008C186.125 43.7305 185.684 45.2852 184.801 46.4648C183.918 47.6445 182.723 48.2344 181.215 48.2344C179.676 48.2344 178.465 47.7461 177.582 46.7695V52.875H175.414V35.3203H177.395L177.5 36.7266C178.383 35.6328 179.609 35.0859 181.18 35.0859C182.703 35.0859 183.906 35.6602 184.789 36.8086C185.68 37.957 186.125 39.5547 186.125 41.6016V41.8008ZM183.957 41.5547C183.957 40.125 183.652 38.9961 183.043 38.168C182.434 37.3398 181.598 36.9258 180.535 36.9258C179.223 36.9258 178.238 37.5078 177.582 38.6719V44.7305C178.23 45.8867 179.223 46.4648 180.559 46.4648C181.598 46.4648 182.422 46.0547 183.031 45.2344C183.648 44.4062 183.957 43.1797 183.957 41.5547ZM188.316 41.543C188.316 40.3008 188.559 39.1836 189.043 38.1914C189.535 37.1992 190.215 36.4336 191.082 35.8945C191.957 35.3555 192.953 35.0859 194.07 35.0859C195.797 35.0859 197.191 35.6836 198.254 36.8789C199.324 38.0742 199.859 39.6641 199.859 41.6484V41.8008C199.859 43.0352 199.621 44.1445 199.145 45.1289C198.676 46.1055 198 46.8672 197.117 47.4141C196.242 47.9609 195.234 48.2344 194.094 48.2344C192.375 48.2344 190.98 47.6367 189.91 46.4414C188.848 45.2461 188.316 43.6641 188.316 41.6953V41.543ZM190.496 41.8008C190.496 43.207 190.82 44.3359 191.469 45.1875C192.125 46.0391 193 46.4648 194.094 46.4648C195.195 46.4648 196.07 46.0352 196.719 45.1758C197.367 44.3086 197.691 43.0977 197.691 41.543C197.691 40.1523 197.359 39.0273 196.695 38.168C196.039 37.3008 195.164 36.8672 194.07 36.8672C193 36.8672 192.137 37.293 191.48 38.1445C190.824 38.9961 190.496 40.2148 190.496 41.8008ZM205.52 32.25V35.3203H207.887V36.9961H205.52V44.8594C205.52 45.3672 205.625 45.75 205.836 46.0078C206.047 46.2578 206.406 46.3828 206.914 46.3828C207.164 46.3828 207.508 46.3359 207.945 46.2422V48C207.375 48.1562 206.82 48.2344 206.281 48.2344C205.312 48.2344 204.582 47.9414 204.09 47.3555C203.598 46.7695 203.352 45.9375 203.352 44.8594V36.9961H201.043V35.3203H203.352V32.25H205.52ZM38.5508 76C38.4258 75.75 38.3242 75.3047 38.2461 74.6641C37.2383 75.7109 36.0352 76.2344 34.6367 76.2344C33.3867 76.2344 32.3594 75.8828 31.5547 75.1797C30.7578 74.4688 30.3594 73.5703 30.3594 72.4844C30.3594 71.1641 30.8594 70.1406 31.8594 69.4141C32.8672 68.6797 34.2812 68.3125 36.1016 68.3125H38.2109V67.3164C38.2109 66.5586 37.9844 65.957 37.5312 65.5117C37.0781 65.0586 36.4102 64.832 35.5273 64.832C34.7539 64.832 34.1055 65.0273 33.582 65.418C33.0586 65.8086 32.7969 66.2812 32.7969 66.8359H30.6172C30.6172 66.2031 30.8398 65.5938 31.2852 65.0078C31.7383 64.4141 32.3477 63.9453 33.1133 63.6016C33.8867 63.2578 34.7344 63.0859 35.6562 63.0859C37.1172 63.0859 38.2617 63.4531 39.0898 64.1875C39.918 64.9141 40.3477 65.918 40.3789 67.1992V73.0352C40.3789 74.1992 40.5273 75.125 40.8242 75.8125V76H38.5508ZM34.9531 74.3477C35.6328 74.3477 36.2773 74.1719 36.8867 73.8203C37.4961 73.4688 37.9375 73.0117 38.2109 72.4492V69.8477H36.5117C33.8555 69.8477 32.5273 70.625 32.5273 72.1797C32.5273 72.8594 32.7539 73.3906 33.207 73.7734C33.6602 74.1562 34.2422 74.3477 34.9531 74.3477ZM45.8281 63.3203L45.8984 64.9141C46.8672 63.6953 48.1328 63.0859 49.6953 63.0859C52.375 63.0859 53.7266 64.5977 53.75 67.6211V76H51.582V67.6094C51.5742 66.6953 51.3633 66.0195 50.9492 65.582C50.543 65.1445 49.9062 64.9258 49.0391 64.9258C48.3359 64.9258 47.7188 65.1133 47.1875 65.4883C46.6562 65.8633 46.2422 66.3555 45.9453 66.9648V76H43.7773V63.3203H45.8281ZM56.4922 69.5547C56.4922 67.6094 56.9531 66.0469 57.875 64.8672C58.7969 63.6797 60.0039 63.0859 61.4961 63.0859C62.9805 63.0859 64.1562 63.5938 65.0234 64.6094V58H67.1914V76H65.1992L65.0938 74.6406C64.2266 75.7031 63.0195 76.2344 61.4727 76.2344C60.0039 76.2344 58.8047 75.6328 57.875 74.4297C56.9531 73.2266 56.4922 71.6562 56.4922 69.7188V69.5547ZM58.6602 69.8008C58.6602 71.2383 58.957 72.3633 59.5508 73.1758C60.1445 73.9883 60.9648 74.3945 62.0117 74.3945C63.3867 74.3945 64.3906 73.7773 65.0234 72.543V66.7188C64.375 65.5234 63.3789 64.9258 62.0352 64.9258C60.9727 64.9258 60.1445 65.3359 59.5508 66.1562C58.957 66.9766 58.6602 68.1914 58.6602 69.8008ZM89.9727 76H87.7109L79.1211 62.8516V76H76.8594V58.9375H79.1211L87.7344 72.1445V58.9375H89.9727V76ZM106.566 73.7617C105.988 74.5898 105.18 75.2109 104.141 75.625C103.109 76.0312 101.906 76.2344 100.531 76.2344C99.1406 76.2344 97.9062 75.9102 96.8281 75.2617C95.75 74.6055 94.9141 73.6758 94.3203 72.4727C93.7344 71.2695 93.4336 69.875 93.418 68.2891V66.8008C93.418 64.2305 94.0156 62.2383 95.2109 60.8242C96.4141 59.4102 98.1016 58.7031 100.273 58.7031C102.055 58.7031 103.488 59.1602 104.574 60.0742C105.66 60.9805 106.324 62.2695 106.566 63.9414H104.316C103.895 61.6836 102.551 60.5547 100.285 60.5547C98.7773 60.5547 97.6328 61.0859 96.8516 62.1484C96.0781 63.2031 95.6875 64.7344 95.6797 66.7422V68.1367C95.6797 70.0508 96.1172 71.5742 96.9922 72.707C97.8672 73.832 99.0508 74.3945 100.543 74.3945C101.387 74.3945 102.125 74.3008 102.758 74.1133C103.391 73.9258 103.914 73.6094 104.328 73.1641V69.332H100.379V67.5039H106.566V73.7617ZM123.453 68.0195C123.453 69.6914 123.172 71.1523 122.609 72.4023C122.047 73.6445 121.25 74.5938 120.219 75.25C119.188 75.9062 117.984 76.2344 116.609 76.2344C115.266 76.2344 114.074 75.9062 113.035 75.25C111.996 74.5859 111.188 73.6445 110.609 72.4258C110.039 71.1992 109.746 69.7812 109.73 68.1719V66.9414C109.73 65.3008 110.016 63.8516 110.586 62.5938C111.156 61.3359 111.961 60.375 113 59.7109C114.047 59.0391 115.242 58.7031 116.586 58.7031C117.953 58.7031 119.156 59.0352 120.195 59.6992C121.242 60.3555 122.047 61.3125 122.609 62.5703C123.172 63.8203 123.453 65.2773 123.453 66.9414V68.0195ZM121.215 66.918C121.215 64.8945 120.809 63.3438 119.996 62.2656C119.184 61.1797 118.047 60.6367 116.586 60.6367C115.164 60.6367 114.043 61.1797 113.223 62.2656C112.41 63.3438 111.992 64.8438 111.969 66.7656V68.0195C111.969 69.9805 112.379 71.5234 113.199 72.6484C114.027 73.7656 115.164 74.3242 116.609 74.3242C118.062 74.3242 119.188 73.7969 119.984 72.7422C120.781 71.6797 121.191 70.1602 121.215 68.1836V66.918ZM134.609 64.8555C135.57 63.6758 136.82 63.0859 138.359 63.0859C141.039 63.0859 142.391 64.5977 142.414 67.6211V76H140.246V67.6094C140.238 66.6953 140.027 66.0195 139.613 65.582C139.207 65.1445 138.57 64.9258 137.703 64.9258C137 64.9258 136.383 65.1133 135.852 65.4883C135.32 65.8633 134.906 66.3555 134.609 66.9648V76H132.441V58H134.609V64.8555ZM150.922 76.2344C149.203 76.2344 147.805 75.6719 146.727 74.5469C145.648 73.4141 145.109 71.9023 145.109 70.0117V69.6133C145.109 68.3555 145.348 67.2344 145.824 66.25C146.309 65.2578 146.98 64.4844 147.84 63.9297C148.707 63.3672 149.645 63.0859 150.652 63.0859C152.301 63.0859 153.582 63.6289 154.496 64.7148C155.41 65.8008 155.867 67.3555 155.867 69.3789V70.2812H147.277C147.309 71.5312 147.672 72.543 148.367 73.3164C149.07 74.082 149.961 74.4648 151.039 74.4648C151.805 74.4648 152.453 74.3086 152.984 73.9961C153.516 73.6836 153.98 73.2695 154.379 72.7539L155.703 73.7852C154.641 75.418 153.047 76.2344 150.922 76.2344ZM150.652 64.8672C149.777 64.8672 149.043 65.1875 148.449 65.8281C147.855 66.4609 147.488 67.3516 147.348 68.5H153.699V68.3359C153.637 67.2344 153.34 66.3828 152.809 65.7812C152.277 65.1719 151.559 64.8672 150.652 64.8672ZM160.742 76H158.574V58H160.742V76ZM174.934 69.8008C174.934 71.7305 174.492 73.2852 173.609 74.4648C172.727 75.6445 171.531 76.2344 170.023 76.2344C168.484 76.2344 167.273 75.7461 166.391 74.7695V80.875H164.223V63.3203H166.203L166.309 64.7266C167.191 63.6328 168.418 63.0859 169.988 63.0859C171.512 63.0859 172.715 63.6602 173.598 64.8086C174.488 65.957 174.934 67.5547 174.934 69.6016V69.8008ZM172.766 69.5547C172.766 68.125 172.461 66.9961 171.852 66.168C171.242 65.3398 170.406 64.9258 169.344 64.9258C168.031 64.9258 167.047 65.5078 166.391 66.6719V72.7305C167.039 73.8867 168.031 74.4648 169.367 74.4648C170.406 74.4648 171.23 74.0547 171.84 73.2344C172.457 72.4062 172.766 71.1797 172.766 69.5547ZM182.961 76.2344C181.242 76.2344 179.844 75.6719 178.766 74.5469C177.688 73.4141 177.148 71.9023 177.148 70.0117V69.6133C177.148 68.3555 177.387 67.2344 177.863 66.25C178.348 65.2578 179.02 64.4844 179.879 63.9297C180.746 63.3672 181.684 63.0859 182.691 63.0859C184.34 63.0859 185.621 63.6289 186.535 64.7148C187.449 65.8008 187.906 67.3555 187.906 69.3789V70.2812H179.316C179.348 71.5312 179.711 72.543 180.406 73.3164C181.109 74.082 182 74.4648 183.078 74.4648C183.844 74.4648 184.492 74.3086 185.023 73.9961C185.555 73.6836 186.02 73.2695 186.418 72.7539L187.742 73.7852C186.68 75.418 185.086 76.2344 182.961 76.2344ZM182.691 64.8672C181.816 64.8672 181.082 65.1875 180.488 65.8281C179.895 66.4609 179.527 67.3516 179.387 68.5H185.738V68.3359C185.676 67.2344 185.379 66.3828 184.848 65.7812C184.316 65.1719 183.598 64.8672 182.691 64.8672ZM196.555 65.2656C196.227 65.2109 195.871 65.1836 195.488 65.1836C194.066 65.1836 193.102 65.7891 192.594 67V76H190.426V63.3203H192.535L192.57 64.7852C193.281 63.6523 194.289 63.0859 195.594 63.0859C196.016 63.0859 196.336 63.1406 196.555 63.25V65.2656ZM78.5 97.5547C78.5 95.6094 78.9609 94.0469 79.8828 92.8672C80.8047 91.6797 82.0117 91.0859 83.5039 91.0859C84.9883 91.0859 86.1641 91.5938 87.0312 92.6094V86H89.1992V104H87.207L87.1016 102.641C86.2344 103.703 85.0273 104.234 83.4805 104.234C82.0117 104.234 80.8125 103.633 79.8828 102.43C78.9609 101.227 78.5 99.6562 78.5 97.7188V97.5547ZM80.668 97.8008C80.668 99.2383 80.9648 100.363 81.5586 101.176C82.1523 101.988 82.9727 102.395 84.0195 102.395C85.3945 102.395 86.3984 101.777 87.0312 100.543V94.7188C86.3828 93.5234 85.3867 92.9258 84.043 92.9258C82.9805 92.9258 82.1523 93.3359 81.5586 94.1562C80.9648 94.9766 80.668 96.1914 80.668 97.8008ZM97.8359 104.234C96.1172 104.234 94.7188 103.672 93.6406 102.547C92.5625 101.414 92.0234 99.9023 92.0234 98.0117V97.6133C92.0234 96.3555 92.2617 95.2344 92.7383 94.25C93.2227 93.2578 93.8945 92.4844 94.7539 91.9297C95.6211 91.3672 96.5586 91.0859 97.5664 91.0859C99.2148 91.0859 100.496 91.6289 101.41 92.7148C102.324 93.8008 102.781 95.3555 102.781 97.3789V98.2812H94.1914C94.2227 99.5312 94.5859 100.543 95.2812 101.316C95.9844 102.082 96.875 102.465 97.9531 102.465C98.7188 102.465 99.3672 102.309 99.8984 101.996C100.43 101.684 100.895 101.27 101.293 100.754L102.617 101.785C101.555 103.418 99.9609 104.234 97.8359 104.234ZM97.5664 92.8672C96.6914 92.8672 95.957 93.1875 95.3633 93.8281C94.7695 94.4609 94.4023 95.3516 94.2617 96.5H100.613V96.3359C100.551 95.2344 100.254 94.3828 99.7227 93.7812C99.1914 93.1719 98.4727 92.8672 97.5664 92.8672ZM108.242 88.25V91.3203H110.609V92.9961H108.242V100.859C108.242 101.367 108.348 101.75 108.559 102.008C108.77 102.258 109.129 102.383 109.637 102.383C109.887 102.383 110.23 102.336 110.668 102.242V104C110.098 104.156 109.543 104.234 109.004 104.234C108.035 104.234 107.305 103.941 106.812 103.355C106.32 102.77 106.074 101.938 106.074 100.859V92.9961H103.766V91.3203H106.074V88.25H108.242ZM120.98 104C120.855 103.75 120.754 103.305 120.676 102.664C119.668 103.711 118.465 104.234 117.066 104.234C115.816 104.234 114.789 103.883 113.984 103.18C113.188 102.469 112.789 101.57 112.789 100.484C112.789 99.1641 113.289 98.1406 114.289 97.4141C115.297 96.6797 116.711 96.3125 118.531 96.3125H120.641V95.3164C120.641 94.5586 120.414 93.957 119.961 93.5117C119.508 93.0586 118.84 92.832 117.957 92.832C117.184 92.832 116.535 93.0273 116.012 93.418C115.488 93.8086 115.227 94.2812 115.227 94.8359H113.047C113.047 94.2031 113.27 93.5938 113.715 93.0078C114.168 92.4141 114.777 91.9453 115.543 91.6016C116.316 91.2578 117.164 91.0859 118.086 91.0859C119.547 91.0859 120.691 91.4531 121.52 92.1875C122.348 92.9141 122.777 93.918 122.809 95.1992V101.035C122.809 102.199 122.957 103.125 123.254 103.812V104H120.98ZM117.383 102.348C118.062 102.348 118.707 102.172 119.316 101.82C119.926 101.469 120.367 101.012 120.641 100.449V97.8477H118.941C116.285 97.8477 114.957 98.625 114.957 100.18C114.957 100.859 115.184 101.391 115.637 101.773C116.09 102.156 116.672 102.348 117.383 102.348ZM128.562 104H126.395V91.3203H128.562V104ZM126.219 87.957C126.219 87.6055 126.324 87.3086 126.535 87.0664C126.754 86.8242 127.074 86.7031 127.496 86.7031C127.918 86.7031 128.238 86.8242 128.457 87.0664C128.676 87.3086 128.785 87.6055 128.785 87.957C128.785 88.3086 128.676 88.6016 128.457 88.8359C128.238 89.0703 127.918 89.1875 127.496 89.1875C127.074 89.1875 126.754 89.0703 126.535 88.8359C126.324 88.6016 126.219 88.3086 126.219 87.957ZM134.398 104H132.23V86H134.398V104ZM145.262 100.637C145.262 100.051 145.039 99.5977 144.594 99.2773C144.156 98.9492 143.387 98.668 142.285 98.4336C141.191 98.1992 140.32 97.918 139.672 97.5898C139.031 97.2617 138.555 96.8711 138.242 96.418C137.938 95.9648 137.785 95.4258 137.785 94.8008C137.785 93.7617 138.223 92.8828 139.098 92.1641C139.98 91.4453 141.105 91.0859 142.473 91.0859C143.91 91.0859 145.074 91.457 145.965 92.1992C146.863 92.9414 147.312 93.8906 147.312 95.0469H145.133C145.133 94.4531 144.879 93.9414 144.371 93.5117C143.871 93.082 143.238 92.8672 142.473 92.8672C141.684 92.8672 141.066 93.0391 140.621 93.3828C140.176 93.7266 139.953 94.1758 139.953 94.7305C139.953 95.2539 140.16 95.6484 140.574 95.9141C140.988 96.1797 141.734 96.4336 142.812 96.6758C143.898 96.918 144.777 97.207 145.449 97.543C146.121 97.8789 146.617 98.2852 146.938 98.7617C147.266 99.2305 147.43 99.8047 147.43 100.484C147.43 101.617 146.977 102.527 146.07 103.215C145.164 103.895 143.988 104.234 142.543 104.234C141.527 104.234 140.629 104.055 139.848 103.695C139.066 103.336 138.453 102.836 138.008 102.195C137.57 101.547 137.352 100.848 137.352 100.098H139.52C139.559 100.824 139.848 101.402 140.387 101.832C140.934 102.254 141.652 102.465 142.543 102.465C143.363 102.465 144.02 102.301 144.512 101.973C145.012 101.637 145.262 101.191 145.262 100.637Z" fill="white"/>
<rect x="522" y="13" width="225" height="109" rx="24" fill="#88498F"/>
<path d="M562.906 54.3945C560.977 53.8398 559.57 53.1602 558.688 52.3555C557.812 51.543 557.375 50.543 557.375 49.3555C557.375 48.0117 557.91 46.9023 558.98 46.0273C560.059 45.1445 561.457 44.7031 563.176 44.7031C564.348 44.7031 565.391 44.9297 566.305 45.3828C567.227 45.8359 567.938 46.4609 568.438 47.2578C568.945 48.0547 569.199 48.9258 569.199 49.8711H566.938C566.938 48.8398 566.609 48.0312 565.953 47.4453C565.297 46.8516 564.371 46.5547 563.176 46.5547C562.066 46.5547 561.199 46.8008 560.574 47.293C559.957 47.7773 559.648 48.4531 559.648 49.3203C559.648 50.0156 559.941 50.6055 560.527 51.0898C561.121 51.5664 562.125 52.0039 563.539 52.4023C564.961 52.8008 566.07 53.2422 566.867 53.7266C567.672 54.2031 568.266 54.7617 568.648 55.4023C569.039 56.043 569.234 56.7969 569.234 57.6641C569.234 59.0469 568.695 60.1562 567.617 60.9922C566.539 61.8203 565.098 62.2344 563.293 62.2344C562.121 62.2344 561.027 62.0117 560.012 61.5664C558.996 61.1133 558.211 60.4961 557.656 59.7148C557.109 58.9336 556.836 58.0469 556.836 57.0547H559.098C559.098 58.0859 559.477 58.9023 560.234 59.5039C561 60.0977 562.02 60.3945 563.293 60.3945C564.48 60.3945 565.391 60.1523 566.023 59.668C566.656 59.1836 566.973 58.5234 566.973 57.6875C566.973 56.8516 566.68 56.207 566.094 55.7539C565.508 55.293 564.445 54.8398 562.906 54.3945ZM577.051 62.2344C575.332 62.2344 573.934 61.6719 572.855 60.5469C571.777 59.4141 571.238 57.9023 571.238 56.0117V55.6133C571.238 54.3555 571.477 53.2344 571.953 52.25C572.438 51.2578 573.109 50.4844 573.969 49.9297C574.836 49.3672 575.773 49.0859 576.781 49.0859C578.43 49.0859 579.711 49.6289 580.625 50.7148C581.539 51.8008 581.996 53.3555 581.996 55.3789V56.2812H573.406C573.438 57.5312 573.801 58.543 574.496 59.3164C575.199 60.082 576.09 60.4648 577.168 60.4648C577.934 60.4648 578.582 60.3086 579.113 59.9961C579.645 59.6836 580.109 59.2695 580.508 58.7539L581.832 59.7852C580.77 61.418 579.176 62.2344 577.051 62.2344ZM576.781 50.8672C575.906 50.8672 575.172 51.1875 574.578 51.8281C573.984 52.4609 573.617 53.3516 573.477 54.5H579.828V54.3359C579.766 53.2344 579.469 52.3828 578.938 51.7812C578.406 51.1719 577.688 50.8672 576.781 50.8672ZM586.566 49.3203L586.637 50.9141C587.605 49.6953 588.871 49.0859 590.434 49.0859C593.113 49.0859 594.465 50.5977 594.488 53.6211V62H592.32V53.6094C592.312 52.6953 592.102 52.0195 591.688 51.582C591.281 51.1445 590.645 50.9258 589.777 50.9258C589.074 50.9258 588.457 51.1133 587.926 51.4883C587.395 51.8633 586.98 52.3555 586.684 52.9648V62H584.516V49.3203H586.566ZM597.23 55.5547C597.23 53.6094 597.691 52.0469 598.613 50.8672C599.535 49.6797 600.742 49.0859 602.234 49.0859C603.719 49.0859 604.895 49.5938 605.762 50.6094V44H607.93V62H605.938L605.832 60.6406C604.965 61.7031 603.758 62.2344 602.211 62.2344C600.742 62.2344 599.543 61.6328 598.613 60.4297C597.691 59.2266 597.23 57.6562 597.23 55.7188V55.5547ZM599.398 55.8008C599.398 57.2383 599.695 58.3633 600.289 59.1758C600.883 59.9883 601.703 60.3945 602.75 60.3945C604.125 60.3945 605.129 59.7773 605.762 58.543V52.7188C605.113 51.5234 604.117 50.9258 602.773 50.9258C601.711 50.9258 600.883 51.3359 600.289 52.1562C599.695 52.9766 599.398 54.1914 599.398 55.8008ZM619.297 49.3203L619.355 50.7266C620.285 49.6328 621.539 49.0859 623.117 49.0859C624.891 49.0859 626.098 49.7656 626.738 51.125C627.16 50.5156 627.707 50.0234 628.379 49.6484C629.059 49.2734 629.859 49.0859 630.781 49.0859C633.562 49.0859 634.977 50.5586 635.023 53.5039V62H632.855V53.6328C632.855 52.7266 632.648 52.0508 632.234 51.6055C631.82 51.1523 631.125 50.9258 630.148 50.9258C629.344 50.9258 628.676 51.168 628.145 51.6523C627.613 52.1289 627.305 52.7734 627.219 53.5859V62H625.039V53.6914C625.039 51.8477 624.137 50.9258 622.332 50.9258C620.91 50.9258 619.938 51.5312 619.414 52.7422V62H617.246V49.3203H619.297ZM646.133 62C646.008 61.75 645.906 61.3047 645.828 60.6641C644.82 61.7109 643.617 62.2344 642.219 62.2344C640.969 62.2344 639.941 61.8828 639.137 61.1797C638.34 60.4688 637.941 59.5703 637.941 58.4844C637.941 57.1641 638.441 56.1406 639.441 55.4141C640.449 54.6797 641.863 54.3125 643.684 54.3125H645.793V53.3164C645.793 52.5586 645.566 51.957 645.113 51.5117C644.66 51.0586 643.992 50.832 643.109 50.832C642.336 50.832 641.688 51.0273 641.164 51.418C640.641 51.8086 640.379 52.2812 640.379 52.8359H638.199C638.199 52.2031 638.422 51.5938 638.867 51.0078C639.32 50.4141 639.93 49.9453 640.695 49.6016C641.469 49.2578 642.316 49.0859 643.238 49.0859C644.699 49.0859 645.844 49.4531 646.672 50.1875C647.5 50.9141 647.93 51.918 647.961 53.1992V59.0352C647.961 60.1992 648.109 61.125 648.406 61.8125V62H646.133ZM642.535 60.3477C643.215 60.3477 643.859 60.1719 644.469 59.8203C645.078 59.4688 645.52 59.0117 645.793 58.4492V55.8477H644.094C641.438 55.8477 640.109 56.625 640.109 58.1797C640.109 58.8594 640.336 59.3906 640.789 59.7734C641.242 60.1562 641.824 60.3477 642.535 60.3477ZM662.07 55.8008C662.07 57.7305 661.629 59.2852 660.746 60.4648C659.863 61.6445 658.668 62.2344 657.16 62.2344C655.621 62.2344 654.41 61.7461 653.527 60.7695V66.875H651.359V49.3203H653.34L653.445 50.7266C654.328 49.6328 655.555 49.0859 657.125 49.0859C658.648 49.0859 659.852 49.6602 660.734 50.8086C661.625 51.957 662.07 53.5547 662.07 55.6016V55.8008ZM659.902 55.5547C659.902 54.125 659.598 52.9961 658.988 52.168C658.379 51.3398 657.543 50.9258 656.48 50.9258C655.168 50.9258 654.184 51.5078 653.527 52.6719V58.7305C654.176 59.8867 655.168 60.4648 656.504 60.4648C657.543 60.4648 658.367 60.0547 658.977 59.2344C659.594 58.4062 659.902 57.1797 659.902 55.5547ZM682.016 59.0117L684.453 49.3203H686.621L682.93 62H681.172L678.09 52.3906L675.09 62H673.332L669.652 49.3203H671.809L674.305 58.8125L677.258 49.3203H679.004L682.016 59.0117ZM691.191 62H689.023V49.3203H691.191V62ZM688.848 45.957C688.848 45.6055 688.953 45.3086 689.164 45.0664C689.383 44.8242 689.703 44.7031 690.125 44.7031C690.547 44.7031 690.867 44.8242 691.086 45.0664C691.305 45.3086 691.414 45.6055 691.414 45.957C691.414 46.3086 691.305 46.6016 691.086 46.8359C690.867 47.0703 690.547 47.1875 690.125 47.1875C689.703 47.1875 689.383 47.0703 689.164 46.8359C688.953 46.6016 688.848 46.3086 688.848 45.957ZM697.613 46.25V49.3203H699.98V50.9961H697.613V58.8594C697.613 59.3672 697.719 59.75 697.93 60.0078C698.141 60.2578 698.5 60.3828 699.008 60.3828C699.258 60.3828 699.602 60.3359 700.039 60.2422V62C699.469 62.1562 698.914 62.2344 698.375 62.2344C697.406 62.2344 696.676 61.9414 696.184 61.3555C695.691 60.7695 695.445 59.9375 695.445 58.8594V50.9961H693.137V49.3203H695.445V46.25H697.613ZM704.691 50.8555C705.652 49.6758 706.902 49.0859 708.441 49.0859C711.121 49.0859 712.473 50.5977 712.496 53.6211V62H710.328V53.6094C710.32 52.6953 710.109 52.0195 709.695 51.582C709.289 51.1445 708.652 50.9258 707.785 50.9258C707.082 50.9258 706.465 51.1133 705.934 51.4883C705.402 51.8633 704.988 52.3555 704.691 52.9648V62H702.523V44H704.691V50.8555ZM536.527 78.8555C537.488 77.6758 538.738 77.0859 540.277 77.0859C542.957 77.0859 544.309 78.5977 544.332 81.6211V90H542.164V81.6094C542.156 80.6953 541.945 80.0195 541.531 79.582C541.125 79.1445 540.488 78.9258 539.621 78.9258C538.918 78.9258 538.301 79.1133 537.77 79.4883C537.238 79.8633 536.824 80.3555 536.527 80.9648V90H534.359V72H536.527V78.8555ZM555.406 88.7461C554.562 89.7383 553.324 90.2344 551.691 90.2344C550.34 90.2344 549.309 89.8438 548.598 89.0625C547.895 88.2734 547.539 87.1094 547.531 85.5703V77.3203H549.699V85.5117C549.699 87.4336 550.48 88.3945 552.043 88.3945C553.699 88.3945 554.801 87.7773 555.348 86.543V77.3203H557.516V90H555.453L555.406 88.7461ZM562.871 77.3203L562.941 78.9141C563.91 77.6953 565.176 77.0859 566.738 77.0859C569.418 77.0859 570.77 78.5977 570.793 81.6211V90H568.625V81.6094C568.617 80.6953 568.406 80.0195 567.992 79.582C567.586 79.1445 566.949 78.9258 566.082 78.9258C565.379 78.9258 564.762 79.1133 564.23 79.4883C563.699 79.8633 563.285 80.3555 562.988 80.9648V90H560.82V77.3203H562.871ZM573.547 83.5547C573.547 81.5781 574.004 80.0078 574.918 78.8438C575.832 77.6719 577.043 77.0859 578.551 77.0859C580.098 77.0859 581.305 77.6328 582.172 78.7266L582.277 77.3203H584.258V89.6953C584.258 91.3359 583.77 92.6289 582.793 93.5742C581.824 94.5195 580.52 94.9922 578.879 94.9922C577.965 94.9922 577.07 94.7969 576.195 94.4062C575.32 94.0156 574.652 93.4805 574.191 92.8008L575.316 91.5C576.246 92.6484 577.383 93.2227 578.727 93.2227C579.781 93.2227 580.602 92.9258 581.188 92.332C581.781 91.7383 582.078 90.9023 582.078 89.8242V88.7344C581.211 89.7344 580.027 90.2344 578.527 90.2344C577.043 90.2344 575.84 89.6367 574.918 88.4414C574.004 87.2461 573.547 85.6172 573.547 83.5547ZM575.727 83.8008C575.727 85.2305 576.02 86.3555 576.605 87.1758C577.191 87.9883 578.012 88.3945 579.066 88.3945C580.434 88.3945 581.438 87.7734 582.078 86.5312V80.7422C581.414 79.5312 580.418 78.9258 579.09 78.9258C578.035 78.9258 577.211 79.3359 576.617 80.1562C576.023 80.9766 575.727 82.1914 575.727 83.8008ZM592.801 90.2344C591.082 90.2344 589.684 89.6719 588.605 88.5469C587.527 87.4141 586.988 85.9023 586.988 84.0117V83.6133C586.988 82.3555 587.227 81.2344 587.703 80.25C588.188 79.2578 588.859 78.4844 589.719 77.9297C590.586 77.3672 591.523 77.0859 592.531 77.0859C594.18 77.0859 595.461 77.6289 596.375 78.7148C597.289 79.8008 597.746 81.3555 597.746 83.3789V84.2812H589.156C589.188 85.5312 589.551 86.543 590.246 87.3164C590.949 88.082 591.84 88.4648 592.918 88.4648C593.684 88.4648 594.332 88.3086 594.863 87.9961C595.395 87.6836 595.859 87.2695 596.258 86.7539L597.582 87.7852C596.52 89.418 594.926 90.2344 592.801 90.2344ZM592.531 78.8672C591.656 78.8672 590.922 79.1875 590.328 79.8281C589.734 80.4609 589.367 81.3516 589.227 82.5H595.578V82.3359C595.516 81.2344 595.219 80.3828 594.688 79.7812C594.156 79.1719 593.438 78.8672 592.531 78.8672ZM606.395 79.2656C606.066 79.2109 605.711 79.1836 605.328 79.1836C603.906 79.1836 602.941 79.7891 602.434 81V90H600.266V77.3203H602.375L602.41 78.7852C603.121 77.6523 604.129 77.0859 605.434 77.0859C605.855 77.0859 606.176 77.1406 606.395 77.25V79.2656ZM621.734 86.6367C621.734 86.0508 621.512 85.5977 621.066 85.2773C620.629 84.9492 619.859 84.668 618.758 84.4336C617.664 84.1992 616.793 83.918 616.145 83.5898C615.504 83.2617 615.027 82.8711 614.715 82.418C614.41 81.9648 614.258 81.4258 614.258 80.8008C614.258 79.7617 614.695 78.8828 615.57 78.1641C616.453 77.4453 617.578 77.0859 618.945 77.0859C620.383 77.0859 621.547 77.457 622.438 78.1992C623.336 78.9414 623.785 79.8906 623.785 81.0469H621.605C621.605 80.4531 621.352 79.9414 620.844 79.5117C620.344 79.082 619.711 78.8672 618.945 78.8672C618.156 78.8672 617.539 79.0391 617.094 79.3828C616.648 79.7266 616.426 80.1758 616.426 80.7305C616.426 81.2539 616.633 81.6484 617.047 81.9141C617.461 82.1797 618.207 82.4336 619.285 82.6758C620.371 82.918 621.25 83.207 621.922 83.543C622.594 83.8789 623.09 84.2852 623.41 84.7617C623.738 85.2305 623.902 85.8047 623.902 86.4844C623.902 87.6172 623.449 88.5273 622.543 89.2148C621.637 89.8945 620.461 90.2344 619.016 90.2344C618 90.2344 617.102 90.0547 616.32 89.6953C615.539 89.3359 614.926 88.8359 614.48 88.1953C614.043 87.5469 613.824 86.8477 613.824 86.0977H615.992C616.031 86.8242 616.32 87.4023 616.859 87.832C617.406 88.2539 618.125 88.4648 619.016 88.4648C619.836 88.4648 620.492 88.3008 620.984 87.9727C621.484 87.6367 621.734 87.1914 621.734 86.6367ZM637.438 83.8008C637.438 85.7305 636.996 87.2852 636.113 88.4648C635.23 89.6445 634.035 90.2344 632.527 90.2344C630.988 90.2344 629.777 89.7461 628.895 88.7695V94.875H626.727V77.3203H628.707L628.812 78.7266C629.695 77.6328 630.922 77.0859 632.492 77.0859C634.016 77.0859 635.219 77.6602 636.102 78.8086C636.992 79.957 637.438 81.5547 637.438 83.6016V83.8008ZM635.27 83.5547C635.27 82.125 634.965 80.9961 634.355 80.168C633.746 79.3398 632.91 78.9258 631.848 78.9258C630.535 78.9258 629.551 79.5078 628.895 80.6719V86.7305C629.543 87.8867 630.535 88.4648 631.871 88.4648C632.91 88.4648 633.734 88.0547 634.344 87.2344C634.961 86.4062 635.27 85.1797 635.27 83.5547ZM639.629 83.543C639.629 82.3008 639.871 81.1836 640.355 80.1914C640.848 79.1992 641.527 78.4336 642.395 77.8945C643.27 77.3555 644.266 77.0859 645.383 77.0859C647.109 77.0859 648.504 77.6836 649.566 78.8789C650.637 80.0742 651.172 81.6641 651.172 83.6484V83.8008C651.172 85.0352 650.934 86.1445 650.457 87.1289C649.988 88.1055 649.312 88.8672 648.43 89.4141C647.555 89.9609 646.547 90.2344 645.406 90.2344C643.688 90.2344 642.293 89.6367 641.223 88.4414C640.16 87.2461 639.629 85.6641 639.629 83.6953V83.543ZM641.809 83.8008C641.809 85.207 642.133 86.3359 642.781 87.1875C643.438 88.0391 644.312 88.4648 645.406 88.4648C646.508 88.4648 647.383 88.0352 648.031 87.1758C648.68 86.3086 649.004 85.0977 649.004 83.543C649.004 82.1523 648.672 81.0273 648.008 80.168C647.352 79.3008 646.477 78.8672 645.383 78.8672C644.312 78.8672 643.449 79.293 642.793 80.1445C642.137 80.9961 641.809 82.2148 641.809 83.8008ZM656.832 74.25V77.3203H659.199V78.9961H656.832V86.8594C656.832 87.3672 656.938 87.75 657.148 88.0078C657.359 88.2578 657.719 88.3828 658.227 88.3828C658.477 88.3828 658.82 88.3359 659.258 88.2422V90C658.688 90.1562 658.133 90.2344 657.594 90.2344C656.625 90.2344 655.895 89.9414 655.402 89.3555C654.91 88.7695 654.664 87.9375 654.664 86.8594V78.9961H652.355V77.3203H654.664V74.25H656.832ZM667.168 83.5547C667.168 81.6094 667.629 80.0469 668.551 78.8672C669.473 77.6797 670.68 77.0859 672.172 77.0859C673.656 77.0859 674.832 77.5938 675.699 78.6094V72H677.867V90H675.875L675.77 88.6406C674.902 89.7031 673.695 90.2344 672.148 90.2344C670.68 90.2344 669.48 89.6328 668.551 88.4297C667.629 87.2266 667.168 85.6562 667.168 83.7188V83.5547ZM669.336 83.8008C669.336 85.2383 669.633 86.3633 670.227 87.1758C670.82 87.9883 671.641 88.3945 672.688 88.3945C674.062 88.3945 675.066 87.7773 675.699 86.543V80.7188C675.051 79.5234 674.055 78.9258 672.711 78.9258C671.648 78.9258 670.82 79.3359 670.227 80.1562C669.633 80.9766 669.336 82.1914 669.336 83.8008ZM686.504 90.2344C684.785 90.2344 683.387 89.6719 682.309 88.5469C681.23 87.4141 680.691 85.9023 680.691 84.0117V83.6133C680.691 82.3555 680.93 81.2344 681.406 80.25C681.891 79.2578 682.562 78.4844 683.422 77.9297C684.289 77.3672 685.227 77.0859 686.234 77.0859C687.883 77.0859 689.164 77.6289 690.078 78.7148C690.992 79.8008 691.449 81.3555 691.449 83.3789V84.2812H682.859C682.891 85.5312 683.254 86.543 683.949 87.3164C684.652 88.082 685.543 88.4648 686.621 88.4648C687.387 88.4648 688.035 88.3086 688.566 87.9961C689.098 87.6836 689.562 87.2695 689.961 86.7539L691.285 87.7852C690.223 89.418 688.629 90.2344 686.504 90.2344ZM686.234 78.8672C685.359 78.8672 684.625 79.1875 684.031 79.8281C683.438 80.4609 683.07 81.3516 682.93 82.5H689.281V82.3359C689.219 81.2344 688.922 80.3828 688.391 79.7812C687.859 79.1719 687.141 78.8672 686.234 78.8672ZM696.91 74.25V77.3203H699.277V78.9961H696.91V86.8594C696.91 87.3672 697.016 87.75 697.227 88.0078C697.438 88.2578 697.797 88.3828 698.305 88.3828C698.555 88.3828 698.898 88.3359 699.336 88.2422V90C698.766 90.1562 698.211 90.2344 697.672 90.2344C696.703 90.2344 695.973 89.9414 695.48 89.3555C694.988 88.7695 694.742 87.9375 694.742 86.8594V78.9961H692.434V77.3203H694.742V74.25H696.91ZM709.648 90C709.523 89.75 709.422 89.3047 709.344 88.6641C708.336 89.7109 707.133 90.2344 705.734 90.2344C704.484 90.2344 703.457 89.8828 702.652 89.1797C701.855 88.4688 701.457 87.5703 701.457 86.4844C701.457 85.1641 701.957 84.1406 702.957 83.4141C703.965 82.6797 705.379 82.3125 707.199 82.3125H709.309V81.3164C709.309 80.5586 709.082 79.957 708.629 79.5117C708.176 79.0586 707.508 78.832 706.625 78.832C705.852 78.832 705.203 79.0273 704.68 79.418C704.156 79.8086 703.895 80.2812 703.895 80.8359H701.715C701.715 80.2031 701.938 79.5938 702.383 79.0078C702.836 78.4141 703.445 77.9453 704.211 77.6016C704.984 77.2578 705.832 77.0859 706.754 77.0859C708.215 77.0859 709.359 77.4531 710.188 78.1875C711.016 78.9141 711.445 79.918 711.477 81.1992V87.0352C711.477 88.1992 711.625 89.125 711.922 89.8125V90H709.648ZM706.051 88.3477C706.73 88.3477 707.375 88.1719 707.984 87.8203C708.594 87.4688 709.035 87.0117 709.309 86.4492V83.8477H707.609C704.953 83.8477 703.625 84.625 703.625 86.1797C703.625 86.8594 703.852 87.3906 704.305 87.7734C704.758 88.1562 705.34 88.3477 706.051 88.3477ZM717.23 90H715.062V77.3203H717.23V90ZM714.887 73.957C714.887 73.6055 714.992 73.3086 715.203 73.0664C715.422 72.8242 715.742 72.7031 716.164 72.7031C716.586 72.7031 716.906 72.8242 717.125 73.0664C717.344 73.3086 717.453 73.6055 717.453 73.957C717.453 74.3086 717.344 74.6016 717.125 74.8359C716.906 75.0703 716.586 75.1875 716.164 75.1875C715.742 75.1875 715.422 75.0703 715.203 74.8359C714.992 74.6016 714.887 74.3086 714.887 73.957ZM723.066 90H720.898V72H723.066V90ZM733.93 86.6367C733.93 86.0508 733.707 85.5977 733.262 85.2773C732.824 84.9492 732.055 84.668 730.953 84.4336C729.859 84.1992 728.988 83.918 728.34 83.5898C727.699 83.2617 727.223 82.8711 726.91 82.418C726.605 81.9648 726.453 81.4258 726.453 80.8008C726.453 79.7617 726.891 78.8828 727.766 78.1641C728.648 77.4453 729.773 77.0859 731.141 77.0859C732.578 77.0859 733.742 77.457 734.633 78.1992C735.531 78.9414 735.98 79.8906 735.98 81.0469H733.801C733.801 80.4531 733.547 79.9414 733.039 79.5117C732.539 79.082 731.906 78.8672 731.141 78.8672C730.352 78.8672 729.734 79.0391 729.289 79.3828C728.844 79.7266 728.621 80.1758 728.621 80.7305C728.621 81.2539 728.828 81.6484 729.242 81.9141C729.656 82.1797 730.402 82.4336 731.48 82.6758C732.566 82.918 733.445 83.207 734.117 83.543C734.789 83.8789 735.285 84.2852 735.605 84.7617C735.934 85.2305 736.098 85.8047 736.098 86.4844C736.098 87.6172 735.645 88.5273 734.738 89.2148C733.832 89.8945 732.656 90.2344 731.211 90.2344C730.195 90.2344 729.297 90.0547 728.516 89.6953C727.734 89.3359 727.121 88.8359 726.676 88.1953C726.238 87.5469 726.02 86.8477 726.02 86.0977H728.188C728.227 86.8242 728.516 87.4023 729.055 87.832C729.602 88.2539 730.32 88.4648 731.211 88.4648C732.031 88.4648 732.688 88.3008 733.18 87.9727C733.68 87.6367 733.93 87.1914 733.93 86.6367Z" fill="white"/>
<rect x="261" width="225" height="136" rx="24" fill="#88498F"/>
<path d="M299.926 40.1133H292.531V46.1602H301.121V48H290.281V30.9375H301.004V32.7891H292.531V38.2734H299.926V40.1133ZM305.633 35.3203L305.703 36.9141C306.672 35.6953 307.938 35.0859 309.5 35.0859C312.18 35.0859 313.531 36.5977 313.555 39.6211V48H311.387V39.6094C311.379 38.6953 311.168 38.0195 310.754 37.582C310.348 37.1445 309.711 36.9258 308.844 36.9258C308.141 36.9258 307.523 37.1133 306.992 37.4883C306.461 37.8633 306.047 38.3555 305.75 38.9648V48H303.582V35.3203H305.633ZM319.766 32.25V35.3203H322.133V36.9961H319.766V44.8594C319.766 45.3672 319.871 45.75 320.082 46.0078C320.293 46.2578 320.652 46.3828 321.16 46.3828C321.41 46.3828 321.754 46.3359 322.191 46.2422V48C321.621 48.1562 321.066 48.2344 320.527 48.2344C319.559 48.2344 318.828 47.9414 318.336 47.3555C317.844 46.7695 317.598 45.9375 317.598 44.8594V36.9961H315.289V35.3203H317.598V32.25H319.766ZM329.938 48.2344C328.219 48.2344 326.82 47.6719 325.742 46.5469C324.664 45.4141 324.125 43.9023 324.125 42.0117V41.6133C324.125 40.3555 324.363 39.2344 324.84 38.25C325.324 37.2578 325.996 36.4844 326.855 35.9297C327.723 35.3672 328.66 35.0859 329.668 35.0859C331.316 35.0859 332.598 35.6289 333.512 36.7148C334.426 37.8008 334.883 39.3555 334.883 41.3789V42.2812H326.293C326.324 43.5312 326.688 44.543 327.383 45.3164C328.086 46.082 328.977 46.4648 330.055 46.4648C330.82 46.4648 331.469 46.3086 332 45.9961C332.531 45.6836 332.996 45.2695 333.395 44.7539L334.719 45.7852C333.656 47.418 332.062 48.2344 329.938 48.2344ZM329.668 36.8672C328.793 36.8672 328.059 37.1875 327.465 37.8281C326.871 38.4609 326.504 39.3516 326.363 40.5H332.715V40.3359C332.652 39.2344 332.355 38.3828 331.824 37.7812C331.293 37.1719 330.574 36.8672 329.668 36.8672ZM343.531 37.2656C343.203 37.2109 342.848 37.1836 342.465 37.1836C341.043 37.1836 340.078 37.7891 339.57 39V48H337.402V35.3203H339.512L339.547 36.7852C340.258 35.6523 341.266 35.0859 342.57 35.0859C342.992 35.0859 343.312 35.1406 343.531 35.25V37.2656ZM353.539 35.3203L353.609 36.9141C354.578 35.6953 355.844 35.0859 357.406 35.0859C360.086 35.0859 361.438 36.5977 361.461 39.6211V48H359.293V39.6094C359.285 38.6953 359.074 38.0195 358.66 37.582C358.254 37.1445 357.617 36.9258 356.75 36.9258C356.047 36.9258 355.43 37.1133 354.898 37.4883C354.367 37.8633 353.953 38.3555 353.656 38.9648V48H351.488V35.3203H353.539ZM372.559 46.7461C371.715 47.7383 370.477 48.2344 368.844 48.2344C367.492 48.2344 366.461 47.8438 365.75 47.0625C365.047 46.2734 364.691 45.1094 364.684 43.5703V35.3203H366.852V43.5117C366.852 45.4336 367.633 46.3945 369.195 46.3945C370.852 46.3945 371.953 45.7773 372.5 44.543V35.3203H374.668V48H372.605L372.559 46.7461ZM380.012 35.3203L380.07 36.7266C381 35.6328 382.254 35.0859 383.832 35.0859C385.605 35.0859 386.812 35.7656 387.453 37.125C387.875 36.5156 388.422 36.0234 389.094 35.6484C389.773 35.2734 390.574 35.0859 391.496 35.0859C394.277 35.0859 395.691 36.5586 395.738 39.5039V48H393.57V39.6328C393.57 38.7266 393.363 38.0508 392.949 37.6055C392.535 37.1523 391.84 36.9258 390.863 36.9258C390.059 36.9258 389.391 37.168 388.859 37.6523C388.328 38.1289 388.02 38.7734 387.934 39.5859V48H385.754V39.6914C385.754 37.8477 384.852 36.9258 383.047 36.9258C381.625 36.9258 380.652 37.5312 380.129 38.7422V48H377.961V35.3203H380.012ZM409.754 41.8008C409.754 43.7383 409.309 45.2969 408.418 46.4766C407.527 47.6484 406.332 48.2344 404.832 48.2344C403.23 48.2344 401.992 47.668 401.117 46.5352L401.012 48H399.02V30H401.188V36.7148C402.062 35.6289 403.27 35.0859 404.809 35.0859C406.348 35.0859 407.555 35.668 408.43 36.832C409.312 37.9961 409.754 39.5898 409.754 41.6133V41.8008ZM407.586 41.5547C407.586 40.0781 407.301 38.9375 406.73 38.1328C406.16 37.3281 405.34 36.9258 404.27 36.9258C402.84 36.9258 401.812 37.5898 401.188 38.918V44.4023C401.852 45.7305 402.887 46.3945 404.293 46.3945C405.332 46.3945 406.141 45.9922 406.719 45.1875C407.297 44.3828 407.586 43.1719 407.586 41.5547ZM417.758 48.2344C416.039 48.2344 414.641 47.6719 413.562 46.5469C412.484 45.4141 411.945 43.9023 411.945 42.0117V41.6133C411.945 40.3555 412.184 39.2344 412.66 38.25C413.145 37.2578 413.816 36.4844 414.676 35.9297C415.543 35.3672 416.48 35.0859 417.488 35.0859C419.137 35.0859 420.418 35.6289 421.332 36.7148C422.246 37.8008 422.703 39.3555 422.703 41.3789V42.2812H414.113C414.145 43.5312 414.508 44.543 415.203 45.3164C415.906 46.082 416.797 46.4648 417.875 46.4648C418.641 46.4648 419.289 46.3086 419.82 45.9961C420.352 45.6836 420.816 45.2695 421.215 44.7539L422.539 45.7852C421.477 47.418 419.883 48.2344 417.758 48.2344ZM417.488 36.8672C416.613 36.8672 415.879 37.1875 415.285 37.8281C414.691 38.4609 414.324 39.3516 414.184 40.5H420.535V40.3359C420.473 39.2344 420.176 38.3828 419.645 37.7812C419.113 37.1719 418.395 36.8672 417.488 36.8672ZM431.352 37.2656C431.023 37.2109 430.668 37.1836 430.285 37.1836C428.863 37.1836 427.898 37.7891 427.391 39V48H425.223V35.3203H427.332L427.367 36.7852C428.078 35.6523 429.086 35.0859 430.391 35.0859C430.812 35.0859 431.133 35.1406 431.352 35.25V37.2656ZM438.734 41.543C438.734 40.3008 438.977 39.1836 439.461 38.1914C439.953 37.1992 440.633 36.4336 441.5 35.8945C442.375 35.3555 443.371 35.0859 444.488 35.0859C446.215 35.0859 447.609 35.6836 448.672 36.8789C449.742 38.0742 450.277 39.6641 450.277 41.6484V41.8008C450.277 43.0352 450.039 44.1445 449.562 45.1289C449.094 46.1055 448.418 46.8672 447.535 47.4141C446.66 47.9609 445.652 48.2344 444.512 48.2344C442.793 48.2344 441.398 47.6367 440.328 46.4414C439.266 45.2461 438.734 43.6641 438.734 41.6953V41.543ZM440.914 41.8008C440.914 43.207 441.238 44.3359 441.887 45.1875C442.543 46.0391 443.418 46.4648 444.512 46.4648C445.613 46.4648 446.488 46.0352 447.137 45.1758C447.785 44.3086 448.109 43.0977 448.109 41.543C448.109 40.1523 447.777 39.0273 447.113 38.168C446.457 37.3008 445.582 36.8672 444.488 36.8672C443.418 36.8672 442.555 37.293 441.898 38.1445C441.242 38.9961 440.914 40.2148 440.914 41.8008ZM454.062 48V36.9961H452.059V35.3203H454.062V34.0195C454.062 32.6602 454.426 31.6094 455.152 30.8672C455.879 30.125 456.906 29.7539 458.234 29.7539C458.734 29.7539 459.23 29.8203 459.723 29.9531L459.605 31.7109C459.238 31.6406 458.848 31.6055 458.434 31.6055C457.73 31.6055 457.188 31.8125 456.805 32.2266C456.422 32.6328 456.23 33.2188 456.23 33.9844V35.3203H458.938V36.9961H456.23V48H454.062ZM277.766 74.2305H285.184V76H275.117V74.4062L282.113 65.1133H275.223V63.3203H284.832V64.8555L277.766 74.2305ZM286.871 69.543C286.871 68.3008 287.113 67.1836 287.598 66.1914C288.09 65.1992 288.77 64.4336 289.637 63.8945C290.512 63.3555 291.508 63.0859 292.625 63.0859C294.352 63.0859 295.746 63.6836 296.809 64.8789C297.879 66.0742 298.414 67.6641 298.414 69.6484V69.8008C298.414 71.0352 298.176 72.1445 297.699 73.1289C297.23 74.1055 296.555 74.8672 295.672 75.4141C294.797 75.9609 293.789 76.2344 292.648 76.2344C290.93 76.2344 289.535 75.6367 288.465 74.4414C287.402 73.2461 286.871 71.6641 286.871 69.6953V69.543ZM289.051 69.8008C289.051 71.207 289.375 72.3359 290.023 73.1875C290.68 74.0391 291.555 74.4648 292.648 74.4648C293.75 74.4648 294.625 74.0352 295.273 73.1758C295.922 72.3086 296.246 71.0977 296.246 69.543C296.246 68.1523 295.914 67.0273 295.25 66.168C294.594 65.3008 293.719 64.8672 292.625 64.8672C291.555 64.8672 290.691 65.293 290.035 66.1445C289.379 66.9961 289.051 68.2148 289.051 69.8008ZM303.184 63.3203L303.254 64.9141C304.223 63.6953 305.488 63.0859 307.051 63.0859C309.73 63.0859 311.082 64.5977 311.105 67.6211V76H308.938V67.6094C308.93 66.6953 308.719 66.0195 308.305 65.582C307.898 65.1445 307.262 64.9258 306.395 64.9258C305.691 64.9258 305.074 65.1133 304.543 65.4883C304.012 65.8633 303.598 66.3555 303.301 66.9648V76H301.133V63.3203H303.184ZM319.637 76.2344C317.918 76.2344 316.52 75.6719 315.441 74.5469C314.363 73.4141 313.824 71.9023 313.824 70.0117V69.6133C313.824 68.3555 314.062 67.2344 314.539 66.25C315.023 65.2578 315.695 64.4844 316.555 63.9297C317.422 63.3672 318.359 63.0859 319.367 63.0859C321.016 63.0859 322.297 63.6289 323.211 64.7148C324.125 65.8008 324.582 67.3555 324.582 69.3789V70.2812H315.992C316.023 71.5312 316.387 72.543 317.082 73.3164C317.785 74.082 318.676 74.4648 319.754 74.4648C320.52 74.4648 321.168 74.3086 321.699 73.9961C322.23 73.6836 322.695 73.2695 323.094 72.7539L324.418 73.7852C323.355 75.418 321.762 76.2344 319.637 76.2344ZM319.367 64.8672C318.492 64.8672 317.758 65.1875 317.164 65.8281C316.57 66.4609 316.203 67.3516 316.062 68.5H322.414V68.3359C322.352 67.2344 322.055 66.3828 321.523 65.7812C320.992 65.1719 320.273 64.8672 319.367 64.8672ZM334.484 72.6367C334.484 72.0508 334.262 71.5977 333.816 71.2773C333.379 70.9492 332.609 70.668 331.508 70.4336C330.414 70.1992 329.543 69.918 328.895 69.5898C328.254 69.2617 327.777 68.8711 327.465 68.418C327.16 67.9648 327.008 67.4258 327.008 66.8008C327.008 65.7617 327.445 64.8828 328.32 64.1641C329.203 63.4453 330.328 63.0859 331.695 63.0859C333.133 63.0859 334.297 63.457 335.188 64.1992C336.086 64.9414 336.535 65.8906 336.535 67.0469H334.355C334.355 66.4531 334.102 65.9414 333.594 65.5117C333.094 65.082 332.461 64.8672 331.695 64.8672C330.906 64.8672 330.289 65.0391 329.844 65.3828C329.398 65.7266 329.176 66.1758 329.176 66.7305C329.176 67.2539 329.383 67.6484 329.797 67.9141C330.211 68.1797 330.957 68.4336 332.035 68.6758C333.121 68.918 334 69.207 334.672 69.543C335.344 69.8789 335.84 70.2852 336.16 70.7617C336.488 71.2305 336.652 71.8047 336.652 72.4844C336.652 73.6172 336.199 74.5273 335.293 75.2148C334.387 75.8945 333.211 76.2344 331.766 76.2344C330.75 76.2344 329.852 76.0547 329.07 75.6953C328.289 75.3359 327.676 74.8359 327.23 74.1953C326.793 73.5469 326.574 72.8477 326.574 72.0977H328.742C328.781 72.8242 329.07 73.4023 329.609 73.832C330.156 74.2539 330.875 74.4648 331.766 74.4648C332.586 74.4648 333.242 74.3008 333.734 73.9727C334.234 73.6367 334.484 73.1914 334.484 72.6367ZM348.371 60.25V63.3203H350.738V64.9961H348.371V72.8594C348.371 73.3672 348.477 73.75 348.688 74.0078C348.898 74.2578 349.258 74.3828 349.766 74.3828C350.016 74.3828 350.359 74.3359 350.797 74.2422V76C350.227 76.1562 349.672 76.2344 349.133 76.2344C348.164 76.2344 347.434 75.9414 346.941 75.3555C346.449 74.7695 346.203 73.9375 346.203 72.8594V64.9961H343.895V63.3203H346.203V60.25H348.371ZM352.473 69.543C352.473 68.3008 352.715 67.1836 353.199 66.1914C353.691 65.1992 354.371 64.4336 355.238 63.8945C356.113 63.3555 357.109 63.0859 358.227 63.0859C359.953 63.0859 361.348 63.6836 362.41 64.8789C363.48 66.0742 364.016 67.6641 364.016 69.6484V69.8008C364.016 71.0352 363.777 72.1445 363.301 73.1289C362.832 74.1055 362.156 74.8672 361.273 75.4141C360.398 75.9609 359.391 76.2344 358.25 76.2344C356.531 76.2344 355.137 75.6367 354.066 74.4414C353.004 73.2461 352.473 71.6641 352.473 69.6953V69.543ZM354.652 69.8008C354.652 71.207 354.977 72.3359 355.625 73.1875C356.281 74.0391 357.156 74.4648 358.25 74.4648C359.352 74.4648 360.227 74.0352 360.875 73.1758C361.523 72.3086 361.848 71.0977 361.848 69.543C361.848 68.1523 361.516 67.0273 360.852 66.168C360.195 65.3008 359.32 64.8672 358.227 64.8672C357.156 64.8672 356.293 65.293 355.637 66.1445C354.98 66.9961 354.652 68.2148 354.652 69.8008ZM372.16 69.5547C372.16 67.6094 372.621 66.0469 373.543 64.8672C374.465 63.6797 375.672 63.0859 377.164 63.0859C378.648 63.0859 379.824 63.5938 380.691 64.6094V58H382.859V76H380.867L380.762 74.6406C379.895 75.7031 378.688 76.2344 377.141 76.2344C375.672 76.2344 374.473 75.6328 373.543 74.4297C372.621 73.2266 372.16 71.6562 372.16 69.7188V69.5547ZM374.328 69.8008C374.328 71.2383 374.625 72.3633 375.219 73.1758C375.812 73.9883 376.633 74.3945 377.68 74.3945C379.055 74.3945 380.059 73.7773 380.691 72.543V66.7188C380.043 65.5234 379.047 64.9258 377.703 64.9258C376.641 64.9258 375.812 65.3359 375.219 66.1562C374.625 66.9766 374.328 68.1914 374.328 69.8008ZM388.59 76H386.422V63.3203H388.59V76ZM386.246 59.957C386.246 59.6055 386.352 59.3086 386.562 59.0664C386.781 58.8242 387.102 58.7031 387.523 58.7031C387.945 58.7031 388.266 58.8242 388.484 59.0664C388.703 59.3086 388.812 59.6055 388.812 59.957C388.812 60.3086 388.703 60.6016 388.484 60.8359C388.266 61.0703 387.945 61.1875 387.523 61.1875C387.102 61.1875 386.781 61.0703 386.562 60.8359C386.352 60.6016 386.246 60.3086 386.246 59.957ZM396.254 73.0586L399.395 63.3203H401.609L397.062 76H395.41L390.816 63.3203H393.031L396.254 73.0586ZM406.051 76H403.883V63.3203H406.051V76ZM403.707 59.957C403.707 59.6055 403.812 59.3086 404.023 59.0664C404.242 58.8242 404.562 58.7031 404.984 58.7031C405.406 58.7031 405.727 58.8242 405.945 59.0664C406.164 59.3086 406.273 59.6055 406.273 59.957C406.273 60.3086 406.164 60.6016 405.945 60.8359C405.727 61.0703 405.406 61.1875 404.984 61.1875C404.562 61.1875 404.242 61.0703 404.023 60.8359C403.812 60.6016 403.707 60.3086 403.707 59.957ZM409.004 69.5547C409.004 67.6094 409.465 66.0469 410.387 64.8672C411.309 63.6797 412.516 63.0859 414.008 63.0859C415.492 63.0859 416.668 63.5938 417.535 64.6094V58H419.703V76H417.711L417.605 74.6406C416.738 75.7031 415.531 76.2344 413.984 76.2344C412.516 76.2344 411.316 75.6328 410.387 74.4297C409.465 73.2266 409.004 71.6562 409.004 69.7188V69.5547ZM411.172 69.8008C411.172 71.2383 411.469 72.3633 412.062 73.1758C412.656 73.9883 413.477 74.3945 414.523 74.3945C415.898 74.3945 416.902 73.7773 417.535 72.543V66.7188C416.887 65.5234 415.891 64.9258 414.547 64.9258C413.484 64.9258 412.656 65.3359 412.062 66.1562C411.469 66.9766 411.172 68.1914 411.172 69.8008ZM428.34 76.2344C426.621 76.2344 425.223 75.6719 424.145 74.5469C423.066 73.4141 422.527 71.9023 422.527 70.0117V69.6133C422.527 68.3555 422.766 67.2344 423.242 66.25C423.727 65.2578 424.398 64.4844 425.258 63.9297C426.125 63.3672 427.062 63.0859 428.07 63.0859C429.719 63.0859 431 63.6289 431.914 64.7148C432.828 65.8008 433.285 67.3555 433.285 69.3789V70.2812H424.695C424.727 71.5312 425.09 72.543 425.785 73.3164C426.488 74.082 427.379 74.4648 428.457 74.4648C429.223 74.4648 429.871 74.3086 430.402 73.9961C430.934 73.6836 431.398 73.2695 431.797 72.7539L433.121 73.7852C432.059 75.418 430.465 76.2344 428.34 76.2344ZM428.07 64.8672C427.195 64.8672 426.461 65.1875 425.867 65.8281C425.273 66.4609 424.906 67.3516 424.766 68.5H431.117V68.3359C431.055 67.2344 430.758 66.3828 430.227 65.7812C429.695 65.1719 428.977 64.8672 428.07 64.8672ZM444.699 60.25V63.3203H447.066V64.9961H444.699V72.8594C444.699 73.3672 444.805 73.75 445.016 74.0078C445.227 74.2578 445.586 74.3828 446.094 74.3828C446.344 74.3828 446.688 74.3359 447.125 74.2422V76C446.555 76.1562 446 76.2344 445.461 76.2344C444.492 76.2344 443.762 75.9414 443.27 75.3555C442.777 74.7695 442.531 73.9375 442.531 72.8594V64.9961H440.223V63.3203H442.531V60.25H444.699ZM451.777 64.8555C452.738 63.6758 453.988 63.0859 455.527 63.0859C458.207 63.0859 459.559 64.5977 459.582 67.6211V76H457.414V67.6094C457.406 66.6953 457.195 66.0195 456.781 65.582C456.375 65.1445 455.738 64.9258 454.871 64.9258C454.168 64.9258 453.551 65.1133 453.02 65.4883C452.488 65.8633 452.074 66.3555 451.777 66.9648V76H449.609V58H451.777V64.8555ZM468.09 76.2344C466.371 76.2344 464.973 75.6719 463.895 74.5469C462.816 73.4141 462.277 71.9023 462.277 70.0117V69.6133C462.277 68.3555 462.516 67.2344 462.992 66.25C463.477 65.2578 464.148 64.4844 465.008 63.9297C465.875 63.3672 466.812 63.0859 467.82 63.0859C469.469 63.0859 470.75 63.6289 471.664 64.7148C472.578 65.8008 473.035 67.3555 473.035 69.3789V70.2812H464.445C464.477 71.5312 464.84 72.543 465.535 73.3164C466.238 74.082 467.129 74.4648 468.207 74.4648C468.973 74.4648 469.621 74.3086 470.152 73.9961C470.684 73.6836 471.148 73.2695 471.547 72.7539L472.871 73.7852C471.809 75.418 470.215 76.2344 468.09 76.2344ZM467.82 64.8672C466.945 64.8672 466.211 65.1875 465.617 65.8281C465.023 66.4609 464.656 67.3516 464.516 68.5H470.867V68.3359C470.805 67.2344 470.508 66.3828 469.977 65.7812C469.445 65.1719 468.727 64.8672 467.82 64.8672ZM353.891 91.3203L353.949 92.7266C354.879 91.6328 356.133 91.0859 357.711 91.0859C359.484 91.0859 360.691 91.7656 361.332 93.125C361.754 92.5156 362.301 92.0234 362.973 91.6484C363.652 91.2734 364.453 91.0859 365.375 91.0859C368.156 91.0859 369.57 92.5586 369.617 95.5039V104H367.449V95.6328C367.449 94.7266 367.242 94.0508 366.828 93.6055C366.414 93.1523 365.719 92.9258 364.742 92.9258C363.938 92.9258 363.27 93.168 362.738 93.6523C362.207 94.1289 361.898 94.7734 361.812 95.5859V104H359.633V95.6914C359.633 93.8477 358.73 92.9258 356.926 92.9258C355.504 92.9258 354.531 93.5312 354.008 94.7422V104H351.84V91.3203H353.891ZM380.727 104C380.602 103.75 380.5 103.305 380.422 102.664C379.414 103.711 378.211 104.234 376.812 104.234C375.562 104.234 374.535 103.883 373.73 103.18C372.934 102.469 372.535 101.57 372.535 100.484C372.535 99.1641 373.035 98.1406 374.035 97.4141C375.043 96.6797 376.457 96.3125 378.277 96.3125H380.387V95.3164C380.387 94.5586 380.16 93.957 379.707 93.5117C379.254 93.0586 378.586 92.832 377.703 92.832C376.93 92.832 376.281 93.0273 375.758 93.418C375.234 93.8086 374.973 94.2812 374.973 94.8359H372.793C372.793 94.2031 373.016 93.5938 373.461 93.0078C373.914 92.4141 374.523 91.9453 375.289 91.6016C376.062 91.2578 376.91 91.0859 377.832 91.0859C379.293 91.0859 380.438 91.4531 381.266 92.1875C382.094 92.9141 382.523 93.918 382.555 95.1992V101.035C382.555 102.199 382.703 103.125 383 103.812V104H380.727ZM377.129 102.348C377.809 102.348 378.453 102.172 379.062 101.82C379.672 101.469 380.113 101.012 380.387 100.449V97.8477H378.688C376.031 97.8477 374.703 98.625 374.703 100.18C374.703 100.859 374.93 101.391 375.383 101.773C375.836 102.156 376.418 102.348 377.129 102.348ZM396.664 97.8008C396.664 99.7305 396.223 101.285 395.34 102.465C394.457 103.645 393.262 104.234 391.754 104.234C390.215 104.234 389.004 103.746 388.121 102.77V108.875H385.953V91.3203H387.934L388.039 92.7266C388.922 91.6328 390.148 91.0859 391.719 91.0859C393.242 91.0859 394.445 91.6602 395.328 92.8086C396.219 93.957 396.664 95.5547 396.664 97.6016V97.8008ZM394.496 97.5547C394.496 96.125 394.191 94.9961 393.582 94.168C392.973 93.3398 392.137 92.9258 391.074 92.9258C389.762 92.9258 388.777 93.5078 388.121 94.6719V100.73C388.77 101.887 389.762 102.465 391.098 102.465C392.137 102.465 392.961 102.055 393.57 101.234C394.188 100.406 394.496 99.1797 394.496 97.5547Z" fill="white"/>
<rect x="783" y="13" width="225" height="109" rx="24" fill="#88498F"/>
<path d="M822.172 56.5859C821.961 58.3906 821.293 59.7852 820.168 60.7695C819.051 61.7461 817.562 62.2344 815.703 62.2344C813.688 62.2344 812.07 61.5117 810.852 60.0664C809.641 58.6211 809.035 56.6875 809.035 54.2656V52.625C809.035 51.0391 809.316 49.6445 809.879 48.4414C810.449 47.2383 811.254 46.3164 812.293 45.6758C813.332 45.0273 814.535 44.7031 815.902 44.7031C817.715 44.7031 819.168 45.2109 820.262 46.2266C821.355 47.2344 821.992 48.6328 822.172 50.4219H819.91C819.715 49.0625 819.289 48.0781 818.633 47.4688C817.984 46.8594 817.074 46.5547 815.902 46.5547C814.465 46.5547 813.336 47.0859 812.516 48.1484C811.703 49.2109 811.297 50.7227 811.297 52.6836V54.3359C811.297 56.1875 811.684 57.6602 812.457 58.7539C813.23 59.8477 814.312 60.3945 815.703 60.3945C816.953 60.3945 817.91 60.1133 818.574 59.5508C819.246 58.9805 819.691 57.9922 819.91 56.5859H822.172ZM824.34 55.543C824.34 54.3008 824.582 53.1836 825.066 52.1914C825.559 51.1992 826.238 50.4336 827.105 49.8945C827.98 49.3555 828.977 49.0859 830.094 49.0859C831.82 49.0859 833.215 49.6836 834.277 50.8789C835.348 52.0742 835.883 53.6641 835.883 55.6484V55.8008C835.883 57.0352 835.645 58.1445 835.168 59.1289C834.699 60.1055 834.023 60.8672 833.141 61.4141C832.266 61.9609 831.258 62.2344 830.117 62.2344C828.398 62.2344 827.004 61.6367 825.934 60.4414C824.871 59.2461 824.34 57.6641 824.34 55.6953V55.543ZM826.52 55.8008C826.52 57.207 826.844 58.3359 827.492 59.1875C828.148 60.0391 829.023 60.4648 830.117 60.4648C831.219 60.4648 832.094 60.0352 832.742 59.1758C833.391 58.3086 833.715 57.0977 833.715 55.543C833.715 54.1523 833.383 53.0273 832.719 52.168C832.062 51.3008 831.188 50.8672 830.094 50.8672C829.023 50.8672 828.16 51.293 827.504 52.1445C826.848 52.9961 826.52 54.2148 826.52 55.8008ZM840.652 49.3203L840.723 50.9141C841.691 49.6953 842.957 49.0859 844.52 49.0859C847.199 49.0859 848.551 50.5977 848.574 53.6211V62H846.406V53.6094C846.398 52.6953 846.188 52.0195 845.773 51.582C845.367 51.1445 844.73 50.9258 843.863 50.9258C843.16 50.9258 842.543 51.1133 842.012 51.4883C841.48 51.8633 841.066 52.3555 840.77 52.9648V62H838.602V49.3203H840.652ZM854.785 46.25V49.3203H857.152V50.9961H854.785V58.8594C854.785 59.3672 854.891 59.75 855.102 60.0078C855.312 60.2578 855.672 60.3828 856.18 60.3828C856.43 60.3828 856.773 60.3359 857.211 60.2422V62C856.641 62.1562 856.086 62.2344 855.547 62.2344C854.578 62.2344 853.848 61.9414 853.355 61.3555C852.863 60.7695 852.617 59.9375 852.617 58.8594V50.9961H850.309V49.3203H852.617V46.25H854.785ZM867.523 62C867.398 61.75 867.297 61.3047 867.219 60.6641C866.211 61.7109 865.008 62.2344 863.609 62.2344C862.359 62.2344 861.332 61.8828 860.527 61.1797C859.73 60.4688 859.332 59.5703 859.332 58.4844C859.332 57.1641 859.832 56.1406 860.832 55.4141C861.84 54.6797 863.254 54.3125 865.074 54.3125H867.184V53.3164C867.184 52.5586 866.957 51.957 866.504 51.5117C866.051 51.0586 865.383 50.832 864.5 50.832C863.727 50.832 863.078 51.0273 862.555 51.418C862.031 51.8086 861.77 52.2812 861.77 52.8359H859.59C859.59 52.2031 859.812 51.5938 860.258 51.0078C860.711 50.4141 861.32 49.9453 862.086 49.6016C862.859 49.2578 863.707 49.0859 864.629 49.0859C866.09 49.0859 867.234 49.4531 868.062 50.1875C868.891 50.9141 869.32 51.918 869.352 53.1992V59.0352C869.352 60.1992 869.5 61.125 869.797 61.8125V62H867.523ZM863.926 60.3477C864.605 60.3477 865.25 60.1719 865.859 59.8203C866.469 59.4688 866.91 59.0117 867.184 58.4492V55.8477H865.484C862.828 55.8477 861.5 56.625 861.5 58.1797C861.5 58.8594 861.727 59.3906 862.18 59.7734C862.633 60.1562 863.215 60.3477 863.926 60.3477ZM877.836 60.4648C878.609 60.4648 879.285 60.2305 879.863 59.7617C880.441 59.293 880.762 58.707 880.824 58.0039H882.875C882.836 58.7305 882.586 59.4219 882.125 60.0781C881.664 60.7344 881.047 61.2578 880.273 61.6484C879.508 62.0391 878.695 62.2344 877.836 62.2344C876.109 62.2344 874.734 61.6602 873.711 60.5117C872.695 59.3555 872.188 57.7773 872.188 55.7773V55.4141C872.188 54.1797 872.414 53.082 872.867 52.1211C873.32 51.1602 873.969 50.4141 874.812 49.8828C875.664 49.3516 876.668 49.0859 877.824 49.0859C879.246 49.0859 880.426 49.5117 881.363 50.3633C882.309 51.2148 882.812 52.3203 882.875 53.6797H880.824C880.762 52.8594 880.449 52.1875 879.887 51.6641C879.332 51.1328 878.645 50.8672 877.824 50.8672C876.723 50.8672 875.867 51.2656 875.258 52.0625C874.656 52.8516 874.355 53.9961 874.355 55.4961V55.9062C874.355 57.3672 874.656 58.4922 875.258 59.2812C875.859 60.0703 876.719 60.4648 877.836 60.4648ZM888.254 46.25V49.3203H890.621V50.9961H888.254V58.8594C888.254 59.3672 888.359 59.75 888.57 60.0078C888.781 60.2578 889.141 60.3828 889.648 60.3828C889.898 60.3828 890.242 60.3359 890.68 60.2422V62C890.109 62.1562 889.555 62.2344 889.016 62.2344C888.047 62.2344 887.316 61.9414 886.824 61.3555C886.332 60.7695 886.086 59.9375 886.086 58.8594V50.9961H883.777V49.3203H886.086V46.25H888.254ZM904.203 60.4648C904.977 60.4648 905.652 60.2305 906.23 59.7617C906.809 59.293 907.129 58.707 907.191 58.0039H909.242C909.203 58.7305 908.953 59.4219 908.492 60.0781C908.031 60.7344 907.414 61.2578 906.641 61.6484C905.875 62.0391 905.062 62.2344 904.203 62.2344C902.477 62.2344 901.102 61.6602 900.078 60.5117C899.062 59.3555 898.555 57.7773 898.555 55.7773V55.4141C898.555 54.1797 898.781 53.082 899.234 52.1211C899.688 51.1602 900.336 50.4141 901.18 49.8828C902.031 49.3516 903.035 49.0859 904.191 49.0859C905.613 49.0859 906.793 49.5117 907.73 50.3633C908.676 51.2148 909.18 52.3203 909.242 53.6797H907.191C907.129 52.8594 906.816 52.1875 906.254 51.6641C905.699 51.1328 905.012 50.8672 904.191 50.8672C903.09 50.8672 902.234 51.2656 901.625 52.0625C901.023 52.8516 900.723 53.9961 900.723 55.4961V55.9062C900.723 57.3672 901.023 58.4922 901.625 59.2812C902.227 60.0703 903.086 60.4648 904.203 60.4648ZM919.508 62C919.383 61.75 919.281 61.3047 919.203 60.6641C918.195 61.7109 916.992 62.2344 915.594 62.2344C914.344 62.2344 913.316 61.8828 912.512 61.1797C911.715 60.4688 911.316 59.5703 911.316 58.4844C911.316 57.1641 911.816 56.1406 912.816 55.4141C913.824 54.6797 915.238 54.3125 917.059 54.3125H919.168V53.3164C919.168 52.5586 918.941 51.957 918.488 51.5117C918.035 51.0586 917.367 50.832 916.484 50.832C915.711 50.832 915.062 51.0273 914.539 51.418C914.016 51.8086 913.754 52.2812 913.754 52.8359H911.574C911.574 52.2031 911.797 51.5938 912.242 51.0078C912.695 50.4141 913.305 49.9453 914.07 49.6016C914.844 49.2578 915.691 49.0859 916.613 49.0859C918.074 49.0859 919.219 49.4531 920.047 50.1875C920.875 50.9141 921.305 51.918 921.336 53.1992V59.0352C921.336 60.1992 921.484 61.125 921.781 61.8125V62H919.508ZM915.91 60.3477C916.59 60.3477 917.234 60.1719 917.844 59.8203C918.453 59.4688 918.895 59.0117 919.168 58.4492V55.8477H917.469C914.812 55.8477 913.484 56.625 913.484 58.1797C913.484 58.8594 913.711 59.3906 914.164 59.7734C914.617 60.1562 915.199 60.3477 915.91 60.3477ZM927.676 46.25V49.3203H930.043V50.9961H927.676V58.8594C927.676 59.3672 927.781 59.75 927.992 60.0078C928.203 60.2578 928.562 60.3828 929.07 60.3828C929.32 60.3828 929.664 60.3359 930.102 60.2422V62C929.531 62.1562 928.977 62.2344 928.438 62.2344C927.469 62.2344 926.738 61.9414 926.246 61.3555C925.754 60.7695 925.508 59.9375 925.508 58.8594V50.9961H923.199V49.3203H925.508V46.25H927.676ZM937.848 62.2344C936.129 62.2344 934.73 61.6719 933.652 60.5469C932.574 59.4141 932.035 57.9023 932.035 56.0117V55.6133C932.035 54.3555 932.273 53.2344 932.75 52.25C933.234 51.2578 933.906 50.4844 934.766 49.9297C935.633 49.3672 936.57 49.0859 937.578 49.0859C939.227 49.0859 940.508 49.6289 941.422 50.7148C942.336 51.8008 942.793 53.3555 942.793 55.3789V56.2812H934.203C934.234 57.5312 934.598 58.543 935.293 59.3164C935.996 60.082 936.887 60.4648 937.965 60.4648C938.73 60.4648 939.379 60.3086 939.91 59.9961C940.441 59.6836 940.906 59.2695 941.305 58.7539L942.629 59.7852C941.566 61.418 939.973 62.2344 937.848 62.2344ZM937.578 50.8672C936.703 50.8672 935.969 51.1875 935.375 51.8281C934.781 52.4609 934.414 53.3516 934.273 54.5H940.625V54.3359C940.562 53.2344 940.266 52.3828 939.734 51.7812C939.203 51.1719 938.484 50.8672 937.578 50.8672ZM951.441 51.2656C951.113 51.2109 950.758 51.1836 950.375 51.1836C948.953 51.1836 947.988 51.7891 947.48 53V62H945.312V49.3203H947.422L947.457 50.7852C948.168 49.6523 949.176 49.0859 950.48 49.0859C950.902 49.0859 951.223 49.1406 951.441 49.25V51.2656ZM955.801 62H953.633V49.3203H955.801V62ZM953.457 45.957C953.457 45.6055 953.562 45.3086 953.773 45.0664C953.992 44.8242 954.312 44.7031 954.734 44.7031C955.156 44.7031 955.477 44.8242 955.695 45.0664C955.914 45.3086 956.023 45.6055 956.023 45.957C956.023 46.3086 955.914 46.6016 955.695 46.8359C955.477 47.0703 955.156 47.1875 954.734 47.1875C954.312 47.1875 953.992 47.0703 953.773 46.8359C953.562 46.6016 953.457 46.3086 953.457 45.957ZM961.332 49.3203L961.402 50.9141C962.371 49.6953 963.637 49.0859 965.199 49.0859C967.879 49.0859 969.23 50.5977 969.254 53.6211V62H967.086V53.6094C967.078 52.6953 966.867 52.0195 966.453 51.582C966.047 51.1445 965.41 50.9258 964.543 50.9258C963.84 50.9258 963.223 51.1133 962.691 51.4883C962.16 51.8633 961.746 52.3555 961.449 52.9648V62H959.281V49.3203H961.332ZM972.008 55.5547C972.008 53.5781 972.465 52.0078 973.379 50.8438C974.293 49.6719 975.504 49.0859 977.012 49.0859C978.559 49.0859 979.766 49.6328 980.633 50.7266L980.738 49.3203H982.719V61.6953C982.719 63.3359 982.23 64.6289 981.254 65.5742C980.285 66.5195 978.98 66.9922 977.34 66.9922C976.426 66.9922 975.531 66.7969 974.656 66.4062C973.781 66.0156 973.113 65.4805 972.652 64.8008L973.777 63.5C974.707 64.6484 975.844 65.2227 977.188 65.2227C978.242 65.2227 979.062 64.9258 979.648 64.332C980.242 63.7383 980.539 62.9023 980.539 61.8242V60.7344C979.672 61.7344 978.488 62.2344 976.988 62.2344C975.504 62.2344 974.301 61.6367 973.379 60.4414C972.465 59.2461 972.008 57.6172 972.008 55.5547ZM974.188 55.8008C974.188 57.2305 974.48 58.3555 975.066 59.1758C975.652 59.9883 976.473 60.3945 977.527 60.3945C978.895 60.3945 979.898 59.7734 980.539 58.5312V52.7422C979.875 51.5312 978.879 50.9258 977.551 50.9258C976.496 50.9258 975.672 51.3359 975.078 52.1562C974.484 52.9766 974.188 54.1914 974.188 55.8008ZM860.738 86.6367C860.738 86.0508 860.516 85.5977 860.07 85.2773C859.633 84.9492 858.863 84.668 857.762 84.4336C856.668 84.1992 855.797 83.918 855.148 83.5898C854.508 83.2617 854.031 82.8711 853.719 82.418C853.414 81.9648 853.262 81.4258 853.262 80.8008C853.262 79.7617 853.699 78.8828 854.574 78.1641C855.457 77.4453 856.582 77.0859 857.949 77.0859C859.387 77.0859 860.551 77.457 861.441 78.1992C862.34 78.9414 862.789 79.8906 862.789 81.0469H860.609C860.609 80.4531 860.355 79.9414 859.848 79.5117C859.348 79.082 858.715 78.8672 857.949 78.8672C857.16 78.8672 856.543 79.0391 856.098 79.3828C855.652 79.7266 855.43 80.1758 855.43 80.7305C855.43 81.2539 855.637 81.6484 856.051 81.9141C856.465 82.1797 857.211 82.4336 858.289 82.6758C859.375 82.918 860.254 83.207 860.926 83.543C861.598 83.8789 862.094 84.2852 862.414 84.7617C862.742 85.2305 862.906 85.8047 862.906 86.4844C862.906 87.6172 862.453 88.5273 861.547 89.2148C860.641 89.8945 859.465 90.2344 858.02 90.2344C857.004 90.2344 856.105 90.0547 855.324 89.6953C854.543 89.3359 853.93 88.8359 853.484 88.1953C853.047 87.5469 852.828 86.8477 852.828 86.0977H854.996C855.035 86.8242 855.324 87.4023 855.863 87.832C856.41 88.2539 857.129 88.4648 858.02 88.4648C858.84 88.4648 859.496 88.3008 859.988 87.9727C860.488 87.6367 860.738 87.1914 860.738 86.6367ZM870.992 90.2344C869.273 90.2344 867.875 89.6719 866.797 88.5469C865.719 87.4141 865.18 85.9023 865.18 84.0117V83.6133C865.18 82.3555 865.418 81.2344 865.895 80.25C866.379 79.2578 867.051 78.4844 867.91 77.9297C868.777 77.3672 869.715 77.0859 870.723 77.0859C872.371 77.0859 873.652 77.6289 874.566 78.7148C875.48 79.8008 875.938 81.3555 875.938 83.3789V84.2812H867.348C867.379 85.5312 867.742 86.543 868.438 87.3164C869.141 88.082 870.031 88.4648 871.109 88.4648C871.875 88.4648 872.523 88.3086 873.055 87.9961C873.586 87.6836 874.051 87.2695 874.449 86.7539L875.773 87.7852C874.711 89.418 873.117 90.2344 870.992 90.2344ZM870.723 78.8672C869.848 78.8672 869.113 79.1875 868.52 79.8281C867.926 80.4609 867.559 81.3516 867.418 82.5H873.77V82.3359C873.707 81.2344 873.41 80.3828 872.879 79.7812C872.348 79.1719 871.629 78.8672 870.723 78.8672ZM884.586 79.2656C884.258 79.2109 883.902 79.1836 883.52 79.1836C882.098 79.1836 881.133 79.7891 880.625 81V90H878.457V77.3203H880.566L880.602 78.7852C881.312 77.6523 882.32 77.0859 883.625 77.0859C884.047 77.0859 884.367 77.1406 884.586 77.25V79.2656ZM890.984 87.0586L894.125 77.3203H896.34L891.793 90H890.141L885.547 77.3203H887.762L890.984 87.0586ZM900.781 90H898.613V77.3203H900.781V90ZM898.438 73.957C898.438 73.6055 898.543 73.3086 898.754 73.0664C898.973 72.8242 899.293 72.7031 899.715 72.7031C900.137 72.7031 900.457 72.8242 900.676 73.0664C900.895 73.3086 901.004 73.6055 901.004 73.957C901.004 74.3086 900.895 74.6016 900.676 74.8359C900.457 75.0703 900.137 75.1875 899.715 75.1875C899.293 75.1875 898.973 75.0703 898.754 74.8359C898.543 74.6016 898.438 74.3086 898.438 73.957ZM909.348 88.4648C910.121 88.4648 910.797 88.2305 911.375 87.7617C911.953 87.293 912.273 86.707 912.336 86.0039H914.387C914.348 86.7305 914.098 87.4219 913.637 88.0781C913.176 88.7344 912.559 89.2578 911.785 89.6484C911.02 90.0391 910.207 90.2344 909.348 90.2344C907.621 90.2344 906.246 89.6602 905.223 88.5117C904.207 87.3555 903.699 85.7773 903.699 83.7773V83.4141C903.699 82.1797 903.926 81.082 904.379 80.1211C904.832 79.1602 905.48 78.4141 906.324 77.8828C907.176 77.3516 908.18 77.0859 909.336 77.0859C910.758 77.0859 911.938 77.5117 912.875 78.3633C913.82 79.2148 914.324 80.3203 914.387 81.6797H912.336C912.273 80.8594 911.961 80.1875 911.398 79.6641C910.844 79.1328 910.156 78.8672 909.336 78.8672C908.234 78.8672 907.379 79.2656 906.77 80.0625C906.168 80.8516 905.867 81.9961 905.867 83.4961V83.9062C905.867 85.3672 906.168 86.4922 906.77 87.2812C907.371 88.0703 908.23 88.4648 909.348 88.4648ZM922.086 90.2344C920.367 90.2344 918.969 89.6719 917.891 88.5469C916.812 87.4141 916.273 85.9023 916.273 84.0117V83.6133C916.273 82.3555 916.512 81.2344 916.988 80.25C917.473 79.2578 918.145 78.4844 919.004 77.9297C919.871 77.3672 920.809 77.0859 921.816 77.0859C923.465 77.0859 924.746 77.6289 925.66 78.7148C926.574 79.8008 927.031 81.3555 927.031 83.3789V84.2812H918.441C918.473 85.5312 918.836 86.543 919.531 87.3164C920.234 88.082 921.125 88.4648 922.203 88.4648C922.969 88.4648 923.617 88.3086 924.148 87.9961C924.68 87.6836 925.145 87.2695 925.543 86.7539L926.867 87.7852C925.805 89.418 924.211 90.2344 922.086 90.2344ZM921.816 78.8672C920.941 78.8672 920.207 79.1875 919.613 79.8281C919.02 80.4609 918.652 81.3516 918.512 82.5H924.863V82.3359C924.801 81.2344 924.504 80.3828 923.973 79.7812C923.441 79.1719 922.723 78.8672 921.816 78.8672ZM936.934 86.6367C936.934 86.0508 936.711 85.5977 936.266 85.2773C935.828 84.9492 935.059 84.668 933.957 84.4336C932.863 84.1992 931.992 83.918 931.344 83.5898C930.703 83.2617 930.227 82.8711 929.914 82.418C929.609 81.9648 929.457 81.4258 929.457 80.8008C929.457 79.7617 929.895 78.8828 930.77 78.1641C931.652 77.4453 932.777 77.0859 934.145 77.0859C935.582 77.0859 936.746 77.457 937.637 78.1992C938.535 78.9414 938.984 79.8906 938.984 81.0469H936.805C936.805 80.4531 936.551 79.9414 936.043 79.5117C935.543 79.082 934.91 78.8672 934.145 78.8672C933.355 78.8672 932.738 79.0391 932.293 79.3828C931.848 79.7266 931.625 80.1758 931.625 80.7305C931.625 81.2539 931.832 81.6484 932.246 81.9141C932.66 82.1797 933.406 82.4336 934.484 82.6758C935.57 82.918 936.449 83.207 937.121 83.543C937.793 83.8789 938.289 84.2852 938.609 84.7617C938.938 85.2305 939.102 85.8047 939.102 86.4844C939.102 87.6172 938.648 88.5273 937.742 89.2148C936.836 89.8945 935.66 90.2344 934.215 90.2344C933.199 90.2344 932.301 90.0547 931.52 89.6953C930.738 89.3359 930.125 88.8359 929.68 88.1953C929.242 87.5469 929.023 86.8477 929.023 86.0977H931.191C931.23 86.8242 931.52 87.4023 932.059 87.832C932.605 88.2539 933.324 88.4648 934.215 88.4648C935.035 88.4648 935.691 88.3008 936.184 87.9727C936.684 87.6367 936.934 87.1914 936.934 86.6367Z" fill="white"/>
</svg>
